<svg width="49" height="49" fill="none" xmlns="http://www.w3.org/2000/svg"><mask id="a" style="mask-type:alpha" maskUnits="userSpaceOnUse" x="0" y="0" width="49" height="49"><path fill="#D9D9D9" d="M.805.443h48v48h-48z"/></mask><g mask="url(#a)"><path d="M32.805 23.77V10.443h2V21.77l-2 2Zm-22 14.673v-28h2v28h-2Zm11-21.961v-6.039h2v6.039h-2Zm0 10.961v-6.038h2v6.038h-2Zm0 11v-6.038h2v6.038h-2Zm7.461 0v-4.419L39.932 23.41c.197-.198.4-.331.61-.4a2 2 0 0 1 .63-.104 1.85 1.85 0 0 1 1.279.515l1.85 1.889c.164.197.289.402.375.615a1.695 1.695 0 0 1 .006 1.283 2.058 2.058 0 0 1-.381.621L33.685 38.443h-4.419Zm1.77-1.769h1.9l6.934-6.946-.938-.95-.912-.977-6.985 6.973v1.9Zm7.896-7.896-.912-.977 1.85 1.927-.938-.95Z" fill="#D3965F"/></g></svg>