<svg width="49" height="49" fill="none" xmlns="http://www.w3.org/2000/svg"><mask id="a" style="mask-type:alpha" maskUnits="userSpaceOnUse" x="0" y="0" width="49" height="49"><path fill="#D9D9D9" d="M.805.443h48v48h-48z"/></mask><g mask="url(#a)"><path d="M6.805 42.443V21.74l10-4.257v3.923l10-4v5.038h16v20h-36Zm2-2h32v-16h-16v-4.1l-10 4v-3.9l-6 2.65v17.35Zm14.461-4.923h3.077v-6.154h-3.077v6.154Zm-8 0h3.077v-6.154h-3.077v6.154Zm16 0h3.077v-6.154h-3.077v6.154Zm11.539-13.077h-6.231l2-14.461h2.462l1.769 14.461Z" fill="#D3965F"/></g></svg>