<svg width="69" height="68" fill="none" xmlns="http://www.w3.org/2000/svg"><rect x=".75" y=".5" width="67" height="67" rx="33.5" stroke="#D3965F"/><mask id="a" style="mask-type:alpha" maskUnits="userSpaceOnUse" x="16" y="16" width="49" height="49"><path fill="#D9D9D9" d="M16.055 16.443h48v48h-48z"/></mask><g mask="url(#a)"><path d="M43.802 47.795a1.23 1.23 0 0 1-.447-.08 1.179 1.179 0 0 1-.401-.275l-7.477-7.448a1.177 1.177 0 0 1-.276-.4 1.227 1.227 0 0 1-.08-.448c0-.161.027-.31.08-.447.053-.137.145-.27.276-.401l2.495-2.495c.13-.13.264-.223.4-.276a1.23 1.23 0 0 1 .448-.079c.161 0 .31.026.447.08.136.052.27.144.401.275l7.477 7.477c.13.13.222.264.275.4.053.137.08.286.08.448 0 .161-.027.31-.08.447a1.17 1.17 0 0 1-.275.4L44.65 47.44a1.186 1.186 0 0 1-.401.276 1.23 1.23 0 0 1-.447.08Zm-19.434.009c-.162 0-.312-.028-.451-.084a1.224 1.224 0 0 1-.406-.28l-2.486-2.457a1.221 1.221 0 0 1-.28-.406 1.283 1.283 0 0 1 0-.913c.056-.146.149-.284.28-.415l7.719-7.72h3.13l1.16-1.159-6.361-6.36h-2.138l-3.787-3.788 3.199-3.199 3.787 3.788v2.137l6.36 6.36 4.524-4.523-2.766-2.766 1.696-1.696h-3.401l-.617-.588 4.257-4.258.589.588v3.43l1.696-1.696 5.96 5.902c.367.348.639.747.816 1.198.177.451.265.929.265 1.433a3.586 3.586 0 0 1-.649 2.062l-3.072-3.072-2.129 2.129-1.604-1.604-6.753 6.753v3.179l-7.69 7.661a1.24 1.24 0 0 1-.4.28 1.171 1.171 0 0 1-.448.084Z" fill="#D3965F"/></g></svg>