<svg width="41" height="58" fill="none" xmlns="http://www.w3.org/2000/svg"><path d="M39.571 20.286c0 10.671-19.285 36.428-19.285 36.428S1 30.957 1 20.286a19.286 19.286 0 1 1 38.571 0v0Z" stroke="#D3965F" stroke-width="2" stroke-linecap="round" stroke-linejoin="round"/><path d="M11.977 17.84A2 2 0 0 1 13.971 16H26.03a2 2 0 0 1 1.994 1.84l.803 10A2 2 0 0 1 26.833 30H13.167a2 2 0 0 1-1.993-2.16l.803-10Z" stroke="#D3965F" stroke-width="1.5" stroke-linecap="round" stroke-linejoin="round"/><path d="M24 19v-5a4 4 0 1 0-8 0v5" stroke="#D3965F" stroke-width="1.5" stroke-linecap="round" stroke-linejoin="round"/></svg>