<svg width="60" height="60" fill="none" xmlns="http://www.w3.org/2000/svg"><path d="M49.286 21.428c0 10.672-19.285 36.429-19.285 36.429S10.715 32.1 10.715 21.428a19.286 19.286 0 0 1 38.571 0v0Z" stroke="#D3965F" stroke-width="1.5" stroke-linecap="round" stroke-linejoin="round"/><g clip-path="url(#a)"><path d="m39.9 16.05-4.4 2.2m0 0-.55.275L30 21m5.5-2.75v3.85m0-3.85-10.45-5.5M30 21l-9.9-4.95M30 21v10.45m3.936-19.93 2.2 1.155c2.366 1.242 3.55 1.862 4.207 2.979.657 1.115.657 2.505.657 5.282v.129c0 2.776 0 4.166-.657 5.281-.658 1.116-1.841 1.738-4.207 2.98l-2.2 1.154C32.004 31.493 31.038 32 30 32c-1.038 0-2.004-.506-3.936-1.52l-2.2-1.155c-2.366-1.242-3.55-1.863-4.207-2.979C19 25.231 19 23.841 19 21.066v-.129c0-2.777 0-4.167.657-5.282.657-1.116 1.841-1.738 4.207-2.979l2.2-1.155C27.996 10.507 28.962 10 30 10c1.038 0 2.004.506 3.936 1.52Z" stroke="#D3965F" stroke-width="1.5" stroke-linecap="round"/></g><defs><clipPath id="a"><path fill="#fff" transform="translate(18 9)" d="M0 0h24v24H0z"/></clipPath></defs></svg>