<svg width="68" height="68" fill="none" xmlns="http://www.w3.org/2000/svg"><rect x=".5" y=".5" width="67" height="67" rx="33.5" stroke="#D3965F"/><mask id="a" style="mask-type:alpha" maskUnits="userSpaceOnUse" x="15" y="16" width="49" height="49"><path fill="#D9D9D9" d="M15.805 16.443h48v48h-48z"/></mask><g mask="url(#a)"><path d="M36.45 49.333h-3.78a1.19 1.19 0 0 1-.852-.345 1.09 1.09 0 0 1-.359-.81v-7.817c0-.31.12-.579.36-.809.239-.23.523-.344.852-.344h1.125v-5.856a.806.806 0 0 0-.303-.635 1.092 1.092 0 0 0-.736-.26h-9.865c-.71 0-1.31-.236-1.802-.708a2.29 2.29 0 0 1-.736-1.714v-4.558c0-.652.245-1.214.736-1.686.492-.472 1.092-.709 1.802-.709h1.846v-1.096c0-.31.12-.579.36-.809.239-.23.523-.345.852-.345h17.192c.329 0 .613.115.852.345.24.23.36.5.36.81v3.692c0 .31-.12.579-.36.809a1.19 1.19 0 0 1-.852.345H25.95c-.33 0-.613-.115-.853-.345-.24-.23-.359-.5-.359-.81v-1.096h-1.846c-.308 0-.558.087-.75.26a.822.822 0 0 0-.288.635v4.558c0 .269.096.49.288.663.192.173.442.26.75.26h9.865c.69 0 1.286.236 1.787.708.501.472.752 1.034.752 1.686v5.856h1.154c.328 0 .608.114.838.344.23.23.344.5.344.81v7.817c0 .31-.114.579-.344.809-.23.23-.51.345-.838.345Z" fill="#D3965F"/></g></svg>