<svg width="69" height="68" fill="none" xmlns="http://www.w3.org/2000/svg"><rect x=".75" y=".5" width="67" height="67" rx="33.5" stroke="#D3965F"/><mask id="a" style="mask-type:alpha" maskUnits="userSpaceOnUse" x="10" y="10" width="49" height="48"><path fill="#D9D9D9" d="M10.5 10h48v48h-48z"/></mask><g mask="url(#a)"><path d="m31.58 35.356 1.12-3.71-2.948-2.161h3.683l1.127-3.749 1.128 3.749h3.683l-2.956 2.162 1.12 3.71-2.974-2.303-2.983 2.302Zm-4.205 11.766v-9.474a9.525 9.525 0 0 1-2.12-3.146 9.883 9.883 0 0 1-.755-3.856c0-2.805.976-5.184 2.927-7.135 1.952-1.952 4.33-2.928 7.136-2.928 2.804 0 5.183.976 7.134 2.928 1.952 1.951 2.928 4.33 2.928 7.135 0 1.37-.252 2.654-.755 3.856a9.525 9.525 0 0 1-2.12 3.146v9.474l-7.188-2.157-7.187 2.157Zm7.188-7.851c2.395 0 4.432-.839 6.109-2.516 1.677-1.677 2.516-3.713 2.516-6.11 0-2.395-.839-4.431-2.516-6.109-1.677-1.677-3.714-2.515-6.11-2.515-2.395 0-4.432.838-6.109 2.515-1.677 1.677-2.515 3.714-2.515 6.11 0 2.396.838 4.432 2.515 6.11 1.677 1.676 3.714 2.515 6.11 2.515Z" fill="#D3965F"/></g></svg>