<svg width="48" height="48" viewBox="0 0 48 48" fill="none" xmlns="http://www.w3.org/2000/svg">
<path d="M41 37L36.17 32.17C35.42 31.42 34.4 31 33.34 31H32L30 32H26C24.9 32 24 32.9 24 34V36" stroke="#D3965F" stroke-width="2" stroke-linecap="round" stroke-linejoin="round"/>
<path d="M35 43.0009L33 41.0009H21L12 32.0009L13.57 31.6109C15.1 31.2309 16.73 31.5809 17.96 32.5709L22 36.0009H30" stroke="#D3965F" stroke-width="2" stroke-linecap="round" stroke-linejoin="round"/>
<path d="M7 10L11.83 14.83C12.58 15.58 13.6 16 14.66 16H16L18 15H22C23.1 15 24 14.1 24 13V11" stroke="#D3965F" stroke-width="2" stroke-linecap="round" stroke-linejoin="round"/>
<path d="M13 4L15 6H27L36 15L34.43 15.39C32.9 15.77 31.27 15.42 30.04 14.43L26 11H18" stroke="#D3965F" stroke-width="2" stroke-linecap="round" stroke-linejoin="round"/>
<path d="M24 19.7208C24.59 18.5908 25.84 17.8508 27.23 18.0308C28.83 18.2308 30 19.6708 30 21.2808C30 23.0208 29.31 24.6908 28.08 25.9208L24 30.0008L19.92 25.9208C18.69 24.6908 18 23.0208 18 21.2808C18 19.5808 19.3 18.1008 21 18.0108C22.3 17.9408 23.45 18.6508 24 19.7308V19.7208Z" stroke="#D3965F" stroke-width="2" stroke-linecap="round" stroke-linejoin="round"/>
</svg>
