<svg width="48" height="48" viewBox="0 0 48 48" fill="none" xmlns="http://www.w3.org/2000/svg">
<path d="M34.4016 8.40039H13.6016C13.1221 8.41356 12.6524 8.53939 12.2305 8.76771C11.8086 8.99603 11.4463 9.32043 11.173 9.71468L5.97302 16.9147C5.58689 17.4603 5.39406 18.1193 5.42512 18.787C5.45617 19.4547 5.70934 20.0929 6.14445 20.6004L21.7444 38.5718C22.0115 38.9159 22.3537 39.1944 22.7449 39.386C23.1362 39.5776 23.566 39.6772 24.0016 39.6772C24.4372 39.6772 24.867 39.5776 25.2582 39.386C25.6494 39.1944 25.9917 38.9159 26.2587 38.5718L41.8587 20.6004C42.2938 20.0929 42.547 19.4547 42.5781 18.787C42.6091 18.1193 42.4163 17.4603 42.0302 16.9147L36.8302 9.71468C36.5569 9.32043 36.1946 8.99603 35.7727 8.76771C35.3508 8.53939 34.8811 8.41356 34.4016 8.40039V8.40039Z" stroke="#D3965F" stroke-width="2" stroke-linecap="round" stroke-linejoin="round"/>
<path d="M22.5144 8.37109L15.543 19.1711L24.0001 39.5997" stroke="#D3965F" stroke-width="2" stroke-linecap="round" stroke-linejoin="round"/>
<path d="M25.5714 8.37109L32.5143 19.1711L24 39.5997" stroke="#D3965F" stroke-width="2" stroke-linecap="round" stroke-linejoin="round"/>
<path d="M5.48828 19.1719H42.5169" stroke="#D3965F" stroke-width="2" stroke-linecap="round" stroke-linejoin="round"/>
</svg>
