<svg width="48" height="48" viewBox="0 0 48 48" fill="none" xmlns="http://www.w3.org/2000/svg">
<path d="M16.7419 6H31.2581L31.5484 6.29032L31.7661 7.37903L32.2016 8.10484L32.7823 8.54032L33.3629 8.75806L34.1613 8.90323L34.4516 9.19355V13.3306L34.2339 15.0726L33.7984 16.9597L33.2177 18.7016L32.4194 20.4435L31.6935 21.75L31.1129 22.621L30.4597 23.4919L29.8065 24.2903L28.9355 25.2339L28.3548 25.8145L27.5565 26.4677L26.7581 27.121L25.4516 27.9919L24.2903 28.6452L24.1452 28.7177L24.5081 28.8629L25.8145 29.0806L26.9758 29.1532L30.3871 29.2258L31.1129 29.5161L31.621 29.9516L31.9839 30.5323V30.6774L35.7581 29.2258L38.5887 28.1371L38.879 28.0645H40.1855L40.9113 28.3548L41.4919 28.8629L41.8548 29.4435L42 29.879V31.1129L41.7097 31.7661L41.2742 32.3468L40.4758 32.8548L38.7339 33.871L36.9919 34.8871L35.25 35.9032L33.5081 36.9194L31.7661 37.9355L30.0242 38.9516L28.6452 39.6048L27.1935 40.0403L25.8871 40.2581H23.6371L22.3306 40.0403L20.879 39.6048L17.6129 38.2984L16.8145 38.0806H15.3629L14.4194 38.371L13.5484 38.879L11.879 40.5484L11.8065 41.7097L11.5161 42H6.29032L6 41.7097V28.3548L6.29032 28.0645H11.5161L11.8065 28.3548L11.879 29.8065L13.4758 28.7903L15 28.0645L16.5242 27.629L17.5403 27.4839H19.6452L20.9516 27.7016L22.1129 28.0645L23.5645 28.5726L22.1855 27.7742L20.879 26.8306L19.9355 26.0323L18.9919 25.1613L18.0484 24.1452L17.1048 22.9113L16.2339 21.6048L15.5081 20.2984L14.7823 18.7016L14.129 16.6694L13.7661 15.0726L13.5484 13.3306V9.19355L13.8387 8.90323L14.9274 8.68548L15.6532 8.25L16.0887 7.66935L16.3065 7.08871L16.4516 6.29032L16.7419 6ZM17.6129 7.16129L17.1774 8.32258L16.6694 8.97581L16.0887 9.48387L15.3629 9.84677L14.7097 10.0645V11.6613L14.7823 13.2581L15 14.8548L15.3629 16.4516L16.0161 18.4113L16.8871 20.2258L17.4677 21.2419L18.3387 22.4758L18.9919 23.2742L19.6452 24L20.879 25.2339L21.8952 26.0323L23.0565 26.8306L23.9274 27.3387L24.3629 27.1935L25.5968 26.3952L26.4677 25.7419L27.4113 24.9435L28.8629 23.4919L29.6613 22.4758L30.3871 21.4597L31.0403 20.371L31.621 19.2097L32.2016 17.8306L32.7823 15.9435L33.1452 13.9839L33.2177 13.2581L33.2903 11.6613V10.0645L32.129 9.62903L31.4758 9.12097L30.9677 8.54032L30.6048 7.81452L30.3871 7.16129H17.6129ZM17.5403 28.7177L16.1613 29.0081L14.9274 29.4435L13.8387 30.0242L12.2419 31.0403L11.8065 31.3306V38.7339L12.3145 38.2984L13.0403 37.7177L14.129 37.1371L15.2177 36.8468H17.0323L18.0484 37.1371L21.1694 38.371L22.4758 38.8064L23.7097 39.0242H25.8145L27.2661 38.7339L28.3548 38.371L29.5161 37.7903L31.5484 36.629L33.5081 35.4677L35.3952 34.379L37.1371 33.3629L38.879 32.3468L40.3306 31.4758L40.6935 31.0403L40.7661 30.8952V30.0968L40.4758 29.6613L40.1129 29.371L39.5323 29.2258L38.6613 29.4435L34.8871 30.8952L32.2742 31.9113L32.0564 32.129L31.7661 32.7823L31.4758 33.2177L30.8226 33.6532L30.3871 33.7984L22.2581 33.871V32.7097H29.8065L30.4597 32.4919L30.8226 32.0564L30.8952 31.9113V31.1855L30.6048 30.75L30.1694 30.4597L29.8065 30.3871L25.6694 30.3145L24.0726 30.0242L22.621 29.5887L21.5323 29.1532L20.0806 28.7903L19.5726 28.7177H17.5403ZM7.16129 29.2258V40.8387H10.6452V29.2258H7.16129Z" fill="#D3965F" stroke="#D3965F" stroke-width="0.5"/>
<path d="M20 15L23.5 18.5L29 11.5" stroke="#D3965F" stroke-width="2" stroke-linecap="round" stroke-linejoin="round"/>
</svg>
