<svg width="48" height="48" viewBox="0 0 48 48" fill="none" xmlns="http://www.w3.org/2000/svg">
<path fill-rule="evenodd" clip-rule="evenodd" d="M18.1711 6.33398C17.895 6.33398 17.6711 6.55784 17.6711 6.83398C17.6711 7.11013 17.895 7.33398 18.1711 7.33398H24.0711V9.94979C24.0711 10.0315 24.0907 10.1087 24.1255 10.1768C15.4946 10.4062 8.57031 17.2907 8.57031 25.7499C8.57031 34.354 15.7338 41.329 24.5703 41.329C33.4069 41.329 40.5703 34.354 40.5703 25.7499C40.5703 17.2912 33.6469 10.407 25.0167 10.1768C25.0515 10.1087 25.0711 10.0315 25.0711 9.94979V7.33398H25.0762H25.0863H25.0965H25.1067H25.117H25.1273H25.1376H25.148H25.1584H25.1689H25.1794H25.1899H25.2005H25.2111H25.2217H25.2324H25.2432H25.2539H25.2647H25.2756H25.2864H25.2974H25.3083H25.3193H25.3303H25.3414H25.3525H25.3636H25.3748H25.386H25.3972H25.4085H25.4198H25.4312H25.4425H25.4539H25.4654H25.4769H25.4884H25.4999H25.5115H25.5231H25.5348H25.5465H25.5582H25.5699H25.5817H25.5935H25.6054H25.6172H25.6291H25.6411H25.653H25.665H25.6771H25.6891H25.7012H25.7133H25.7255H25.7377H25.7499H25.7621H25.7744H25.7867H25.799H25.8114H25.8238H25.8362H25.8486H25.8611H25.8736H25.8861H25.8987H25.9112H25.9238H25.9365H25.9491H25.9618H25.9745H25.9873H26H26.0128H26.0257H26.0385H26.0514H26.0643H26.0772H26.0901H26.1031H26.1161H26.1291H26.1421H26.1552H26.1683H26.1814H26.1945H26.2077H26.2209H26.2341H26.2473H26.2605H26.2738H26.2871H26.3004H26.3137H26.3271H26.3405H26.3539H26.3673H26.3807H26.3942H26.4077H26.4212H26.4347H26.4482H26.4618H26.4753H26.4889H26.5026H26.5162H26.5298H26.5435H26.5572H26.5709H26.5846H26.5984H26.6121H26.6259H26.6397H26.6535H26.6674H26.6812H26.6951H26.7089H26.7228H26.7367H26.7507H26.7646H26.7785H26.7925H26.8065H26.8205H26.8345H26.8485H26.8626H26.8766H26.8907H26.9048H26.9189H26.933H26.9471H26.9613H26.9754H26.9896H27.0037H27.0179H27.0321H27.0463H27.0605H27.0748H27.089H27.1033H27.1175H27.1318H27.1461H27.1604H27.1747H27.189H27.2033H27.2177H27.232H27.2463H27.2607H27.2751H27.2895H27.3038H27.3182H27.3326H27.347H27.3615H27.3759H27.3903H27.4048H27.4192H27.4337H27.4481H27.4626H27.4771H27.4915H27.506H27.5205H27.535H27.5495H27.564H27.5785H27.593H27.6075H27.6221H27.6366H27.6511H27.6656H27.6802H27.6947H27.7093H27.7238H27.7384H27.7529H27.7675H27.782H27.7966H27.8111H27.8257H27.8403H27.8548H27.8694H27.8839H27.8985H27.9131H27.9277H27.9422H27.9568H27.9714H27.9859H28.0005H28.015H28.0296H28.0442H28.0587H28.0733H28.0879H28.1024H28.117H28.1315H28.1461H28.1606H28.1752H28.1897H28.2042H28.2188H28.2333H28.2478H28.2624H28.2769H28.2914H28.3059H28.3204H28.3349H28.3494H28.3639H28.3784H28.3929H28.4073H28.4218H28.4363H28.4507H28.4652H28.4796H28.494H28.5085H28.5229H28.5373H28.5517H28.5661H28.5805H28.5949H28.6092H28.6236H28.638H28.6523H28.6666H28.681H28.6953H28.7096H28.7239H28.7382H28.7525H28.7667H28.781H28.7952H28.8095H28.8237H28.8379H28.8521H28.8663H28.8805H28.8946H28.9088H28.9229H28.937H28.9512H28.9653H28.9793H28.9934H29.0075H29.0215H29.0356H29.0496H29.0636H29.0776H29.0915H29.1055H29.1195H29.1334H29.1473H29.1612H29.1751H29.1889H29.2028H29.2166H29.2304H29.2442H29.258H29.2718H29.2855H29.2993H29.313H29.3267H29.3404H29.354H29.3677H29.3813H29.3949H29.4085H29.422H29.4356H29.4491H29.4626H29.4761H29.4896H29.503H29.5164H29.5299H29.5432H29.5566H29.5699H29.5833H29.5966H29.6098H29.6231H29.6363H29.6495H29.6627H29.6759H29.689H29.7021H29.7152H29.7283H29.7414H29.7544H29.7674H29.7804H29.7933H29.8062H29.8191H29.832H29.8449H29.8577H29.8705H29.8833H29.896H29.9088H29.9215H29.9341H29.9468H29.9594H29.972H29.9845H29.9971H30.0096H30.0221H30.0345H30.0469H30.0593H30.0717H30.084H30.0964H30.1086H30.1209H30.1331H30.1453H30.1575H30.1696H30.1817H30.1938H30.2058H30.2178H30.2298H30.2418H30.2537H30.2656H30.2774H30.2892H30.301H30.3128H30.3245H30.3362H30.3479H30.3595H30.3711H30.3826H30.3942H30.4057H30.4171H30.4286H30.4399H30.4513H30.4626H30.4739H30.4852H30.4964H30.5076H30.5187H30.5298H30.5409H30.5519H30.5629H30.5739H30.5848H30.5957H30.6066H30.6174H30.6282H30.6389H30.6496H30.6603H30.6709H30.6815H30.6921H30.7026H30.713H30.7235H30.7339H30.7442H30.7546H30.7648H30.7751H30.7853H30.7954H30.8055H30.8156H30.8256H30.8356H30.8456H30.8555H30.8654H30.8752H30.885H30.8947H30.9044H30.9141H30.9237H30.9333H30.9428H30.9523H30.9617H30.9711C31.2472 7.33398 31.4711 7.11013 31.4711 6.83398C31.4711 6.55784 31.2472 6.33398 30.9711 6.33398H30.9617H30.9523H30.9428H30.9333H30.9237H30.9141H30.9044H30.8947H30.885H30.8752H30.8654H30.8555H30.8456H30.8356H30.8256H30.8156H30.8055H30.7954H30.7853H30.7751H30.7648H30.7546H30.7442H30.7339H30.7235H30.713H30.7026H30.6921H30.6815H30.6709H30.6603H30.6496H30.6389H30.6282H30.6174H30.6066H30.5957H30.5848H30.5739H30.5629H30.5519H30.5409H30.5298H30.5187H30.5076H30.4964H30.4852H30.4739H30.4626H30.4513H30.4399H30.4286H30.4171H30.4057H30.3942H30.3826H30.3711H30.3595H30.3479H30.3362H30.3245H30.3128H30.301H30.2892H30.2774H30.2656H30.2537H30.2418H30.2298H30.2178H30.2058H30.1938H30.1817H30.1696H30.1575H30.1453H30.1331H30.1209H30.1086H30.0964H30.084H30.0717H30.0593H30.0469H30.0345H30.0221H30.0096H29.9971H29.9845H29.972H29.9594H29.9468H29.9341H29.9215H29.9088H29.896H29.8833H29.8705H29.8577H29.8449H29.832H29.8191H29.8062H29.7933H29.7804H29.7674H29.7544H29.7414H29.7283H29.7152H29.7021H29.689H29.6759H29.6627H29.6495H29.6363H29.6231H29.6098H29.5966H29.5833H29.5699H29.5566H29.5432H29.5299H29.5164H29.503H29.4896H29.4761H29.4626H29.4491H29.4356H29.422H29.4085H29.3949H29.3813H29.3677H29.354H29.3404H29.3267H29.313H29.2993H29.2855H29.2718H29.258H29.2442H29.2304H29.2166H29.2028H29.1889H29.1751H29.1612H29.1473H29.1334H29.1195H29.1055H29.0915H29.0776H29.0636H29.0496H29.0356H29.0215H29.0075H28.9934H28.9793H28.9653H28.9512H28.937H28.9229H28.9088H28.8946H28.8805H28.8663H28.8521H28.8379H28.8237H28.8095H28.7952H28.781H28.7667H28.7525H28.7382H28.7239H28.7096H28.6953H28.681H28.6666H28.6523H28.638H28.6236H28.6092H28.5949H28.5805H28.5661H28.5517H28.5373H28.5229H28.5085H28.494H28.4796H28.4652H28.4507H28.4363H28.4218H28.4073H28.3929H28.3784H28.3639H28.3494H28.3349H28.3204H28.3059H28.2914H28.2769H28.2624H28.2478H28.2333H28.2188H28.2042H28.1897H28.1752H28.1606H28.1461H28.1315H28.117H28.1024H28.0879H28.0733H28.0587H28.0442H28.0296H28.015H28.0005H27.9859H27.9714H27.9568H27.9422H27.9277H27.9131H27.8985H27.8839H27.8694H27.8548H27.8403H27.8257H27.8111H27.7966H27.782H27.7675H27.7529H27.7384H27.7238H27.7093H27.6947H27.6802H27.6656H27.6511H27.6366H27.6221H27.6075H27.593H27.5785H27.564H27.5495H27.535H27.5205H27.506H27.4915H27.4771H27.4626H27.4481H27.4337H27.4192H27.4048H27.3903H27.3759H27.3615H27.347H27.3326H27.3182H27.3038H27.2895H27.2751H27.2607H27.2463H27.232H27.2177H27.2033H27.189H27.1747H27.1604H27.1461H27.1318H27.1175H27.1033H27.089H27.0748H27.0605H27.0463H27.0321H27.0179H27.0037H26.9896H26.9754H26.9613H26.9471H26.933H26.9189H26.9048H26.8907H26.8766H26.8626H26.8485H26.8345H26.8205H26.8065H26.7925H26.7785H26.7646H26.7507H26.7367H26.7228H26.7089H26.6951H26.6812H26.6674H26.6535H26.6397H26.6259H26.6121H26.5984H26.5846H26.5709H26.5572H26.5435H26.5298H26.5162H26.5026H26.4889H26.4753H26.4618H26.4482H26.4347H26.4212H26.4077H26.3942H26.3807H26.3673H26.3539H26.3405H26.3271H26.3137H26.3004H26.2871H26.2738H26.2605H26.2473H26.2341H26.2209H26.2077H26.1945H26.1814H26.1683H26.1552H26.1421H26.1291H26.1161H26.1031H26.0901H26.0772H26.0643H26.0514H26.0385H26.0257H26.0128H26H25.9873H25.9745H25.9618H25.9491H25.9365H25.9238H25.9112H25.8987H25.8861H25.8736H25.8611H25.8486H25.8362H25.8238H25.8114H25.799H25.7867H25.7744H25.7621H25.7499H25.7377H25.7255H25.7133H25.7012H25.6891H25.6771H25.665H25.653H25.6411H25.6291H25.6172H25.6054H25.5935H25.5817H25.5699H25.5582H25.5465H25.5348H25.5231H25.5115H25.4999H25.4884H25.4769H25.4654H25.4539H25.4425H25.4312H25.4198H25.4085H25.3972H25.386H25.3748H25.3636H25.3525H25.3414H25.3303H25.3193H25.3083H25.2974H25.2864H25.2756H25.2647H25.2539H25.2432H25.2324H25.2217H25.2111H25.2005H25.1899H25.1794H25.1689H25.1584H25.148H25.1376H25.1273H25.117H25.1067H25.0965H25.0863H25.0762H25.0661H25.056H25.046H25.036H25.0261H25.0162H25.0063H24.9965H24.9867H24.977H24.9673H24.9577H24.9481H24.9385H24.929H24.9196H24.9101H24.9008H24.8914H24.8821H24.8729H24.8637H24.8545H24.8454H24.8363H24.8273H24.8183H24.8094H24.8005H24.7917H24.7829H24.7741H24.7654H24.7568H24.7482H24.7396H24.7311H24.7226H24.7142H24.7059H24.6975H24.6893H24.681H24.6729H24.6647H24.6567H24.6486H24.6407H24.6327H24.6249H24.617H24.6092H24.6015H24.5938H24.5862H24.5786H24.5711H18.1711ZM24.5703 40.329C32.8799 40.329 39.5703 33.7768 39.5703 25.7499C39.5703 17.7231 32.8799 11.1709 24.5703 11.1709C16.2607 11.1709 9.57031 17.7231 9.57031 25.7499C9.57031 33.7768 16.2607 40.329 24.5703 40.329ZM24.5703 15.9023C24.8465 15.9023 25.0703 16.1262 25.0703 16.4023V26.3234L30.6754 22.2302C30.8984 22.0673 31.2112 22.1161 31.3741 22.3391C31.537 22.5621 31.4882 22.8749 31.2652 23.0378L24.8652 27.7115C24.7132 27.8225 24.5117 27.8387 24.3439 27.7535C24.176 27.6682 24.0703 27.4959 24.0703 27.3077V16.4023C24.0703 16.1262 24.2942 15.9023 24.5703 15.9023Z" fill="#D3965F"/>
<path d="M24.0711 7.33398H24.8211C24.8211 6.91977 24.4853 6.58398 24.0711 6.58398V7.33398ZM24.1255 10.1768L24.1454 10.9265C24.4028 10.9197 24.6387 10.7813 24.7703 10.5599C24.9018 10.3385 24.9106 10.0652 24.7935 9.83582L24.1255 10.1768ZM25.0167 10.1768L24.3487 9.8358C24.2316 10.0651 24.2404 10.3385 24.3719 10.5599C24.5034 10.7813 24.7393 10.9197 24.9967 10.9266L25.0167 10.1768ZM25.0711 7.33398V6.58398C24.6569 6.58398 24.3211 6.91977 24.3211 7.33398H25.0711ZM25.0703 26.3234H24.3203C24.3203 26.6058 24.4789 26.8642 24.7306 26.9921C24.9824 27.12 25.2846 27.0956 25.5126 26.9291L25.0703 26.3234ZM30.6754 22.2302L30.2331 21.6245L30.2331 21.6245L30.6754 22.2302ZM31.3741 22.3391L30.7684 22.7814L30.7684 22.7814L31.3741 22.3391ZM31.2652 23.0378L30.8229 22.4321L30.8229 22.4321L31.2652 23.0378ZM24.8652 27.7115L25.3075 28.3172L24.8652 27.7115ZM18.4211 6.83398C18.4211 6.97206 18.3092 7.08398 18.1711 7.08398V5.58398C17.4808 5.58398 16.9211 6.14363 16.9211 6.83398H18.4211ZM18.1711 6.58398C18.3092 6.58398 18.4211 6.69591 18.4211 6.83398H16.9211C16.9211 7.52434 17.4808 8.08398 18.1711 8.08398V6.58398ZM24.0711 6.58398H18.1711V8.08398H24.0711V6.58398ZM24.8211 9.94979V7.33398H23.3211V9.94979H24.8211ZM24.7935 9.83582C24.8114 9.87084 24.8211 9.91027 24.8211 9.94979H23.3211C23.3211 10.1528 23.3701 10.3465 23.4575 10.5178L24.7935 9.83582ZM9.32031 25.7499C9.32031 17.7163 15.9015 11.1456 24.1454 10.9265L24.1056 9.42707C15.0877 9.66674 7.82031 16.8652 7.82031 25.7499H9.32031ZM24.5703 40.579C16.129 40.579 9.32031 33.9211 9.32031 25.7499H7.82031C7.82031 34.787 15.3385 42.079 24.5703 42.079V40.579ZM39.8203 25.7499C39.8203 33.9211 33.0116 40.579 24.5703 40.579V42.079C33.8021 42.079 41.3203 34.787 41.3203 25.7499H39.8203ZM24.9967 10.9266C33.2399 11.1464 39.8203 17.7167 39.8203 25.7499H41.3203C41.3203 16.8657 34.0538 9.66762 25.0367 9.42711L24.9967 10.9266ZM24.3211 9.94979C24.3211 9.91026 24.3308 9.87082 24.3487 9.8358L25.6847 10.5179C25.7721 10.3466 25.8211 10.1528 25.8211 9.94979H24.3211ZM24.3211 7.33398V9.94979H25.8211V7.33398H24.3211ZM25.0762 6.58398H25.0711V8.08398H25.0762V6.58398ZM25.0863 6.58398H25.0762V8.08398H25.0863V6.58398ZM25.0965 6.58398H25.0863V8.08398H25.0965V6.58398ZM25.1067 6.58398H25.0965V8.08398H25.1067V6.58398ZM25.117 6.58398H25.1067V8.08398H25.117V6.58398ZM25.1273 6.58398H25.117V8.08398H25.1273V6.58398ZM25.1376 6.58398H25.1273V8.08398H25.1376V6.58398ZM25.148 6.58398H25.1376V8.08398H25.148V6.58398ZM25.1584 6.58398H25.148V8.08398H25.1584V6.58398ZM25.1689 6.58398H25.1584V8.08398H25.1689V6.58398ZM25.1794 6.58398H25.1689V8.08398H25.1794V6.58398ZM25.1899 6.58398H25.1794V8.08398H25.1899V6.58398ZM25.2005 6.58398H25.1899V8.08398H25.2005V6.58398ZM25.2111 6.58398H25.2005V8.08398H25.2111V6.58398ZM25.2217 6.58398H25.2111V8.08398H25.2217V6.58398ZM25.2324 6.58398H25.2217V8.08398H25.2324V6.58398ZM25.2432 6.58398H25.2324V8.08398H25.2432V6.58398ZM25.2539 6.58398H25.2432V8.08398H25.2539V6.58398ZM25.2647 6.58398H25.2539V8.08398H25.2647V6.58398ZM25.2756 6.58398H25.2647V8.08398H25.2756V6.58398ZM25.2864 6.58398H25.2756V8.08398H25.2864V6.58398ZM25.2974 6.58398H25.2864V8.08398H25.2974V6.58398ZM25.3083 6.58398H25.2974V8.08398H25.3083V6.58398ZM25.3193 6.58398H25.3083V8.08398H25.3193V6.58398ZM25.3303 6.58398H25.3193V8.08398H25.3303V6.58398ZM25.3414 6.58398H25.3303V8.08398H25.3414V6.58398ZM25.3525 6.58398H25.3414V8.08398H25.3525V6.58398ZM25.3636 6.58398H25.3525V8.08398H25.3636V6.58398ZM25.3748 6.58398H25.3636V8.08398H25.3748V6.58398ZM25.386 6.58398H25.3748V8.08398H25.386V6.58398ZM25.3972 6.58398H25.386V8.08398H25.3972V6.58398ZM25.4085 6.58398H25.3972V8.08398H25.4085V6.58398ZM25.4198 6.58398H25.4085V8.08398H25.4198V6.58398ZM25.4312 6.58398H25.4198V8.08398H25.4312V6.58398ZM25.4425 6.58398H25.4312V8.08398H25.4425V6.58398ZM25.4539 6.58398H25.4425V8.08398H25.4539V6.58398ZM25.4654 6.58398H25.4539V8.08398H25.4654V6.58398ZM25.4769 6.58398H25.4654V8.08398H25.4769V6.58398ZM25.4884 6.58398H25.4769V8.08398H25.4884V6.58398ZM25.4999 6.58398H25.4884V8.08398H25.4999V6.58398ZM25.5115 6.58398H25.4999V8.08398H25.5115V6.58398ZM25.5231 6.58398H25.5115V8.08398H25.5231V6.58398ZM25.5348 6.58398H25.5231V8.08398H25.5348V6.58398ZM25.5465 6.58398H25.5348V8.08398H25.5465V6.58398ZM25.5582 6.58398H25.5465V8.08398H25.5582V6.58398ZM25.5699 6.58398H25.5582V8.08398H25.5699V6.58398ZM25.5817 6.58398H25.5699V8.08398H25.5817V6.58398ZM25.5935 6.58398H25.5817V8.08398H25.5935V6.58398ZM25.6054 6.58398H25.5935V8.08398H25.6054V6.58398ZM25.6172 6.58398H25.6054V8.08398H25.6172V6.58398ZM25.6291 6.58398H25.6172V8.08398H25.6291V6.58398ZM25.6411 6.58398H25.6291V8.08398H25.6411V6.58398ZM25.653 6.58398H25.6411V8.08398H25.653V6.58398ZM25.665 6.58398H25.653V8.08398H25.665V6.58398ZM25.6771 6.58398H25.665V8.08398H25.6771V6.58398ZM25.6891 6.58398H25.6771V8.08398H25.6891V6.58398ZM25.7012 6.58398H25.6891V8.08398H25.7012V6.58398ZM25.7133 6.58398H25.7012V8.08398H25.7133V6.58398ZM25.7255 6.58398H25.7133V8.08398H25.7255V6.58398ZM25.7377 6.58398H25.7255V8.08398H25.7377V6.58398ZM25.7499 6.58398H25.7377V8.08398H25.7499V6.58398ZM25.7621 6.58398H25.7499V8.08398H25.7621V6.58398ZM25.7744 6.58398H25.7621V8.08398H25.7744V6.58398ZM25.7867 6.58398H25.7744V8.08398H25.7867V6.58398ZM25.799 6.58398H25.7867V8.08398H25.799V6.58398ZM25.8114 6.58398H25.799V8.08398H25.8114V6.58398ZM25.8238 6.58398H25.8114V8.08398H25.8238V6.58398ZM25.8362 6.58398H25.8238V8.08398H25.8362V6.58398ZM25.8486 6.58398H25.8362V8.08398H25.8486V6.58398ZM25.8611 6.58398H25.8486V8.08398H25.8611V6.58398ZM25.8736 6.58398H25.8611V8.08398H25.8736V6.58398ZM25.8861 6.58398H25.8736V8.08398H25.8861V6.58398ZM25.8987 6.58398H25.8861V8.08398H25.8987V6.58398ZM25.9112 6.58398H25.8987V8.08398H25.9112V6.58398ZM25.9238 6.58398H25.9112V8.08398H25.9238V6.58398ZM25.9365 6.58398H25.9238V8.08398H25.9365V6.58398ZM25.9491 6.58398H25.9365V8.08398H25.9491V6.58398ZM25.9618 6.58398H25.9491V8.08398H25.9618V6.58398ZM25.9745 6.58398H25.9618V8.08398H25.9745V6.58398ZM25.9873 6.58398H25.9745V8.08398H25.9873V6.58398ZM26 6.58398H25.9873V8.08398H26V6.58398ZM26.0128 6.58398H26V8.08398H26.0128V6.58398ZM26.0257 6.58398H26.0128V8.08398H26.0257V6.58398ZM26.0385 6.58398H26.0257V8.08398H26.0385V6.58398ZM26.0514 6.58398H26.0385V8.08398H26.0514V6.58398ZM26.0643 6.58398H26.0514V8.08398H26.0643V6.58398ZM26.0772 6.58398H26.0643V8.08398H26.0772V6.58398ZM26.0901 6.58398H26.0772V8.08398H26.0901V6.58398ZM26.1031 6.58398H26.0901V8.08398H26.1031V6.58398ZM26.1161 6.58398H26.1031V8.08398H26.1161V6.58398ZM26.1291 6.58398H26.1161V8.08398H26.1291V6.58398ZM26.1421 6.58398H26.1291V8.08398H26.1421V6.58398ZM26.1552 6.58398H26.1421V8.08398H26.1552V6.58398ZM26.1683 6.58398H26.1552V8.08398H26.1683V6.58398ZM26.1814 6.58398H26.1683V8.08398H26.1814V6.58398ZM26.1945 6.58398H26.1814V8.08398H26.1945V6.58398ZM26.2077 6.58398H26.1945V8.08398H26.2077V6.58398ZM26.2209 6.58398H26.2077V8.08398H26.2209V6.58398ZM26.2341 6.58398H26.2209V8.08398H26.2341V6.58398ZM26.2473 6.58398H26.2341V8.08398H26.2473V6.58398ZM26.2605 6.58398H26.2473V8.08398H26.2605V6.58398ZM26.2738 6.58398H26.2605V8.08398H26.2738V6.58398ZM26.2871 6.58398H26.2738V8.08398H26.2871V6.58398ZM26.3004 6.58398H26.2871V8.08398H26.3004V6.58398ZM26.3137 6.58398H26.3004V8.08398H26.3137V6.58398ZM26.3271 6.58398H26.3137V8.08398H26.3271V6.58398ZM26.3405 6.58398H26.3271V8.08398H26.3405V6.58398ZM26.3539 6.58398H26.3405V8.08398H26.3539V6.58398ZM26.3673 6.58398H26.3539V8.08398H26.3673V6.58398ZM26.3807 6.58398H26.3673V8.08398H26.3807V6.58398ZM26.3942 6.58398H26.3807V8.08398H26.3942V6.58398ZM26.4077 6.58398H26.3942V8.08398H26.4077V6.58398ZM26.4212 6.58398H26.4077V8.08398H26.4212V6.58398ZM26.4347 6.58398H26.4212V8.08398H26.4347V6.58398ZM26.4482 6.58398H26.4347V8.08398H26.4482V6.58398ZM26.4618 6.58398H26.4482V8.08398H26.4618V6.58398ZM26.4753 6.58398H26.4618V8.08398H26.4753V6.58398ZM26.4889 6.58398H26.4753V8.08398H26.4889V6.58398ZM26.5026 6.58398H26.4889V8.08398H26.5026V6.58398ZM26.5162 6.58398H26.5026V8.08398H26.5162V6.58398ZM26.5298 6.58398H26.5162V8.08398H26.5298V6.58398ZM26.5435 6.58398H26.5298V8.08398H26.5435V6.58398ZM26.5572 6.58398H26.5435V8.08398H26.5572V6.58398ZM26.5709 6.58398H26.5572V8.08398H26.5709V6.58398ZM26.5846 6.58398H26.5709V8.08398H26.5846V6.58398ZM26.5984 6.58398H26.5846V8.08398H26.5984V6.58398ZM26.6121 6.58398H26.5984V8.08398H26.6121V6.58398ZM26.6259 6.58398H26.6121V8.08398H26.6259V6.58398ZM26.6397 6.58398H26.6259V8.08398H26.6397V6.58398ZM26.6535 6.58398H26.6397V8.08398H26.6535V6.58398ZM26.6674 6.58398H26.6535V8.08398H26.6674V6.58398ZM26.6812 6.58398H26.6674V8.08398H26.6812V6.58398ZM26.6951 6.58398H26.6812V8.08398H26.6951V6.58398ZM26.7089 6.58398H26.6951V8.08398H26.7089V6.58398ZM26.7228 6.58398H26.7089V8.08398H26.7228V6.58398ZM26.7367 6.58398H26.7228V8.08398H26.7367V6.58398ZM26.7507 6.58398H26.7367V8.08398H26.7507V6.58398ZM26.7646 6.58398H26.7507V8.08398H26.7646V6.58398ZM26.7785 6.58398H26.7646V8.08398H26.7785V6.58398ZM26.7925 6.58398H26.7785V8.08398H26.7925V6.58398ZM26.8065 6.58398H26.7925V8.08398H26.8065V6.58398ZM26.8205 6.58398H26.8065V8.08398H26.8205V6.58398ZM26.8345 6.58398H26.8205V8.08398H26.8345V6.58398ZM26.8485 6.58398H26.8345V8.08398H26.8485V6.58398ZM26.8626 6.58398H26.8485V8.08398H26.8626V6.58398ZM26.8766 6.58398H26.8626V8.08398H26.8766V6.58398ZM26.8907 6.58398H26.8766V8.08398H26.8907V6.58398ZM26.9048 6.58398H26.8907V8.08398H26.9048V6.58398ZM26.9189 6.58398H26.9048V8.08398H26.9189V6.58398ZM26.933 6.58398H26.9189V8.08398H26.933V6.58398ZM26.9471 6.58398H26.933V8.08398H26.9471V6.58398ZM26.9613 6.58398H26.9471V8.08398H26.9613V6.58398ZM26.9754 6.58398H26.9613V8.08398H26.9754V6.58398ZM26.9896 6.58398H26.9754V8.08398H26.9896V6.58398ZM27.0037 6.58398H26.9896V8.08398H27.0037V6.58398ZM27.0179 6.58398H27.0037V8.08398H27.0179V6.58398ZM27.0321 6.58398H27.0179V8.08398H27.0321V6.58398ZM27.0463 6.58398H27.0321V8.08398H27.0463V6.58398ZM27.0605 6.58398H27.0463V8.08398H27.0605V6.58398ZM27.0748 6.58398H27.0605V8.08398H27.0748V6.58398ZM27.089 6.58398H27.0748V8.08398H27.089V6.58398ZM27.1033 6.58398H27.089V8.08398H27.1033V6.58398ZM27.1175 6.58398H27.1033V8.08398H27.1175V6.58398ZM27.1318 6.58398H27.1175V8.08398H27.1318V6.58398ZM27.1461 6.58398H27.1318V8.08398H27.1461V6.58398ZM27.1604 6.58398H27.1461V8.08398H27.1604V6.58398ZM27.1747 6.58398H27.1604V8.08398H27.1747V6.58398ZM27.189 6.58398H27.1747V8.08398H27.189V6.58398ZM27.2033 6.58398H27.189V8.08398H27.2033V6.58398ZM27.2177 6.58398H27.2033V8.08398H27.2177V6.58398ZM27.232 6.58398H27.2177V8.08398H27.232V6.58398ZM27.2463 6.58398H27.232V8.08398H27.2463V6.58398ZM27.2607 6.58398H27.2463V8.08398H27.2607V6.58398ZM27.2751 6.58398H27.2607V8.08398H27.2751V6.58398ZM27.2895 6.58398H27.2751V8.08398H27.2895V6.58398ZM27.3038 6.58398H27.2895V8.08398H27.3038V6.58398ZM27.3182 6.58398H27.3038V8.08398H27.3182V6.58398ZM27.3326 6.58398H27.3182V8.08398H27.3326V6.58398ZM27.347 6.58398H27.3326V8.08398H27.347V6.58398ZM27.3615 6.58398H27.347V8.08398H27.3615V6.58398ZM27.3759 6.58398H27.3615V8.08398H27.3759V6.58398ZM27.3903 6.58398H27.3759V8.08398H27.3903V6.58398ZM27.4048 6.58398H27.3903V8.08398H27.4048V6.58398ZM27.4192 6.58398H27.4048V8.08398H27.4192V6.58398ZM27.4337 6.58398H27.4192V8.08398H27.4337V6.58398ZM27.4481 6.58398H27.4337V8.08398H27.4481V6.58398ZM27.4626 6.58398H27.4481V8.08398H27.4626V6.58398ZM27.4771 6.58398H27.4626V8.08398H27.4771V6.58398ZM27.4915 6.58398H27.4771V8.08398H27.4915V6.58398ZM27.506 6.58398H27.4915V8.08398H27.506V6.58398ZM27.5205 6.58398H27.506V8.08398H27.5205V6.58398ZM27.535 6.58398H27.5205V8.08398H27.535V6.58398ZM27.5495 6.58398H27.535V8.08398H27.5495V6.58398ZM27.564 6.58398H27.5495V8.08398H27.564V6.58398ZM27.5785 6.58398H27.564V8.08398H27.5785V6.58398ZM27.593 6.58398H27.5785V8.08398H27.593V6.58398ZM27.6075 6.58398H27.593V8.08398H27.6075V6.58398ZM27.6221 6.58398H27.6075V8.08398H27.6221V6.58398ZM27.6366 6.58398H27.6221V8.08398H27.6366V6.58398ZM27.6511 6.58398H27.6366V8.08398H27.6511V6.58398ZM27.6656 6.58398H27.6511V8.08398H27.6656V6.58398ZM27.6802 6.58398H27.6656V8.08398H27.6802V6.58398ZM27.6947 6.58398H27.6802V8.08398H27.6947V6.58398ZM27.7093 6.58398H27.6947V8.08398H27.7093V6.58398ZM27.7238 6.58398H27.7093V8.08398H27.7238V6.58398ZM27.7384 6.58398H27.7238V8.08398H27.7384V6.58398ZM27.7529 6.58398H27.7384V8.08398H27.7529V6.58398ZM27.7675 6.58398H27.7529V8.08398H27.7675V6.58398ZM27.782 6.58398H27.7675V8.08398H27.782V6.58398ZM27.7966 6.58398H27.782V8.08398H27.7966V6.58398ZM27.8111 6.58398H27.7966V8.08398H27.8111V6.58398ZM27.8257 6.58398H27.8111V8.08398H27.8257V6.58398ZM27.8403 6.58398H27.8257V8.08398H27.8403V6.58398ZM27.8548 6.58398H27.8403V8.08398H27.8548V6.58398ZM27.8694 6.58398H27.8548V8.08398H27.8694V6.58398ZM27.8839 6.58398H27.8694V8.08398H27.8839V6.58398ZM27.8985 6.58398H27.8839V8.08398H27.8985V6.58398ZM27.9131 6.58398H27.8985V8.08398H27.9131V6.58398ZM27.9277 6.58398H27.9131V8.08398H27.9277V6.58398ZM27.9422 6.58398H27.9277V8.08398H27.9422V6.58398ZM27.9568 6.58398H27.9422V8.08398H27.9568V6.58398ZM27.9714 6.58398H27.9568V8.08398H27.9714V6.58398ZM27.9859 6.58398H27.9714V8.08398H27.9859V6.58398ZM28.0005 6.58398H27.9859V8.08398H28.0005V6.58398ZM28.015 6.58398H28.0005V8.08398H28.015V6.58398ZM28.0296 6.58398H28.015V8.08398H28.0296V6.58398ZM28.0442 6.58398H28.0296V8.08398H28.0442V6.58398ZM28.0587 6.58398H28.0442V8.08398H28.0587V6.58398ZM28.0733 6.58398H28.0587V8.08398H28.0733V6.58398ZM28.0879 6.58398H28.0733V8.08398H28.0879V6.58398ZM28.1024 6.58398H28.0879V8.08398H28.1024V6.58398ZM28.117 6.58398H28.1024V8.08398H28.117V6.58398ZM28.1315 6.58398H28.117V8.08398H28.1315V6.58398ZM28.1461 6.58398H28.1315V8.08398H28.1461V6.58398ZM28.1606 6.58398H28.1461V8.08398H28.1606V6.58398ZM28.1752 6.58398H28.1606V8.08398H28.1752V6.58398ZM28.1897 6.58398H28.1752V8.08398H28.1897V6.58398ZM28.2042 6.58398H28.1897V8.08398H28.2042V6.58398ZM28.2188 6.58398H28.2042V8.08398H28.2188V6.58398ZM28.2333 6.58398H28.2188V8.08398H28.2333V6.58398ZM28.2478 6.58398H28.2333V8.08398H28.2478V6.58398ZM28.2624 6.58398H28.2478V8.08398H28.2624V6.58398ZM28.2769 6.58398H28.2624V8.08398H28.2769V6.58398ZM28.2914 6.58398H28.2769V8.08398H28.2914V6.58398ZM28.3059 6.58398H28.2914V8.08398H28.3059V6.58398ZM28.3204 6.58398H28.3059V8.08398H28.3204V6.58398ZM28.3349 6.58398H28.3204V8.08398H28.3349V6.58398ZM28.3494 6.58398H28.3349V8.08398H28.3494V6.58398ZM28.3639 6.58398H28.3494V8.08398H28.3639V6.58398ZM28.3784 6.58398H28.3639V8.08398H28.3784V6.58398ZM28.3929 6.58398H28.3784V8.08398H28.3929V6.58398ZM28.4073 6.58398H28.3929V8.08398H28.4073V6.58398ZM28.4218 6.58398H28.4073V8.08398H28.4218V6.58398ZM28.4363 6.58398H28.4218V8.08398H28.4363V6.58398ZM28.4507 6.58398H28.4363V8.08398H28.4507V6.58398ZM28.4652 6.58398H28.4507V8.08398H28.4652V6.58398ZM28.4796 6.58398H28.4652V8.08398H28.4796V6.58398ZM28.494 6.58398H28.4796V8.08398H28.494V6.58398ZM28.5085 6.58398H28.494V8.08398H28.5085V6.58398ZM28.5229 6.58398H28.5085V8.08398H28.5229V6.58398ZM28.5373 6.58398H28.5229V8.08398H28.5373V6.58398ZM28.5517 6.58398H28.5373V8.08398H28.5517V6.58398ZM28.5661 6.58398H28.5517V8.08398H28.5661V6.58398ZM28.5805 6.58398H28.5661V8.08398H28.5805V6.58398ZM28.5949 6.58398H28.5805V8.08398H28.5949V6.58398ZM28.6092 6.58398H28.5949V8.08398H28.6092V6.58398ZM28.6236 6.58398H28.6092V8.08398H28.6236V6.58398ZM28.638 6.58398H28.6236V8.08398H28.638V6.58398ZM28.6523 6.58398H28.638V8.08398H28.6523V6.58398ZM28.6666 6.58398H28.6523V8.08398H28.6666V6.58398ZM28.681 6.58398H28.6666V8.08398H28.681V6.58398ZM28.6953 6.58398H28.681V8.08398H28.6953V6.58398ZM28.7096 6.58398H28.6953V8.08398H28.7096V6.58398ZM28.7239 6.58398H28.7096V8.08398H28.7239V6.58398ZM28.7382 6.58398H28.7239V8.08398H28.7382V6.58398ZM28.7525 6.58398H28.7382V8.08398H28.7525V6.58398ZM28.7667 6.58398H28.7525V8.08398H28.7667V6.58398ZM28.781 6.58398H28.7667V8.08398H28.781V6.58398ZM28.7952 6.58398H28.781V8.08398H28.7952V6.58398ZM28.8095 6.58398H28.7952V8.08398H28.8095V6.58398ZM28.8237 6.58398H28.8095V8.08398H28.8237V6.58398ZM28.8379 6.58398H28.8237V8.08398H28.8379V6.58398ZM28.8521 6.58398H28.8379V8.08398H28.8521V6.58398ZM28.8663 6.58398H28.8521V8.08398H28.8663V6.58398ZM28.8805 6.58398H28.8663V8.08398H28.8805V6.58398ZM28.8946 6.58398H28.8805V8.08398H28.8946V6.58398ZM28.9088 6.58398H28.8946V8.08398H28.9088V6.58398ZM28.9229 6.58398H28.9088V8.08398H28.9229V6.58398ZM28.937 6.58398H28.9229V8.08398H28.937V6.58398ZM28.9512 6.58398H28.937V8.08398H28.9512V6.58398ZM28.9653 6.58398H28.9512V8.08398H28.9653V6.58398ZM28.9793 6.58398H28.9653V8.08398H28.9793V6.58398ZM28.9934 6.58398H28.9793V8.08398H28.9934V6.58398ZM29.0075 6.58398H28.9934V8.08398H29.0075V6.58398ZM29.0215 6.58398H29.0075V8.08398H29.0215V6.58398ZM29.0356 6.58398H29.0215V8.08398H29.0356V6.58398ZM29.0496 6.58398H29.0356V8.08398H29.0496V6.58398ZM29.0636 6.58398H29.0496V8.08398H29.0636V6.58398ZM29.0776 6.58398H29.0636V8.08398H29.0776V6.58398ZM29.0915 6.58398H29.0776V8.08398H29.0915V6.58398ZM29.1055 6.58398H29.0915V8.08398H29.1055V6.58398ZM29.1195 6.58398H29.1055V8.08398H29.1195V6.58398ZM29.1334 6.58398H29.1195V8.08398H29.1334V6.58398ZM29.1473 6.58398H29.1334V8.08398H29.1473V6.58398ZM29.1612 6.58398H29.1473V8.08398H29.1612V6.58398ZM29.1751 6.58398H29.1612V8.08398H29.1751V6.58398ZM29.1889 6.58398H29.1751V8.08398H29.1889V6.58398ZM29.2028 6.58398H29.1889V8.08398H29.2028V6.58398ZM29.2166 6.58398H29.2028V8.08398H29.2166V6.58398ZM29.2304 6.58398H29.2166V8.08398H29.2304V6.58398ZM29.2442 6.58398H29.2304V8.08398H29.2442V6.58398ZM29.258 6.58398H29.2442V8.08398H29.258V6.58398ZM29.2718 6.58398H29.258V8.08398H29.2718V6.58398ZM29.2855 6.58398H29.2718V8.08398H29.2855V6.58398ZM29.2993 6.58398H29.2855V8.08398H29.2993V6.58398ZM29.313 6.58398H29.2993V8.08398H29.313V6.58398ZM29.3267 6.58398H29.313V8.08398H29.3267V6.58398ZM29.3404 6.58398H29.3267V8.08398H29.3404V6.58398ZM29.354 6.58398H29.3404V8.08398H29.354V6.58398ZM29.3677 6.58398H29.354V8.08398H29.3677V6.58398ZM29.3813 6.58398H29.3677V8.08398H29.3813V6.58398ZM29.3949 6.58398H29.3813V8.08398H29.3949V6.58398ZM29.4085 6.58398H29.3949V8.08398H29.4085V6.58398ZM29.422 6.58398H29.4085V8.08398H29.422V6.58398ZM29.4356 6.58398H29.422V8.08398H29.4356V6.58398ZM29.4491 6.58398H29.4356V8.08398H29.4491V6.58398ZM29.4626 6.58398H29.4491V8.08398H29.4626V6.58398ZM29.4761 6.58398H29.4626V8.08398H29.4761V6.58398ZM29.4896 6.58398H29.4761V8.08398H29.4896V6.58398ZM29.503 6.58398H29.4896V8.08398H29.503V6.58398ZM29.5164 6.58398H29.503V8.08398H29.5164V6.58398ZM29.5299 6.58398H29.5164V8.08398H29.5299V6.58398ZM29.5432 6.58398H29.5299V8.08398H29.5432V6.58398ZM29.5566 6.58398H29.5432V8.08398H29.5566V6.58398ZM29.5699 6.58398H29.5566V8.08398H29.5699V6.58398ZM29.5833 6.58398H29.5699V8.08398H29.5833V6.58398ZM29.5966 6.58398H29.5833V8.08398H29.5966V6.58398ZM29.6098 6.58398H29.5966V8.08398H29.6098V6.58398ZM29.6231 6.58398H29.6098V8.08398H29.6231V6.58398ZM29.6363 6.58398H29.6231V8.08398H29.6363V6.58398ZM29.6495 6.58398H29.6363V8.08398H29.6495V6.58398ZM29.6627 6.58398H29.6495V8.08398H29.6627V6.58398ZM29.6759 6.58398H29.6627V8.08398H29.6759V6.58398ZM29.689 6.58398H29.6759V8.08398H29.689V6.58398ZM29.7021 6.58398H29.689V8.08398H29.7021V6.58398ZM29.7152 6.58398H29.7021V8.08398H29.7152V6.58398ZM29.7283 6.58398H29.7152V8.08398H29.7283V6.58398ZM29.7414 6.58398H29.7283V8.08398H29.7414V6.58398ZM29.7544 6.58398H29.7414V8.08398H29.7544V6.58398ZM29.7674 6.58398H29.7544V8.08398H29.7674V6.58398ZM29.7804 6.58398H29.7674V8.08398H29.7804V6.58398ZM29.7933 6.58398H29.7804V8.08398H29.7933V6.58398ZM29.8062 6.58398H29.7933V8.08398H29.8062V6.58398ZM29.8191 6.58398H29.8062V8.08398H29.8191V6.58398ZM29.832 6.58398H29.8191V8.08398H29.832V6.58398ZM29.8449 6.58398H29.832V8.08398H29.8449V6.58398ZM29.8577 6.58398H29.8449V8.08398H29.8577V6.58398ZM29.8705 6.58398H29.8577V8.08398H29.8705V6.58398ZM29.8833 6.58398H29.8705V8.08398H29.8833V6.58398ZM29.896 6.58398H29.8833V8.08398H29.896V6.58398ZM29.9088 6.58398H29.896V8.08398H29.9088V6.58398ZM29.9215 6.58398H29.9088V8.08398H29.9215V6.58398ZM29.9341 6.58398H29.9215V8.08398H29.9341V6.58398ZM29.9468 6.58398H29.9341V8.08398H29.9468V6.58398ZM29.9594 6.58398H29.9468V8.08398H29.9594V6.58398ZM29.972 6.58398H29.9594V8.08398H29.972V6.58398ZM29.9845 6.58398H29.972V8.08398H29.9845V6.58398ZM29.9971 6.58398H29.9845V8.08398H29.9971V6.58398ZM30.0096 6.58398H29.9971V8.08398H30.0096V6.58398ZM30.0221 6.58398H30.0096V8.08398H30.0221V6.58398ZM30.0345 6.58398H30.0221V8.08398H30.0345V6.58398ZM30.0469 6.58398H30.0345V8.08398H30.0469V6.58398ZM30.0593 6.58398H30.0469V8.08398H30.0593V6.58398ZM30.0717 6.58398H30.0593V8.08398H30.0717V6.58398ZM30.084 6.58398H30.0717V8.08398H30.084V6.58398ZM30.0964 6.58398H30.084V8.08398H30.0964V6.58398ZM30.1086 6.58398H30.0964V8.08398H30.1086V6.58398ZM30.1209 6.58398H30.1086V8.08398H30.1209V6.58398ZM30.1331 6.58398H30.1209V8.08398H30.1331V6.58398ZM30.1453 6.58398H30.1331V8.08398H30.1453V6.58398ZM30.1575 6.58398H30.1453V8.08398H30.1575V6.58398ZM30.1696 6.58398H30.1575V8.08398H30.1696V6.58398ZM30.1817 6.58398H30.1696V8.08398H30.1817V6.58398ZM30.1938 6.58398H30.1817V8.08398H30.1938V6.58398ZM30.2058 6.58398H30.1938V8.08398H30.2058V6.58398ZM30.2178 6.58398H30.2058V8.08398H30.2178V6.58398ZM30.2298 6.58398H30.2178V8.08398H30.2298V6.58398ZM30.2418 6.58398H30.2298V8.08398H30.2418V6.58398ZM30.2537 6.58398H30.2418V8.08398H30.2537V6.58398ZM30.2656 6.58398H30.2537V8.08398H30.2656V6.58398ZM30.2774 6.58398H30.2656V8.08398H30.2774V6.58398ZM30.2892 6.58398H30.2774V8.08398H30.2892V6.58398ZM30.301 6.58398H30.2892V8.08398H30.301V6.58398ZM30.3128 6.58398H30.301V8.08398H30.3128V6.58398ZM30.3245 6.58398H30.3128V8.08398H30.3245V6.58398ZM30.3362 6.58398H30.3245V8.08398H30.3362V6.58398ZM30.3479 6.58398H30.3362V8.08398H30.3479V6.58398ZM30.3595 6.58398H30.3479V8.08398H30.3595V6.58398ZM30.3711 6.58398H30.3595V8.08398H30.3711V6.58398ZM30.3826 6.58398H30.3711V8.08398H30.3826V6.58398ZM30.3942 6.58398H30.3826V8.08398H30.3942V6.58398ZM30.4057 6.58398H30.3942V8.08398H30.4057V6.58398ZM30.4171 6.58398H30.4057V8.08398H30.4171V6.58398ZM30.4286 6.58398H30.4171V8.08398H30.4286V6.58398ZM30.4399 6.58398H30.4286V8.08398H30.4399V6.58398ZM30.4513 6.58398H30.4399V8.08398H30.4513V6.58398ZM30.4626 6.58398H30.4513V8.08398H30.4626V6.58398ZM30.4739 6.58398H30.4626V8.08398H30.4739V6.58398ZM30.4852 6.58398H30.4739V8.08398H30.4852V6.58398ZM30.4964 6.58398H30.4852V8.08398H30.4964V6.58398ZM30.5076 6.58398H30.4964V8.08398H30.5076V6.58398ZM30.5187 6.58398H30.5076V8.08398H30.5187V6.58398ZM30.5298 6.58398H30.5187V8.08398H30.5298V6.58398ZM30.5409 6.58398H30.5298V8.08398H30.5409V6.58398ZM30.5519 6.58398H30.5409V8.08398H30.5519V6.58398ZM30.5629 6.58398H30.5519V8.08398H30.5629V6.58398ZM30.5739 6.58398H30.5629V8.08398H30.5739V6.58398ZM30.5848 6.58398H30.5739V8.08398H30.5848V6.58398ZM30.5957 6.58398H30.5848V8.08398H30.5957V6.58398ZM30.6066 6.58398H30.5957V8.08398H30.6066V6.58398ZM30.6174 6.58398H30.6066V8.08398H30.6174V6.58398ZM30.6282 6.58398H30.6174V8.08398H30.6282V6.58398ZM30.6389 6.58398H30.6282V8.08398H30.6389V6.58398ZM30.6496 6.58398H30.6389V8.08398H30.6496V6.58398ZM30.6603 6.58398H30.6496V8.08398H30.6603V6.58398ZM30.6709 6.58398H30.6603V8.08398H30.6709V6.58398ZM30.6815 6.58398H30.6709V8.08398H30.6815V6.58398ZM30.6921 6.58398H30.6815V8.08398H30.6921V6.58398ZM30.7026 6.58398H30.6921V8.08398H30.7026V6.58398ZM30.713 6.58398H30.7026V8.08398H30.713V6.58398ZM30.7235 6.58398H30.713V8.08398H30.7235V6.58398ZM30.7339 6.58398H30.7235V8.08398H30.7339V6.58398ZM30.7442 6.58398H30.7339V8.08398H30.7442V6.58398ZM30.7546 6.58398H30.7442V8.08398H30.7546V6.58398ZM30.7648 6.58398H30.7546V8.08398H30.7648V6.58398ZM30.7751 6.58398H30.7648V8.08398H30.7751V6.58398ZM30.7853 6.58398H30.7751V8.08398H30.7853V6.58398ZM30.7954 6.58398H30.7853V8.08398H30.7954V6.58398ZM30.8055 6.58398H30.7954V8.08398H30.8055V6.58398ZM30.8156 6.58398H30.8055V8.08398H30.8156V6.58398ZM30.8256 6.58398H30.8156V8.08398H30.8256V6.58398ZM30.8356 6.58398H30.8256V8.08398H30.8356V6.58398ZM30.8456 6.58398H30.8356V8.08398H30.8456V6.58398ZM30.8555 6.58398H30.8456V8.08398H30.8555V6.58398ZM30.8654 6.58398H30.8555V8.08398H30.8654V6.58398ZM30.8752 6.58398H30.8654V8.08398H30.8752V6.58398ZM30.885 6.58398H30.8752V8.08398H30.885V6.58398ZM30.8947 6.58398H30.885V8.08398H30.8947V6.58398ZM30.9044 6.58398H30.8947V8.08398H30.9044V6.58398ZM30.9141 6.58398H30.9044V8.08398H30.9141V6.58398ZM30.9237 6.58398H30.9141V8.08398H30.9237V6.58398ZM30.9333 6.58398H30.9237V8.08398H30.9333V6.58398ZM30.9428 6.58398H30.9333V8.08398H30.9428V6.58398ZM30.9523 6.58398H30.9428V8.08398H30.9523V6.58398ZM30.9617 6.58398H30.9523V8.08398H30.9617V6.58398ZM30.9711 6.58398H30.9617V8.08398H30.9711V6.58398ZM30.7211 6.83398C30.7211 6.69591 30.833 6.58398 30.9711 6.58398V8.08398C31.6615 8.08398 32.2211 7.52434 32.2211 6.83398H30.7211ZM30.9711 7.08398C30.833 7.08398 30.7211 6.97206 30.7211 6.83398H32.2211C32.2211 6.14363 31.6615 5.58398 30.9711 5.58398V7.08398ZM30.9617 7.08398H30.9711V5.58398H30.9617V7.08398ZM30.9523 7.08398H30.9617V5.58398H30.9523V7.08398ZM30.9428 7.08398H30.9523V5.58398H30.9428V7.08398ZM30.9333 7.08398H30.9428V5.58398H30.9333V7.08398ZM30.9237 7.08398H30.9333V5.58398H30.9237V7.08398ZM30.9141 7.08398H30.9237V5.58398H30.9141V7.08398ZM30.9044 7.08398H30.9141V5.58398H30.9044V7.08398ZM30.8947 7.08398H30.9044V5.58398H30.8947V7.08398ZM30.885 7.08398H30.8947V5.58398H30.885V7.08398ZM30.8752 7.08398H30.885V5.58398H30.8752V7.08398ZM30.8654 7.08398H30.8752V5.58398H30.8654V7.08398ZM30.8555 7.08398H30.8654V5.58398H30.8555V7.08398ZM30.8456 7.08398H30.8555V5.58398H30.8456V7.08398ZM30.8356 7.08398H30.8456V5.58398H30.8356V7.08398ZM30.8256 7.08398H30.8356V5.58398H30.8256V7.08398ZM30.8156 7.08398H30.8256V5.58398H30.8156V7.08398ZM30.8055 7.08398H30.8156V5.58398H30.8055V7.08398ZM30.7954 7.08398H30.8055V5.58398H30.7954V7.08398ZM30.7853 7.08398H30.7954V5.58398H30.7853V7.08398ZM30.7751 7.08398H30.7853V5.58398H30.7751V7.08398ZM30.7648 7.08398H30.7751V5.58398H30.7648V7.08398ZM30.7546 7.08398H30.7648V5.58398H30.7546V7.08398ZM30.7442 7.08398H30.7546V5.58398H30.7442V7.08398ZM30.7339 7.08398H30.7442V5.58398H30.7339V7.08398ZM30.7235 7.08398H30.7339V5.58398H30.7235V7.08398ZM30.713 7.08398H30.7235V5.58398H30.713V7.08398ZM30.7026 7.08398H30.713V5.58398H30.7026V7.08398ZM30.6921 7.08398H30.7026V5.58398H30.6921V7.08398ZM30.6815 7.08398H30.6921V5.58398H30.6815V7.08398ZM30.6709 7.08398H30.6815V5.58398H30.6709V7.08398ZM30.6603 7.08398H30.6709V5.58398H30.6603V7.08398ZM30.6496 7.08398H30.6603V5.58398H30.6496V7.08398ZM30.6389 7.08398H30.6496V5.58398H30.6389V7.08398ZM30.6282 7.08398H30.6389V5.58398H30.6282V7.08398ZM30.6174 7.08398H30.6282V5.58398H30.6174V7.08398ZM30.6066 7.08398H30.6174V5.58398H30.6066V7.08398ZM30.5957 7.08398H30.6066V5.58398H30.5957V7.08398ZM30.5848 7.08398H30.5957V5.58398H30.5848V7.08398ZM30.5739 7.08398H30.5848V5.58398H30.5739V7.08398ZM30.5629 7.08398H30.5739V5.58398H30.5629V7.08398ZM30.5519 7.08398H30.5629V5.58398H30.5519V7.08398ZM30.5409 7.08398H30.5519V5.58398H30.5409V7.08398ZM30.5298 7.08398H30.5409V5.58398H30.5298V7.08398ZM30.5187 7.08398H30.5298V5.58398H30.5187V7.08398ZM30.5076 7.08398H30.5187V5.58398H30.5076V7.08398ZM30.4964 7.08398H30.5076V5.58398H30.4964V7.08398ZM30.4852 7.08398H30.4964V5.58398H30.4852V7.08398ZM30.4739 7.08398H30.4852V5.58398H30.4739V7.08398ZM30.4626 7.08398H30.4739V5.58398H30.4626V7.08398ZM30.4513 7.08398H30.4626V5.58398H30.4513V7.08398ZM30.4399 7.08398H30.4513V5.58398H30.4399V7.08398ZM30.4286 7.08398H30.4399V5.58398H30.4286V7.08398ZM30.4171 7.08398H30.4286V5.58398H30.4171V7.08398ZM30.4057 7.08398H30.4171V5.58398H30.4057V7.08398ZM30.3942 7.08398H30.4057V5.58398H30.3942V7.08398ZM30.3826 7.08398H30.3942V5.58398H30.3826V7.08398ZM30.3711 7.08398H30.3826V5.58398H30.3711V7.08398ZM30.3595 7.08398H30.3711V5.58398H30.3595V7.08398ZM30.3479 7.08398H30.3595V5.58398H30.3479V7.08398ZM30.3362 7.08398H30.3479V5.58398H30.3362V7.08398ZM30.3245 7.08398H30.3362V5.58398H30.3245V7.08398ZM30.3128 7.08398H30.3245V5.58398H30.3128V7.08398ZM30.301 7.08398H30.3128V5.58398H30.301V7.08398ZM30.2892 7.08398H30.301V5.58398H30.2892V7.08398ZM30.2774 7.08398H30.2892V5.58398H30.2774V7.08398ZM30.2656 7.08398H30.2774V5.58398H30.2656V7.08398ZM30.2537 7.08398H30.2656V5.58398H30.2537V7.08398ZM30.2418 7.08398H30.2537V5.58398H30.2418V7.08398ZM30.2298 7.08398H30.2418V5.58398H30.2298V7.08398ZM30.2178 7.08398H30.2298V5.58398H30.2178V7.08398ZM30.2058 7.08398H30.2178V5.58398H30.2058V7.08398ZM30.1938 7.08398H30.2058V5.58398H30.1938V7.08398ZM30.1817 7.08398H30.1938V5.58398H30.1817V7.08398ZM30.1696 7.08398H30.1817V5.58398H30.1696V7.08398ZM30.1575 7.08398H30.1696V5.58398H30.1575V7.08398ZM30.1453 7.08398H30.1575V5.58398H30.1453V7.08398ZM30.1331 7.08398H30.1453V5.58398H30.1331V7.08398ZM30.1209 7.08398H30.1331V5.58398H30.1209V7.08398ZM30.1086 7.08398H30.1209V5.58398H30.1086V7.08398ZM30.0964 7.08398H30.1086V5.58398H30.0964V7.08398ZM30.084 7.08398H30.0964V5.58398H30.084V7.08398ZM30.0717 7.08398H30.084V5.58398H30.0717V7.08398ZM30.0593 7.08398H30.0717V5.58398H30.0593V7.08398ZM30.0469 7.08398H30.0593V5.58398H30.0469V7.08398ZM30.0345 7.08398H30.0469V5.58398H30.0345V7.08398ZM30.0221 7.08398H30.0345V5.58398H30.0221V7.08398ZM30.0096 7.08398H30.0221V5.58398H30.0096V7.08398ZM29.9971 7.08398H30.0096V5.58398H29.9971V7.08398ZM29.9845 7.08398H29.9971V5.58398H29.9845V7.08398ZM29.972 7.08398H29.9845V5.58398H29.972V7.08398ZM29.9594 7.08398H29.972V5.58398H29.9594V7.08398ZM29.9468 7.08398H29.9594V5.58398H29.9468V7.08398ZM29.9341 7.08398H29.9468V5.58398H29.9341V7.08398ZM29.9215 7.08398H29.9341V5.58398H29.9215V7.08398ZM29.9088 7.08398H29.9215V5.58398H29.9088V7.08398ZM29.896 7.08398H29.9088V5.58398H29.896V7.08398ZM29.8833 7.08398H29.896V5.58398H29.8833V7.08398ZM29.8705 7.08398H29.8833V5.58398H29.8705V7.08398ZM29.8577 7.08398H29.8705V5.58398H29.8577V7.08398ZM29.8449 7.08398H29.8577V5.58398H29.8449V7.08398ZM29.832 7.08398H29.8449V5.58398H29.832V7.08398ZM29.8191 7.08398H29.832V5.58398H29.8191V7.08398ZM29.8062 7.08398H29.8191V5.58398H29.8062V7.08398ZM29.7933 7.08398H29.8062V5.58398H29.7933V7.08398ZM29.7804 7.08398H29.7933V5.58398H29.7804V7.08398ZM29.7674 7.08398H29.7804V5.58398H29.7674V7.08398ZM29.7544 7.08398H29.7674V5.58398H29.7544V7.08398ZM29.7414 7.08398H29.7544V5.58398H29.7414V7.08398ZM29.7283 7.08398H29.7414V5.58398H29.7283V7.08398ZM29.7152 7.08398H29.7283V5.58398H29.7152V7.08398ZM29.7021 7.08398H29.7152V5.58398H29.7021V7.08398ZM29.689 7.08398H29.7021V5.58398H29.689V7.08398ZM29.6759 7.08398H29.689V5.58398H29.6759V7.08398ZM29.6627 7.08398H29.6759V5.58398H29.6627V7.08398ZM29.6495 7.08398H29.6627V5.58398H29.6495V7.08398ZM29.6363 7.08398H29.6495V5.58398H29.6363V7.08398ZM29.6231 7.08398H29.6363V5.58398H29.6231V7.08398ZM29.6098 7.08398H29.6231V5.58398H29.6098V7.08398ZM29.5966 7.08398H29.6098V5.58398H29.5966V7.08398ZM29.5833 7.08398H29.5966V5.58398H29.5833V7.08398ZM29.5699 7.08398H29.5833V5.58398H29.5699V7.08398ZM29.5566 7.08398H29.5699V5.58398H29.5566V7.08398ZM29.5432 7.08398H29.5566V5.58398H29.5432V7.08398ZM29.5299 7.08398H29.5432V5.58398H29.5299V7.08398ZM29.5164 7.08398H29.5299V5.58398H29.5164V7.08398ZM29.503 7.08398H29.5164V5.58398H29.503V7.08398ZM29.4896 7.08398H29.503V5.58398H29.4896V7.08398ZM29.4761 7.08398H29.4896V5.58398H29.4761V7.08398ZM29.4626 7.08398H29.4761V5.58398H29.4626V7.08398ZM29.4491 7.08398H29.4626V5.58398H29.4491V7.08398ZM29.4356 7.08398H29.4491V5.58398H29.4356V7.08398ZM29.422 7.08398H29.4356V5.58398H29.422V7.08398ZM29.4085 7.08398H29.422V5.58398H29.4085V7.08398ZM29.3949 7.08398H29.4085V5.58398H29.3949V7.08398ZM29.3813 7.08398H29.3949V5.58398H29.3813V7.08398ZM29.3677 7.08398H29.3813V5.58398H29.3677V7.08398ZM29.354 7.08398H29.3677V5.58398H29.354V7.08398ZM29.3404 7.08398H29.354V5.58398H29.3404V7.08398ZM29.3267 7.08398H29.3404V5.58398H29.3267V7.08398ZM29.313 7.08398H29.3267V5.58398H29.313V7.08398ZM29.2993 7.08398H29.313V5.58398H29.2993V7.08398ZM29.2855 7.08398H29.2993V5.58398H29.2855V7.08398ZM29.2718 7.08398H29.2855V5.58398H29.2718V7.08398ZM29.258 7.08398H29.2718V5.58398H29.258V7.08398ZM29.2442 7.08398H29.258V5.58398H29.2442V7.08398ZM29.2304 7.08398H29.2442V5.58398H29.2304V7.08398ZM29.2166 7.08398H29.2304V5.58398H29.2166V7.08398ZM29.2028 7.08398H29.2166V5.58398H29.2028V7.08398ZM29.1889 7.08398H29.2028V5.58398H29.1889V7.08398ZM29.1751 7.08398H29.1889V5.58398H29.1751V7.08398ZM29.1612 7.08398H29.1751V5.58398H29.1612V7.08398ZM29.1473 7.08398H29.1612V5.58398H29.1473V7.08398ZM29.1334 7.08398H29.1473V5.58398H29.1334V7.08398ZM29.1195 7.08398H29.1334V5.58398H29.1195V7.08398ZM29.1055 7.08398H29.1195V5.58398H29.1055V7.08398ZM29.0915 7.08398H29.1055V5.58398H29.0915V7.08398ZM29.0776 7.08398H29.0915V5.58398H29.0776V7.08398ZM29.0636 7.08398H29.0776V5.58398H29.0636V7.08398ZM29.0496 7.08398H29.0636V5.58398H29.0496V7.08398ZM29.0356 7.08398H29.0496V5.58398H29.0356V7.08398ZM29.0215 7.08398H29.0356V5.58398H29.0215V7.08398ZM29.0075 7.08398H29.0215V5.58398H29.0075V7.08398ZM28.9934 7.08398H29.0075V5.58398H28.9934V7.08398ZM28.9793 7.08398H28.9934V5.58398H28.9793V7.08398ZM28.9653 7.08398H28.9793V5.58398H28.9653V7.08398ZM28.9512 7.08398H28.9653V5.58398H28.9512V7.08398ZM28.937 7.08398H28.9512V5.58398H28.937V7.08398ZM28.9229 7.08398H28.937V5.58398H28.9229V7.08398ZM28.9088 7.08398H28.9229V5.58398H28.9088V7.08398ZM28.8946 7.08398H28.9088V5.58398H28.8946V7.08398ZM28.8805 7.08398H28.8946V5.58398H28.8805V7.08398ZM28.8663 7.08398H28.8805V5.58398H28.8663V7.08398ZM28.8521 7.08398H28.8663V5.58398H28.8521V7.08398ZM28.8379 7.08398H28.8521V5.58398H28.8379V7.08398ZM28.8237 7.08398H28.8379V5.58398H28.8237V7.08398ZM28.8095 7.08398H28.8237V5.58398H28.8095V7.08398ZM28.7952 7.08398H28.8095V5.58398H28.7952V7.08398ZM28.781 7.08398H28.7952V5.58398H28.781V7.08398ZM28.7667 7.08398H28.781V5.58398H28.7667V7.08398ZM28.7525 7.08398H28.7667V5.58398H28.7525V7.08398ZM28.7382 7.08398H28.7525V5.58398H28.7382V7.08398ZM28.7239 7.08398H28.7382V5.58398H28.7239V7.08398ZM28.7096 7.08398H28.7239V5.58398H28.7096V7.08398ZM28.6953 7.08398H28.7096V5.58398H28.6953V7.08398ZM28.681 7.08398H28.6953V5.58398H28.681V7.08398ZM28.6666 7.08398H28.681V5.58398H28.6666V7.08398ZM28.6523 7.08398H28.6666V5.58398H28.6523V7.08398ZM28.638 7.08398H28.6523V5.58398H28.638V7.08398ZM28.6236 7.08398H28.638V5.58398H28.6236V7.08398ZM28.6092 7.08398H28.6236V5.58398H28.6092V7.08398ZM28.5949 7.08398H28.6092V5.58398H28.5949V7.08398ZM28.5805 7.08398H28.5949V5.58398H28.5805V7.08398ZM28.5661 7.08398H28.5805V5.58398H28.5661V7.08398ZM28.5517 7.08398H28.5661V5.58398H28.5517V7.08398ZM28.5373 7.08398H28.5517V5.58398H28.5373V7.08398ZM28.5229 7.08398H28.5373V5.58398H28.5229V7.08398ZM28.5085 7.08398H28.5229V5.58398H28.5085V7.08398ZM28.494 7.08398H28.5085V5.58398H28.494V7.08398ZM28.4796 7.08398H28.494V5.58398H28.4796V7.08398ZM28.4652 7.08398H28.4796V5.58398H28.4652V7.08398ZM28.4507 7.08398H28.4652V5.58398H28.4507V7.08398ZM28.4363 7.08398H28.4507V5.58398H28.4363V7.08398ZM28.4218 7.08398H28.4363V5.58398H28.4218V7.08398ZM28.4073 7.08398H28.4218V5.58398H28.4073V7.08398ZM28.3929 7.08398H28.4073V5.58398H28.3929V7.08398ZM28.3784 7.08398H28.3929V5.58398H28.3784V7.08398ZM28.3639 7.08398H28.3784V5.58398H28.3639V7.08398ZM28.3494 7.08398H28.3639V5.58398H28.3494V7.08398ZM28.3349 7.08398H28.3494V5.58398H28.3349V7.08398ZM28.3204 7.08398H28.3349V5.58398H28.3204V7.08398ZM28.3059 7.08398H28.3204V5.58398H28.3059V7.08398ZM28.2914 7.08398H28.3059V5.58398H28.2914V7.08398ZM28.2769 7.08398H28.2914V5.58398H28.2769V7.08398ZM28.2624 7.08398H28.2769V5.58398H28.2624V7.08398ZM28.2478 7.08398H28.2624V5.58398H28.2478V7.08398ZM28.2333 7.08398H28.2478V5.58398H28.2333V7.08398ZM28.2188 7.08398H28.2333V5.58398H28.2188V7.08398ZM28.2042 7.08398H28.2188V5.58398H28.2042V7.08398ZM28.1897 7.08398H28.2042V5.58398H28.1897V7.08398ZM28.1752 7.08398H28.1897V5.58398H28.1752V7.08398ZM28.1606 7.08398H28.1752V5.58398H28.1606V7.08398ZM28.1461 7.08398H28.1606V5.58398H28.1461V7.08398ZM28.1315 7.08398H28.1461V5.58398H28.1315V7.08398ZM28.117 7.08398H28.1315V5.58398H28.117V7.08398ZM28.1024 7.08398H28.117V5.58398H28.1024V7.08398ZM28.0879 7.08398H28.1024V5.58398H28.0879V7.08398ZM28.0733 7.08398H28.0879V5.58398H28.0733V7.08398ZM28.0587 7.08398H28.0733V5.58398H28.0587V7.08398ZM28.0442 7.08398H28.0587V5.58398H28.0442V7.08398ZM28.0296 7.08398H28.0442V5.58398H28.0296V7.08398ZM28.015 7.08398H28.0296V5.58398H28.015V7.08398ZM28.0005 7.08398H28.015V5.58398H28.0005V7.08398ZM27.9859 7.08398H28.0005V5.58398H27.9859V7.08398ZM27.9714 7.08398H27.9859V5.58398H27.9714V7.08398ZM27.9568 7.08398H27.9714V5.58398H27.9568V7.08398ZM27.9422 7.08398H27.9568V5.58398H27.9422V7.08398ZM27.9277 7.08398H27.9422V5.58398H27.9277V7.08398ZM27.9131 7.08398H27.9277V5.58398H27.9131V7.08398ZM27.8985 7.08398H27.9131V5.58398H27.8985V7.08398ZM27.8839 7.08398H27.8985V5.58398H27.8839V7.08398ZM27.8694 7.08398H27.8839V5.58398H27.8694V7.08398ZM27.8548 7.08398H27.8694V5.58398H27.8548V7.08398ZM27.8403 7.08398H27.8548V5.58398H27.8403V7.08398ZM27.8257 7.08398H27.8403V5.58398H27.8257V7.08398ZM27.8111 7.08398H27.8257V5.58398H27.8111V7.08398ZM27.7966 7.08398H27.8111V5.58398H27.7966V7.08398ZM27.782 7.08398H27.7966V5.58398H27.782V7.08398ZM27.7675 7.08398H27.782V5.58398H27.7675V7.08398ZM27.7529 7.08398H27.7675V5.58398H27.7529V7.08398ZM27.7384 7.08398H27.7529V5.58398H27.7384V7.08398ZM27.7238 7.08398H27.7384V5.58398H27.7238V7.08398ZM27.7093 7.08398H27.7238V5.58398H27.7093V7.08398ZM27.6947 7.08398H27.7093V5.58398H27.6947V7.08398ZM27.6802 7.08398H27.6947V5.58398H27.6802V7.08398ZM27.6656 7.08398H27.6802V5.58398H27.6656V7.08398ZM27.6511 7.08398H27.6656V5.58398H27.6511V7.08398ZM27.6366 7.08398H27.6511V5.58398H27.6366V7.08398ZM27.6221 7.08398H27.6366V5.58398H27.6221V7.08398ZM27.6075 7.08398H27.6221V5.58398H27.6075V7.08398ZM27.593 7.08398H27.6075V5.58398H27.593V7.08398ZM27.5785 7.08398H27.593V5.58398H27.5785V7.08398ZM27.564 7.08398H27.5785V5.58398H27.564V7.08398ZM27.5495 7.08398H27.564V5.58398H27.5495V7.08398ZM27.535 7.08398H27.5495V5.58398H27.535V7.08398ZM27.5205 7.08398H27.535V5.58398H27.5205V7.08398ZM27.506 7.08398H27.5205V5.58398H27.506V7.08398ZM27.4915 7.08398H27.506V5.58398H27.4915V7.08398ZM27.4771 7.08398H27.4915V5.58398H27.4771V7.08398ZM27.4626 7.08398H27.4771V5.58398H27.4626V7.08398ZM27.4481 7.08398H27.4626V5.58398H27.4481V7.08398ZM27.4337 7.08398H27.4481V5.58398H27.4337V7.08398ZM27.4192 7.08398H27.4337V5.58398H27.4192V7.08398ZM27.4048 7.08398H27.4192V5.58398H27.4048V7.08398ZM27.3903 7.08398H27.4048V5.58398H27.3903V7.08398ZM27.3759 7.08398H27.3903V5.58398H27.3759V7.08398ZM27.3615 7.08398H27.3759V5.58398H27.3615V7.08398ZM27.347 7.08398H27.3615V5.58398H27.347V7.08398ZM27.3326 7.08398H27.347V5.58398H27.3326V7.08398ZM27.3182 7.08398H27.3326V5.58398H27.3182V7.08398ZM27.3038 7.08398H27.3182V5.58398H27.3038V7.08398ZM27.2895 7.08398H27.3038V5.58398H27.2895V7.08398ZM27.2751 7.08398H27.2895V5.58398H27.2751V7.08398ZM27.2607 7.08398H27.2751V5.58398H27.2607V7.08398ZM27.2463 7.08398H27.2607V5.58398H27.2463V7.08398ZM27.232 7.08398H27.2463V5.58398H27.232V7.08398ZM27.2177 7.08398H27.232V5.58398H27.2177V7.08398ZM27.2033 7.08398H27.2177V5.58398H27.2033V7.08398ZM27.189 7.08398H27.2033V5.58398H27.189V7.08398ZM27.1747 7.08398H27.189V5.58398H27.1747V7.08398ZM27.1604 7.08398H27.1747V5.58398H27.1604V7.08398ZM27.1461 7.08398H27.1604V5.58398H27.1461V7.08398ZM27.1318 7.08398H27.1461V5.58398H27.1318V7.08398ZM27.1175 7.08398H27.1318V5.58398H27.1175V7.08398ZM27.1033 7.08398H27.1175V5.58398H27.1033V7.08398ZM27.089 7.08398H27.1033V5.58398H27.089V7.08398ZM27.0748 7.08398H27.089V5.58398H27.0748V7.08398ZM27.0605 7.08398H27.0748V5.58398H27.0605V7.08398ZM27.0463 7.08398H27.0605V5.58398H27.0463V7.08398ZM27.0321 7.08398H27.0463V5.58398H27.0321V7.08398ZM27.0179 7.08398H27.0321V5.58398H27.0179V7.08398ZM27.0037 7.08398H27.0179V5.58398H27.0037V7.08398ZM26.9896 7.08398H27.0037V5.58398H26.9896V7.08398ZM26.9754 7.08398H26.9896V5.58398H26.9754V7.08398ZM26.9613 7.08398H26.9754V5.58398H26.9613V7.08398ZM26.9471 7.08398H26.9613V5.58398H26.9471V7.08398ZM26.933 7.08398H26.9471V5.58398H26.933V7.08398ZM26.9189 7.08398H26.933V5.58398H26.9189V7.08398ZM26.9048 7.08398H26.9189V5.58398H26.9048V7.08398ZM26.8907 7.08398H26.9048V5.58398H26.8907V7.08398ZM26.8766 7.08398H26.8907V5.58398H26.8766V7.08398ZM26.8626 7.08398H26.8766V5.58398H26.8626V7.08398ZM26.8485 7.08398H26.8626V5.58398H26.8485V7.08398ZM26.8345 7.08398H26.8485V5.58398H26.8345V7.08398ZM26.8205 7.08398H26.8345V5.58398H26.8205V7.08398ZM26.8065 7.08398H26.8205V5.58398H26.8065V7.08398ZM26.7925 7.08398H26.8065V5.58398H26.7925V7.08398ZM26.7785 7.08398H26.7925V5.58398H26.7785V7.08398ZM26.7646 7.08398H26.7785V5.58398H26.7646V7.08398ZM26.7507 7.08398H26.7646V5.58398H26.7507V7.08398ZM26.7367 7.08398H26.7507V5.58398H26.7367V7.08398ZM26.7228 7.08398H26.7367V5.58398H26.7228V7.08398ZM26.7089 7.08398H26.7228V5.58398H26.7089V7.08398ZM26.6951 7.08398H26.7089V5.58398H26.6951V7.08398ZM26.6812 7.08398H26.6951V5.58398H26.6812V7.08398ZM26.6674 7.08398H26.6812V5.58398H26.6674V7.08398ZM26.6535 7.08398H26.6674V5.58398H26.6535V7.08398ZM26.6397 7.08398H26.6535V5.58398H26.6397V7.08398ZM26.6259 7.08398H26.6397V5.58398H26.6259V7.08398ZM26.6121 7.08398H26.6259V5.58398H26.6121V7.08398ZM26.5984 7.08398H26.6121V5.58398H26.5984V7.08398ZM26.5846 7.08398H26.5984V5.58398H26.5846V7.08398ZM26.5709 7.08398H26.5846V5.58398H26.5709V7.08398ZM26.5572 7.08398H26.5709V5.58398H26.5572V7.08398ZM26.5435 7.08398H26.5572V5.58398H26.5435V7.08398ZM26.5298 7.08398H26.5435V5.58398H26.5298V7.08398ZM26.5162 7.08398H26.5298V5.58398H26.5162V7.08398ZM26.5026 7.08398H26.5162V5.58398H26.5026V7.08398ZM26.4889 7.08398H26.5026V5.58398H26.4889V7.08398ZM26.4753 7.08398H26.4889V5.58398H26.4753V7.08398ZM26.4618 7.08398H26.4753V5.58398H26.4618V7.08398ZM26.4482 7.08398H26.4618V5.58398H26.4482V7.08398ZM26.4347 7.08398H26.4482V5.58398H26.4347V7.08398ZM26.4212 7.08398H26.4347V5.58398H26.4212V7.08398ZM26.4077 7.08398H26.4212V5.58398H26.4077V7.08398ZM26.3942 7.08398H26.4077V5.58398H26.3942V7.08398ZM26.3807 7.08398H26.3942V5.58398H26.3807V7.08398ZM26.3673 7.08398H26.3807V5.58398H26.3673V7.08398ZM26.3539 7.08398H26.3673V5.58398H26.3539V7.08398ZM26.3405 7.08398H26.3539V5.58398H26.3405V7.08398ZM26.3271 7.08398H26.3405V5.58398H26.3271V7.08398ZM26.3137 7.08398H26.3271V5.58398H26.3137V7.08398ZM26.3004 7.08398H26.3137V5.58398H26.3004V7.08398ZM26.2871 7.08398H26.3004V5.58398H26.2871V7.08398ZM26.2738 7.08398H26.2871V5.58398H26.2738V7.08398ZM26.2605 7.08398H26.2738V5.58398H26.2605V7.08398ZM26.2473 7.08398H26.2605V5.58398H26.2473V7.08398ZM26.2341 7.08398H26.2473V5.58398H26.2341V7.08398ZM26.2209 7.08398H26.2341V5.58398H26.2209V7.08398ZM26.2077 7.08398H26.2209V5.58398H26.2077V7.08398ZM26.1945 7.08398H26.2077V5.58398H26.1945V7.08398ZM26.1814 7.08398H26.1945V5.58398H26.1814V7.08398ZM26.1683 7.08398H26.1814V5.58398H26.1683V7.08398ZM26.1552 7.08398H26.1683V5.58398H26.1552V7.08398ZM26.1421 7.08398H26.1552V5.58398H26.1421V7.08398ZM26.1291 7.08398H26.1421V5.58398H26.1291V7.08398ZM26.1161 7.08398H26.1291V5.58398H26.1161V7.08398ZM26.1031 7.08398H26.1161V5.58398H26.1031V7.08398ZM26.0901 7.08398H26.1031V5.58398H26.0901V7.08398ZM26.0772 7.08398H26.0901V5.58398H26.0772V7.08398ZM26.0643 7.08398H26.0772V5.58398H26.0643V7.08398ZM26.0514 7.08398H26.0643V5.58398H26.0514V7.08398ZM26.0385 7.08398H26.0514V5.58398H26.0385V7.08398ZM26.0257 7.08398H26.0385V5.58398H26.0257V7.08398ZM26.0128 7.08398H26.0257V5.58398H26.0128V7.08398ZM26 7.08398H26.0128V5.58398H26V7.08398ZM25.9873 7.08398H26V5.58398H25.9873V7.08398ZM25.9745 7.08398H25.9873V5.58398H25.9745V7.08398ZM25.9618 7.08398H25.9745V5.58398H25.9618V7.08398ZM25.9491 7.08398H25.9618V5.58398H25.9491V7.08398ZM25.9365 7.08398H25.9491V5.58398H25.9365V7.08398ZM25.9238 7.08398H25.9365V5.58398H25.9238V7.08398ZM25.9112 7.08398H25.9238V5.58398H25.9112V7.08398ZM25.8987 7.08398H25.9112V5.58398H25.8987V7.08398ZM25.8861 7.08398H25.8987V5.58398H25.8861V7.08398ZM25.8736 7.08398H25.8861V5.58398H25.8736V7.08398ZM25.8611 7.08398H25.8736V5.58398H25.8611V7.08398ZM25.8486 7.08398H25.8611V5.58398H25.8486V7.08398ZM25.8362 7.08398H25.8486V5.58398H25.8362V7.08398ZM25.8238 7.08398H25.8362V5.58398H25.8238V7.08398ZM25.8114 7.08398H25.8238V5.58398H25.8114V7.08398ZM25.799 7.08398H25.8114V5.58398H25.799V7.08398ZM25.7867 7.08398H25.799V5.58398H25.7867V7.08398ZM25.7744 7.08398H25.7867V5.58398H25.7744V7.08398ZM25.7621 7.08398H25.7744V5.58398H25.7621V7.08398ZM25.7499 7.08398H25.7621V5.58398H25.7499V7.08398ZM25.7377 7.08398H25.7499V5.58398H25.7377V7.08398ZM25.7255 7.08398H25.7377V5.58398H25.7255V7.08398ZM25.7133 7.08398H25.7255V5.58398H25.7133V7.08398ZM25.7012 7.08398H25.7133V5.58398H25.7012V7.08398ZM25.6891 7.08398H25.7012V5.58398H25.6891V7.08398ZM25.6771 7.08398H25.6891V5.58398H25.6771V7.08398ZM25.665 7.08398H25.6771V5.58398H25.665V7.08398ZM25.653 7.08398H25.665V5.58398H25.653V7.08398ZM25.6411 7.08398H25.653V5.58398H25.6411V7.08398ZM25.6291 7.08398H25.6411V5.58398H25.6291V7.08398ZM25.6172 7.08398H25.6291V5.58398H25.6172V7.08398ZM25.6054 7.08398H25.6172V5.58398H25.6054V7.08398ZM25.5935 7.08398H25.6054V5.58398H25.5935V7.08398ZM25.5817 7.08398H25.5935V5.58398H25.5817V7.08398ZM25.5699 7.08398H25.5817V5.58398H25.5699V7.08398ZM25.5582 7.08398H25.5699V5.58398H25.5582V7.08398ZM25.5465 7.08398H25.5582V5.58398H25.5465V7.08398ZM25.5348 7.08398H25.5465V5.58398H25.5348V7.08398ZM25.5231 7.08398H25.5348V5.58398H25.5231V7.08398ZM25.5115 7.08398H25.5231V5.58398H25.5115V7.08398ZM25.4999 7.08398H25.5115V5.58398H25.4999V7.08398ZM25.4884 7.08398H25.4999V5.58398H25.4884V7.08398ZM25.4769 7.08398H25.4884V5.58398H25.4769V7.08398ZM25.4654 7.08398H25.4769V5.58398H25.4654V7.08398ZM25.4539 7.08398H25.4654V5.58398H25.4539V7.08398ZM25.4425 7.08398H25.4539V5.58398H25.4425V7.08398ZM25.4312 7.08398H25.4425V5.58398H25.4312V7.08398ZM25.4198 7.08398H25.4312V5.58398H25.4198V7.08398ZM25.4085 7.08398H25.4198V5.58398H25.4085V7.08398ZM25.3972 7.08398H25.4085V5.58398H25.3972V7.08398ZM25.386 7.08398H25.3972V5.58398H25.386V7.08398ZM25.3748 7.08398H25.386V5.58398H25.3748V7.08398ZM25.3636 7.08398H25.3748V5.58398H25.3636V7.08398ZM25.3525 7.08398H25.3636V5.58398H25.3525V7.08398ZM25.3414 7.08398H25.3525V5.58398H25.3414V7.08398ZM25.3303 7.08398H25.3414V5.58398H25.3303V7.08398ZM25.3193 7.08398H25.3303V5.58398H25.3193V7.08398ZM25.3083 7.08398H25.3193V5.58398H25.3083V7.08398ZM25.2974 7.08398H25.3083V5.58398H25.2974V7.08398ZM25.2864 7.08398H25.2974V5.58398H25.2864V7.08398ZM25.2756 7.08398H25.2864V5.58398H25.2756V7.08398ZM25.2647 7.08398H25.2756V5.58398H25.2647V7.08398ZM25.2539 7.08398H25.2647V5.58398H25.2539V7.08398ZM25.2432 7.08398H25.2539V5.58398H25.2432V7.08398ZM25.2324 7.08398H25.2432V5.58398H25.2324V7.08398ZM25.2217 7.08398H25.2324V5.58398H25.2217V7.08398ZM25.2111 7.08398H25.2217V5.58398H25.2111V7.08398ZM25.2005 7.08398H25.2111V5.58398H25.2005V7.08398ZM25.1899 7.08398H25.2005V5.58398H25.1899V7.08398ZM25.1794 7.08398H25.1899V5.58398H25.1794V7.08398ZM25.1689 7.08398H25.1794V5.58398H25.1689V7.08398ZM25.1584 7.08398H25.1689V5.58398H25.1584V7.08398ZM25.148 7.08398H25.1584V5.58398H25.148V7.08398ZM25.1376 7.08398H25.148V5.58398H25.1376V7.08398ZM25.1273 7.08398H25.1376V5.58398H25.1273V7.08398ZM25.117 7.08398H25.1273V5.58398H25.117V7.08398ZM25.1067 7.08398H25.117V5.58398H25.1067V7.08398ZM25.0965 7.08398H25.1067V5.58398H25.0965V7.08398ZM25.0863 7.08398H25.0965V5.58398H25.0863V7.08398ZM25.0762 7.08398H25.0863V5.58398H25.0762V7.08398ZM25.0661 7.08398H25.0762V5.58398H25.0661V7.08398ZM25.056 7.08398H25.0661V5.58398H25.056V7.08398ZM25.046 7.08398H25.056V5.58398H25.046V7.08398ZM25.036 7.08398H25.046V5.58398H25.036V7.08398ZM25.0261 7.08398H25.036V5.58398H25.0261V7.08398ZM25.0162 7.08398H25.0261V5.58398H25.0162V7.08398ZM25.0063 7.08398H25.0162V5.58398H25.0063V7.08398ZM24.9965 7.08398H25.0063V5.58398H24.9965V7.08398ZM24.9867 7.08398H24.9965V5.58398H24.9867V7.08398ZM24.977 7.08398H24.9867V5.58398H24.977V7.08398ZM24.9673 7.08398H24.977V5.58398H24.9673V7.08398ZM24.9577 7.08398H24.9673V5.58398H24.9577V7.08398ZM24.9481 7.08398H24.9577V5.58398H24.9481V7.08398ZM24.9385 7.08398H24.9481V5.58398H24.9385V7.08398ZM24.929 7.08398H24.9385V5.58398H24.929V7.08398ZM24.9196 7.08398H24.929V5.58398H24.9196V7.08398ZM24.9101 7.08398H24.9196V5.58398H24.9101V7.08398ZM24.9008 7.08398H24.9101V5.58398H24.9008V7.08398ZM24.8914 7.08398H24.9008V5.58398H24.8914V7.08398ZM24.8821 7.08398H24.8914V5.58398H24.8821V7.08398ZM24.8729 7.08398H24.8821V5.58398H24.8729V7.08398ZM24.8637 7.08398H24.8729V5.58398H24.8637V7.08398ZM24.8545 7.08398H24.8637V5.58398H24.8545V7.08398ZM24.8454 7.08398H24.8545V5.58398H24.8454V7.08398ZM24.8363 7.08398H24.8454V5.58398H24.8363V7.08398ZM24.8273 7.08398H24.8363V5.58398H24.8273V7.08398ZM24.8183 7.08398H24.8273V5.58398H24.8183V7.08398ZM24.8094 7.08398H24.8183V5.58398H24.8094V7.08398ZM24.8005 7.08398H24.8094V5.58398H24.8005V7.08398ZM24.7917 7.08398H24.8005V5.58398H24.7917V7.08398ZM24.7829 7.08398H24.7917V5.58398H24.7829V7.08398ZM24.7741 7.08398H24.7829V5.58398H24.7741V7.08398ZM24.7654 7.08398H24.7741V5.58398H24.7654V7.08398ZM24.7568 7.08398H24.7654V5.58398H24.7568V7.08398ZM24.7482 7.08398H24.7568V5.58398H24.7482V7.08398ZM24.7396 7.08398H24.7482V5.58398H24.7396V7.08398ZM24.7311 7.08398H24.7396V5.58398H24.7311V7.08398ZM24.7226 7.08398H24.7311V5.58398H24.7226V7.08398ZM24.7142 7.08398H24.7226V5.58398H24.7142V7.08398ZM24.7059 7.08398H24.7142V5.58398H24.7059V7.08398ZM24.6975 7.08398H24.7059V5.58398H24.6975V7.08398ZM24.6893 7.08398H24.6975V5.58398H24.6893V7.08398ZM24.681 7.08398H24.6893V5.58398H24.681V7.08398ZM24.6729 7.08398H24.681V5.58398H24.6729V7.08398ZM24.6647 7.08398H24.6729V5.58398H24.6647V7.08398ZM24.6567 7.08398H24.6647V5.58398H24.6567V7.08398ZM24.6486 7.08398H24.6567V5.58398H24.6486V7.08398ZM24.6407 7.08398H24.6486V5.58398H24.6407V7.08398ZM24.6327 7.08398H24.6407V5.58398H24.6327V7.08398ZM24.6249 7.08398H24.6327V5.58398H24.6249V7.08398ZM24.617 7.08398H24.6249V5.58398H24.617V7.08398ZM24.6092 7.08398H24.617V5.58398H24.6092V7.08398ZM24.6015 7.08398H24.6092V5.58398H24.6015V7.08398ZM24.5938 7.08398H24.6015V5.58398H24.5938V7.08398ZM24.5862 7.08398H24.5938V5.58398H24.5862V7.08398ZM24.5786 7.08398H24.5862V5.58398H24.5786V7.08398ZM24.5711 7.08398H24.5786V5.58398H24.5711V7.08398ZM18.1711 7.08398H24.5711V5.58398H18.1711V7.08398ZM38.8203 25.7499C38.8203 33.3442 32.4843 39.579 24.5703 39.579V41.079C33.2755 41.079 40.3203 34.2093 40.3203 25.7499H38.8203ZM24.5703 11.9209C32.4843 11.9209 38.8203 18.1557 38.8203 25.7499H40.3203C40.3203 17.2906 33.2755 10.4209 24.5703 10.4209V11.9209ZM10.3203 25.7499C10.3203 18.1557 16.6564 11.9209 24.5703 11.9209V10.4209C15.8651 10.4209 8.82031 17.2906 8.82031 25.7499H10.3203ZM24.5703 39.579C16.6564 39.579 10.3203 33.3442 10.3203 25.7499H8.82031C8.82031 34.2093 15.8651 41.079 24.5703 41.079V39.579ZM25.8203 16.4023C25.8203 15.712 25.2607 15.1523 24.5703 15.1523V16.6523C24.4322 16.6523 24.3203 16.5404 24.3203 16.4023H25.8203ZM25.8203 26.3234V16.4023H24.3203V26.3234H25.8203ZM30.2331 21.6245L24.628 25.7177L25.5126 26.9291L31.1178 22.8359L30.2331 21.6245ZM31.9798 21.8968C31.5727 21.3393 30.7906 21.2173 30.2331 21.6245L31.1177 22.8359C31.0062 22.9173 30.8498 22.8929 30.7684 22.7814L31.9798 21.8968ZM31.7075 23.6434C32.265 23.2363 32.3869 22.4543 31.9798 21.8968L30.7684 22.7814C30.687 22.6699 30.7114 22.5135 30.8229 22.4321L31.7075 23.6434ZM25.3075 28.3172L31.7075 23.6434L30.8229 22.4321L24.4229 27.1058L25.3075 28.3172ZM24.0042 28.4221C24.4237 28.6353 24.9275 28.5947 25.3075 28.3172L24.4229 27.1058C24.4989 27.0503 24.5996 27.0422 24.6835 27.0848L24.0042 28.4221ZM23.3203 27.3077C23.3203 27.7783 23.5846 28.209 24.0042 28.4221L24.6835 27.0848C24.7674 27.1274 24.8203 27.2136 24.8203 27.3077H23.3203ZM23.3203 16.4023V27.3077H24.8203V16.4023H23.3203ZM24.5703 15.1523C23.88 15.1523 23.3203 15.712 23.3203 16.4023H24.8203C24.8203 16.5404 24.7084 16.6523 24.5703 16.6523V15.1523Z" fill="#D3965F"/>
</svg>
