<svg width="32" height="32" fill="none" xmlns="http://www.w3.org/2000/svg"><path d="M11.833 25.977a1.086 1.086 0 0 1-.919-.493 1.06 1.06 0 0 1-.15-.811 2492.817 2492.817 0 0 0 2.82-13.115c.072-.473.138-.724.421-.97a1.103 1.103 0 0 1 1.236-.143c.4.21.63.653.57 1.102a5.485 5.485 0 0 1-.075.392c-.259 1.568-.471 4.903.592 6.21.28.344.619.497 1.1.497 3.096 0 5.041-2.858 5.133-5.62.086-2.564-1.49-5.41-6.169-5.715a9.754 9.754 0 0 0-.72-.027c-4.225 0-5.543 3.01-5.847 3.933-.556 1.692-.264 3.522.651 4.079a1.073 1.073 0 0 1 .357 1.484 1.102 1.102 0 0 1-1.504.352c-1.81-1.1-2.476-3.868-1.584-6.58.862-2.623 3.4-5.425 7.937-5.425.282 0 .573.011.864.033 6.234.405 8.315 4.528 8.201 7.936-.126 3.789-2.898 7.707-7.318 7.707-.834 0-2.265-.261-3.189-1.863-.574 2.658-1.133 5.238-1.338 6.184a1.095 1.095 0 0 1-1.069.853Z" fill="#fff"/></svg>