<svg width="32" height="32" fill="none" xmlns="http://www.w3.org/2000/svg"><path d="M26.996 4.602a3.015 3.015 0 0 0-.952.23h-.005c-.29.116-1.673.702-3.773 1.589l-7.531 3.194-10.716 4.547.064-.024s-.366.12-.75.386c-.194.128-.41.305-.597.582a1.72 1.72 0 0 0-.283 1.14c.092.742.57 1.188.913 1.432.346.25.677.366.677.366h.008l4.981 1.69c.223.721 1.518 5.008 1.83 5.995.182.59.362.96.585 1.24.108.145.235.265.387.362a1.13 1.13 0 0 0 .25.108l-.051-.012c.016.004.027.016.04.02.04.012.067.016.12.024.788.24 1.422-.253 1.422-.253l.035-.028 2.255-2.067c.397-.365.997-.39 1.423-.06l4.192 3.239.112.048c1.028.454 2.068.2 2.618-.245a2.69 2.69 0 0 0 .769-1.023l.036-.093 3.81-19.653c.107-.486.135-.94.015-1.381a1.856 1.856 0 0 0-.797-1.076 1.896 1.896 0 0 0-1.087-.277Zm-.104 2.108c-.004.064.008.056-.02.18v.012L23.1 26.352c-.017.027-.044.088-.12.148-.08.064-.143.105-.474-.028l-4.5-3.474a2.292 2.292 0 0 0-2.954.126l-2.217 2.036.764-4.92 6.252-5.997c.617-.592-.123-1.58-.857-1.145a632.223 632.223 0 0 0-8.307 5.046l-.005-.02-5.952-2.02v-.003l-.016-.004a.271.271 0 0 0 .032-.012l.031-.016.032-.012s5.316-2.256 10.72-4.547l7.527-3.195c2.096-.887 3.646-1.537 3.733-1.573.084-.032.044-.032.104-.032Z" fill="#fff"/></svg>