<svg width="90" height="68" viewBox="0 0 90 68" fill="none" xmlns="http://www.w3.org/2000/svg">
<path opacity="0.5" d="M37.3023 51.745C37.3023 56.2603 35.7108 60.1434 32.5279 63.3944C29.5218 66.4648 25.72 68 21.1224 68C14.7566 68 9.80533 65.7424 6.26875 61.2271C2.73216 56.5312 0.963867 51.1129 0.963867 44.9721C0.963867 35.5803 3.70472 27.0916 9.18643 19.506C14.6681 11.7397 20.9456 5.23771 28.0188 0L37.037 9.21115C35.6224 10.8366 33.8541 12.7331 31.7322 14.9004C29.6102 16.8871 27.7535 19.0544 26.162 21.4024C24.7474 23.7503 24.0401 26.0983 24.0401 28.4462C24.0401 30.7942 25.1011 32.8712 27.223 34.6773C29.5218 36.4834 31.7322 38.6507 33.8541 41.1793C36.1529 43.7078 37.3023 47.2297 37.3023 51.745ZM89.0249 51.745C89.0249 56.2603 87.4334 60.1434 84.2505 63.3944C81.2444 66.4648 77.4425 68 72.845 68C66.4791 68 61.5279 65.7424 57.9913 61.2271C54.4547 56.5312 52.6864 51.1129 52.6864 44.9721C52.6864 35.5803 55.4273 27.0916 60.909 19.506C66.3907 11.7397 72.6682 5.23771 79.7413 0L88.7596 9.21115C87.345 10.8366 85.5767 12.7331 83.4547 14.9004C81.3328 16.8871 79.4761 19.0544 77.8846 21.4024C76.47 23.7503 75.7627 26.0983 75.7627 28.4462C75.7627 30.7942 76.8236 32.8712 78.9456 34.6773C81.2444 36.4834 83.4547 38.6507 85.5767 41.1793C87.8755 43.7078 89.0249 47.2297 89.0249 51.745Z" fill="#D3965F"/>
</svg>
