<svg width="32" height="32" fill="none" xmlns="http://www.w3.org/2000/svg"><path d="M13.417 15.348c1.325-.631 2.016-1.587 2.016-3.074 0-2.933-2.191-3.647-4.72-3.647H3.75v14.722h7.158c2.684 0 5.205-1.284 5.205-4.275 0-1.848-.88-3.215-2.696-3.726ZM6.996 11.14h3.046c1.17 0 2.225.328 2.225 1.682 0 1.25-.821 1.753-1.98 1.753H6.996V11.14Zm3.47 9.708h-3.47v-4.054h3.537c1.43 0 2.334.594 2.334 2.102 0 1.487-1.08 1.952-2.4 1.952Zm14.938-9.999h-5.987V9.4h5.987v1.45Zm2.346 7.324c0-3.153-1.85-5.782-5.204-5.782-3.258 0-5.471 2.442-5.471 5.64 0 3.32 2.096 5.596 5.47 5.596 2.555 0 4.21-1.146 5.005-3.585h-2.592c-.279.91-1.429 1.392-2.32 1.392-1.721 0-2.626-1.006-2.626-2.713h7.713c.012-.174.025-.361.025-.548Zm-7.733-1.296c.096-1.4 1.029-2.277 2.437-2.277 1.475 0 2.217.864 2.342 2.277h-4.78Z" fill="#fff"/></svg>