<svg width="32" height="33" fill="none" xmlns="http://www.w3.org/2000/svg"><g clip-path="url(#a)" fill="#fff"><path d="M16 6.534c3.206 0 3.586.014 4.847.07 1.172.051 1.805.248 2.226.412a3.71 3.71 0 0 1 1.379.896c.421.422.68.82.895 1.378.164.422.36 1.06.412 2.226.057 1.266.07 1.646.07 4.847 0 3.206-.013 3.586-.07 4.847-.051 1.172-.248 1.805-.412 2.227a3.711 3.711 0 0 1-.895 1.378c-.422.422-.82.68-1.379.895-.421.164-1.059.361-2.226.413-1.266.056-1.645.07-4.847.07-3.206 0-3.586-.014-4.847-.07-1.172-.052-1.805-.249-2.226-.413a3.712 3.712 0 0 1-1.379-.895 3.69 3.69 0 0 1-.895-1.378c-.164-.422-.36-1.06-.412-2.227-.057-1.266-.07-1.645-.07-4.847 0-3.206.013-3.586.07-4.847.051-1.172.248-1.804.412-2.226.216-.558.478-.961.895-1.378a3.69 3.69 0 0 1 1.379-.896c.421-.164 1.059-.36 2.226-.412 1.261-.056 1.64-.07 4.847-.07Zm0-2.161c-3.258 0-3.666.014-4.945.07-1.275.056-2.152.262-2.911.558a5.857 5.857 0 0 0-2.128 1.387 5.88 5.88 0 0 0-1.388 2.124c-.295.764-.501 1.636-.558 2.91-.056 1.285-.07 1.693-.07 4.95 0 3.258.014 3.666.07 4.946.057 1.275.263 2.151.558 2.91.31.793.717 1.463 1.388 2.129a5.864 5.864 0 0 0 2.123 1.383c.764.295 1.636.501 2.911.558 1.28.056 1.688.07 4.945.07 3.258 0 3.666-.014 4.946-.07 1.275-.057 2.151-.263 2.91-.558a5.863 5.863 0 0 0 2.124-1.383 5.866 5.866 0 0 0 1.383-2.123c.295-.765.501-1.636.558-2.911.056-1.28.07-1.688.07-4.946s-.014-3.665-.07-4.945c-.057-1.275-.263-2.152-.558-2.911a5.62 5.62 0 0 0-1.374-2.133 5.866 5.866 0 0 0-2.123-1.383c-.764-.295-1.636-.501-2.911-.557-1.284-.061-1.692-.075-4.95-.075Z"/><path d="M16 10.209a6.166 6.166 0 0 0-6.164 6.164A6.166 6.166 0 0 0 16 22.537a6.166 6.166 0 0 0 6.164-6.164A6.166 6.166 0 0 0 16 10.208Zm0 10.162a3.999 3.999 0 1 1 .001-7.998A3.999 3.999 0 0 1 16 20.371Zm7.847-10.406a1.44 1.44 0 1 1-2.879 0 1.44 1.44 0 0 1 2.879 0Z"/></g><defs><clipPath id="a"><path fill="#fff" transform="translate(4 4.373)" d="M0 0h24v24H0z"/></clipPath></defs></svg>