<svg width="25" height="25" fill="none" xmlns="http://www.w3.org/2000/svg"><path d="M8.833 22.977a1.103 1.103 0 0 1-.919-.493 1.06 1.06 0 0 1-.15-.811 2489.615 2489.615 0 0 0 2.82-13.116c.072-.473.138-.723.421-.97a1.103 1.103 0 0 1 1.236-.142c.4.21.63.652.57 1.101a5.213 5.213 0 0 1-.075.392c-.259 1.568-.471 4.904.592 6.21.28.345.619.498 1.1.498 3.096 0 5.041-2.858 5.133-5.621.086-2.563-1.49-5.41-6.169-5.714a9.754 9.754 0 0 0-.72-.028c-4.225 0-5.544 3.011-5.847 3.934-.556 1.692-.264 3.521.651 4.078a1.073 1.073 0 0 1 .357 1.484 1.102 1.102 0 0 1-1.504.352c-1.81-1.1-2.476-3.868-1.584-6.58.862-2.622 3.4-5.424 7.937-5.424.282 0 .573.01.864.033 6.234.405 8.315 4.528 8.201 7.936-.126 3.788-2.898 7.707-7.318 7.707-.834 0-2.265-.262-3.189-1.863-.574 2.658-1.133 5.237-1.338 6.184a1.095 1.095 0 0 1-1.069.853Z" fill="#fff"/></svg>