<svg width="32" height="33" fill="none" xmlns="http://www.w3.org/2000/svg"><path d="M26.996 4.975a3.015 3.015 0 0 0-.953.229h-.004c-.29.116-1.673.702-3.773 1.59l-7.532 3.194L4.02 14.535l.064-.024s-.367.12-.75.385c-.195.129-.41.305-.597.582a1.72 1.72 0 0 0-.283 1.14c.091.742.57 1.188.912 1.433.347.249.678.365.678.365h.008l4.98 1.69c.224.722 1.52 5.008 1.83 5.996.183.59.362.96.586 1.24.107.145.235.265.386.361a1.13 1.13 0 0 0 .251.108l-.051-.012c.016.005.027.017.04.02.04.012.067.017.119.024.789.241 1.422-.252 1.422-.252l.036-.028 2.254-2.067c.398-.365.997-.39 1.424-.06l4.192 3.238.112.049c1.028.453 2.068.2 2.618-.245.553-.45.769-1.024.769-1.024l.036-.092 3.809-19.654c.107-.486.135-.94.016-1.38a1.856 1.856 0 0 0-.797-1.076 1.896 1.896 0 0 0-1.087-.277Zm-.104 2.107c-.004.064.008.056-.02.18v.013l-3.774 19.45c-.016.027-.043.087-.12.148-.079.064-.143.104-.474-.028l-4.499-3.475a2.292 2.292 0 0 0-2.954.127l-2.218 2.035.765-4.92 6.252-5.997c.616-.591-.123-1.58-.857-1.144a635.678 635.678 0 0 0-8.308 5.046l-.004-.02-5.953-2.02v-.003c-.004 0-.012-.005-.016-.005a.271.271 0 0 0 .032-.012l.032-.015.032-.012 10.72-4.548c2.705-1.147 5.43-2.304 7.527-3.195a938.11 938.11 0 0 1 3.733-1.573c.084-.032.044-.032.104-.032Z" fill="#fff"/></svg>