<svg width="32" height="33" fill="none" xmlns="http://www.w3.org/2000/svg"><path d="m4 28.372 1.687-6.163A11.867 11.867 0 0 1 4.1 16.264C4.103 9.707 9.438 4.373 15.993 4.373a11.817 11.817 0 0 1 8.413 3.488 11.824 11.824 0 0 1 3.48 8.413c-.003 6.557-5.338 11.892-11.893 11.892a11.9 11.9 0 0 1-5.688-1.448L4 28.372Zm6.597-3.806c1.676.995 3.276 1.59 5.392 1.591 5.448 0 9.886-4.433 9.889-9.884.002-5.463-4.415-9.89-9.881-9.892-5.452 0-9.887 4.434-9.889 9.884-.001 2.224.651 3.89 1.746 5.633l-.999 3.649 3.742-.982Zm11.387-5.464c-.074-.125-.272-.198-.57-.348-.297-.149-1.758-.867-2.031-.966-.272-.1-.47-.15-.669.148-.198.297-.768.968-.941 1.166-.173.197-.347.223-.644.073-.297-.149-1.255-.462-2.39-1.474-.883-.788-1.48-1.761-1.653-2.06-.173-.296-.018-.457.13-.605.134-.133.297-.348.446-.521.151-.173.2-.296.3-.495.099-.198.05-.372-.025-.521-.075-.149-.669-1.612-.916-2.207-.242-.579-.487-.5-.669-.51l-.57-.01c-.198 0-.52.075-.792.373s-1.04 1.016-1.04 2.479c0 1.462 1.065 2.876 1.213 3.074.149.197 2.095 3.2 5.076 4.486.709.306 1.263.49 1.694.627.712.226 1.36.194 1.872.117.571-.085 1.758-.719 2.006-1.413.248-.695.248-1.29.173-1.413Z" fill="#fff"/></svg>