<svg width="87" height="68" viewBox="0 0 87 68" fill="none" xmlns="http://www.w3.org/2000/svg">
  <g filter="url(#filter0_b_6505_542)">
    <rect x="19" width="68" height="68" rx="34" fill="white" fill-opacity="0.2" />
  </g>
  <path d="M1 33.25C0.585786 33.25 0.25 33.5858 0.25 34C0.25 34.4142 0.585786 34.75 1 34.75L1 33.25ZM53.5303 34.5303C53.8232 34.2374 53.8232 33.7626 53.5303 33.4697L48.7574 28.6967C48.4645 28.4038 47.9896 28.4038 47.6967 28.6967C47.4038 28.9896 47.4038 29.4645 47.6967 29.7574L51.9393 34L47.6967 38.2426C47.4038 38.5355 47.4038 39.0104 47.6967 39.3033C47.9896 39.5962 48.4645 39.5962 48.7574 39.3033L53.5303 34.5303ZM1 34.75L53 34.75L53 33.25L1 33.25L1 34.75Z" fill="white" />
  <defs>
    <filter id="filter0_b_6505_542" x="8.8" y="-10.2" width="88.4" height="88.4" filterUnits="userSpaceOnUse" color-interpolation-filters="sRGB">
      <feFlood flood-opacity="0" result="BackgroundImageFix" />
      <feGaussianBlur in="BackgroundImageFix" stdDeviation="5.1" />
      <feComposite in2="SourceAlpha" operator="in" result="effect1_backgroundBlur_6505_542" />
      <feBlend mode="normal" in="SourceGraphic" in2="effect1_backgroundBlur_6505_542" result="shape" />
    </filter>
  </defs>
</svg>