<svg width="32" height="32" viewBox="0 0 32 32" fill="none" xmlns="http://www.w3.org/2000/svg">
<path d="M7.53849 9.07666C7.13046 9.07666 6.73914 9.23875 6.45061 9.52727C6.16209 9.8158 6 10.2071 6 10.6152V24.4616C6 24.8696 6.16209 25.261 6.45061 25.5495C6.73914 25.838 7.13046 26.0001 7.53849 26.0001H24.4619C24.87 26.0001 25.2613 25.838 25.5498 25.5495C25.8383 25.261 26.0004 24.8696 26.0004 24.4616V10.6152C26.0004 10.2071 25.8383 9.8158 25.5498 9.52727C25.2613 9.23875 24.87 9.07666 24.4619 9.07666H21.3849" stroke="#D3965F" stroke-width="1.5" stroke-linecap="round" stroke-linejoin="round"/>
<path d="M6 15.231H26.0004" stroke="#D3965F" stroke-width="1.5" stroke-linecap="round" stroke-linejoin="round"/>
<path d="M10.6152 6V12.154" stroke="#D3965F" stroke-width="1.5" stroke-linecap="round" stroke-linejoin="round"/>
<path d="M21.3848 6V12.154" stroke="#D3965F" stroke-width="1.5" stroke-linecap="round" stroke-linejoin="round"/>
<path d="M10.6152 9.07666H18.3077" stroke="#D3965F" stroke-width="1.5" stroke-linecap="round" stroke-linejoin="round"/>
</svg>
