<svg width="49" height="49" viewBox="0 0 49 49" fill="none" xmlns="http://www.w3.org/2000/svg">
<mask id="mask0_8602_285" style="mask-type:alpha" maskUnits="userSpaceOnUse" x="0" y="0" width="49" height="49">
<rect x="0.804688" y="0.443359" width="48" height="48" fill="#D9D9D9"/>
</mask>
<g mask="url(#mask0_8602_285)">
<path d="M32.8047 23.7703V10.4434H34.8047V21.7703L32.8047 23.7703ZM10.8047 38.4434V10.4434H12.8047V38.4434H10.8047ZM21.8047 16.4818V10.4434H23.8047V16.4818H21.8047ZM21.8047 27.4434V21.4049H23.8047V27.4434H21.8047ZM21.8047 38.4434V32.4049H23.8047V38.4434H21.8047ZM29.2662 38.4434V34.0241L39.9316 23.4088C40.1291 23.2113 40.3328 23.078 40.5427 23.0088C40.7527 22.9395 40.9627 22.9049 41.1726 22.9049C41.4017 22.9049 41.6268 22.9479 41.8479 23.0338C42.069 23.1197 42.2699 23.2485 42.4508 23.4203L44.3008 25.3088C44.4649 25.5062 44.5899 25.7113 44.6758 25.9241C44.7617 26.1369 44.8047 26.3498 44.8047 26.5626C44.8047 26.7754 44.7637 26.9901 44.6816 27.2068C44.5996 27.4235 44.4726 27.6305 44.3008 27.828L33.6855 38.4434H29.2662ZM31.0354 36.6741H32.9354L39.8701 29.728L38.9316 28.778L38.0201 27.8011L31.0354 34.7741V36.6741ZM38.9316 28.778L38.0201 27.8011L39.8701 29.728L38.9316 28.778Z" fill="#D3965F"/>
</g>
</svg>
