<svg width="49" height="49" viewBox="0 0 49 49" fill="none" xmlns="http://www.w3.org/2000/svg">
<mask id="mask0_8602_273" style="mask-type:alpha" maskUnits="userSpaceOnUse" x="0" y="0" width="49" height="49">
<rect x="0.804688" y="0.443359" width="48" height="48" fill="#D9D9D9"/>
</mask>
<g mask="url(#mask0_8602_273)">
<path d="M6.80469 42.4432V21.7394L16.8047 17.4817V21.4047L26.8047 17.4047V22.4432H42.8047V42.4432H6.80469ZM8.80469 40.4432H40.8047V24.4432H24.8047V20.3432L14.8047 24.3432V20.4432L8.80469 23.0932V40.4432ZM23.2662 35.5202H26.3431V29.3663H23.2662V35.5202ZM15.2662 35.5202H18.3431V29.3663H15.2662V35.5202ZM31.2662 35.5202H34.3431V29.3663H31.2662V35.5202ZM42.8047 22.4432H36.5739L38.5739 7.98169H41.0355L42.8047 22.4432Z" fill="#D3965F"/>
</g>
</svg>
