<svg width="69" height="68" viewBox="0 0 69 68" fill="none" xmlns="http://www.w3.org/2000/svg">
<rect x="0.75" y="0.5" width="67" height="67" rx="33.5" stroke="#D3965F"/>
<mask id="mask0_4598_6371" style="mask-type:alpha" maskUnits="userSpaceOnUse" x="16" y="16" width="49" height="49">
<rect x="16.0547" y="16.4434" width="48" height="48" fill="#D9D9D9"/>
</mask>
<g mask="url(#mask0_4598_6371)">
<path d="M43.8016 47.7951C43.6401 47.7951 43.491 47.7686 43.3545 47.7158C43.2179 47.6629 43.0843 47.571 42.9535 47.4403L35.4766 39.9922C35.3458 39.8614 35.254 39.7278 35.2011 39.5912C35.1482 39.4547 35.1218 39.3057 35.1218 39.1441C35.1218 38.9826 35.1482 38.8335 35.2011 38.697C35.254 38.5605 35.3458 38.4268 35.4766 38.296L37.9718 35.8009C38.1026 35.6701 38.2362 35.5783 38.3727 35.5254C38.5093 35.4725 38.6583 35.446 38.8199 35.446C38.9814 35.446 39.1305 35.4725 39.267 35.5254C39.4035 35.5783 39.5372 35.6701 39.668 35.8009L47.1449 43.2778C47.2756 43.4085 47.3675 43.5422 47.4204 43.6787C47.4732 43.8153 47.4997 43.9643 47.4997 44.1259C47.4997 44.2874 47.4732 44.4364 47.4204 44.573C47.3675 44.7095 47.2756 44.8432 47.1449 44.9739L44.6497 47.4403C44.5189 47.571 44.3853 47.6629 44.2487 47.7158C44.1122 47.7686 43.9631 47.7951 43.8016 47.7951ZM24.368 47.8037C24.2064 47.8037 24.0559 47.7759 23.9165 47.7201C23.7771 47.6643 23.642 47.571 23.5112 47.4403L21.0247 44.9826C20.8939 44.8518 20.8006 44.7167 20.7449 44.5773C20.6891 44.4379 20.6612 44.2874 20.6612 44.1259C20.6612 43.9643 20.6891 43.8105 20.7449 43.6643C20.8006 43.5182 20.8939 43.3797 21.0247 43.2489L28.7439 35.5297H31.8737L33.0333 34.3701L26.6727 28.0095H24.5352L20.7477 24.222L23.9468 21.023L27.7343 24.8105V26.948L34.0949 33.3085L38.618 28.7855L35.8516 26.0191L37.5477 24.323H34.1468L33.5295 23.7345L37.7872 19.4768L38.3756 20.0653V23.4951L40.0718 21.7989L46.0314 27.7009C46.3987 28.0489 46.6708 28.4484 46.8477 28.8994C47.0247 29.3504 47.1131 29.8278 47.1131 30.3316C47.1131 30.7009 47.0583 31.0595 46.9487 31.4076C46.8391 31.7557 46.6776 32.0845 46.4641 32.3941L43.392 29.322L41.2631 31.4509L39.6593 29.847L32.9064 36.5999V39.7787L25.216 47.4403C25.0852 47.571 24.9516 47.6643 24.8151 47.7201C24.6785 47.7759 24.5295 47.8037 24.368 47.8037Z" fill="#D3965F"/>
</g>
</svg>
