<svg width="41" height="58" viewBox="0 0 41 58" fill="none" xmlns="http://www.w3.org/2000/svg">
    <path d="M39.5714 20.2857C39.5714 30.9571 20.2857 56.7143 20.2857 56.7143C20.2857 56.7143 1 30.9571 1 20.2857C1 15.1708 3.03188 10.2654 6.64865 6.64865C10.2654 3.03188 15.1708 1 20.2857 1C25.4006 1 30.306 3.03188 33.9228 6.64865C37.5395 10.2654 39.5714 15.1708 39.5714 20.2857V20.2857Z" stroke="#D3965F" stroke-width="2" stroke-linecap="round" stroke-linejoin="round"/>
    <path d="M11.9774 17.84C12.0176 17.3388 12.2451 16.8711 12.6147 16.5302C12.9842 16.1892 13.4686 15.9999 13.9714 16H26.0294C26.5322 15.9999 27.0166 16.1892 27.3861 16.5302C27.7556 16.8711 27.9832 17.3388 28.0234 17.84L28.8264 27.84C28.8485 28.1152 28.8133 28.392 28.7232 28.6529C28.6331 28.9139 28.4899 29.1533 28.3027 29.3562C28.1155 29.5592 27.8883 29.7211 27.6354 29.8319C27.3825 29.9427 27.1095 29.9999 26.8334 30H13.1674C12.8913 29.9999 12.6182 29.9427 12.3654 29.8319C12.1125 29.7211 11.8853 29.5592 11.6981 29.3562C11.5109 29.1533 11.3677 28.9139 11.2776 28.6529C11.1874 28.392 11.1523 28.1152 11.1744 27.84L11.9774 17.84Z" stroke="#D3965F" stroke-width="1.5" stroke-linecap="round" stroke-linejoin="round"/>
    <path d="M24 19V14C24 12.9391 23.5786 11.9217 22.8284 11.1716C22.0783 10.4214 21.0609 10 20 10C18.9391 10 17.9217 10.4214 17.1716 11.1716C16.4214 11.9217 16 12.9391 16 14V19" stroke="#D3965F" stroke-width="1.5" stroke-linecap="round" stroke-linejoin="round"/>
</svg>