<svg width="60" height="60" viewBox="0 0 60 60" fill="none" xmlns="http://www.w3.org/2000/svg">
    <path d="M49.2863 21.4283C49.2863 32.0997 30.0006 57.8569 30.0006 57.8569C30.0006 57.8569 10.7148 32.0997 10.7148 21.4283C10.7148 16.3134 12.7467 11.408 16.3635 7.79123C19.9803 4.17446 24.8857 2.14258 30.0006 2.14258C35.1154 2.14258 40.0208 4.17446 43.6376 7.79123C47.2544 11.408 49.2863 16.3134 49.2863 21.4283V21.4283Z" stroke="#D3965F" stroke-width="1.5" stroke-linecap="round" stroke-linejoin="round"/>
    <g clip-path="url(#clip0_5116_52778)">
    <path d="M39.9 16.05L35.5 18.25M35.5 18.25L34.95 18.525L30 21M35.5 18.25V22.1M35.5 18.25L25.05 12.75M30 21L20.1 16.05M30 21V31.45M33.9358 11.5202L36.1358 12.6752C38.5019 13.9171 39.6855 14.5375 40.3433 15.654C41 16.7694 41 18.1587 41 20.9362V21.0649C41 23.8413 41 25.2306 40.3433 26.346C39.6855 27.4625 38.5019 28.084 36.1358 29.3259L33.9358 30.4798C32.0042 31.4929 31.0384 32 30 32C28.9616 32 27.9958 31.494 26.0642 30.4798L23.8642 29.3248C21.4981 28.0829 20.3145 27.4625 19.6567 26.346C19 25.2306 19 23.8413 19 21.066V20.9373C19 18.1598 19 16.7705 19.6567 15.6551C20.3145 14.5386 21.4981 13.9171 23.8642 12.6763L26.0642 11.5213C27.9958 10.5071 28.9616 10 30 10C31.0384 10 32.0042 10.506 33.9358 11.5202Z" stroke="#D3965F" stroke-width="1.5" stroke-linecap="round"/>
    </g>
    <defs>
    <clipPath id="clip0_5116_52778">
    <rect width="24" height="24" fill="white" transform="translate(18 9)"/>
    </clipPath>
    </defs>
</svg>