<svg width="25" height="25" viewBox="0 0 25 25" fill="none" xmlns="http://www.w3.org/2000/svg">
  <path d="M22.9406 18.83C22.9406 19.19 22.8606 19.56 22.6906 19.92C22.5206 20.28 22.3006 20.62 22.0106 20.94C21.5206 21.48 20.9806 21.87 20.3706 22.12C19.7706 22.37 19.1206 22.5 18.4206 22.5C17.4006 22.5 16.3106 22.26 15.1606 21.77C14.0106 21.28 12.8606 20.62 11.7206 19.79C10.5706 18.95 9.48058 18.02 8.44058 16.99C7.41058 15.95 6.48058 14.86 5.65058 13.72C4.83058 12.58 4.17058 11.44 3.69058 10.31C3.21058 9.17 2.97058 8.08 2.97058 7.04C2.97058 6.36 3.09058 5.71 3.33058 5.11C3.57058 4.5 3.95058 3.94 4.48058 3.44C5.12058 2.81 5.82058 2.5 6.56058 2.5C6.84058 2.5 7.12058 2.56 7.37058 2.68C7.63058 2.8 7.86058 2.98 8.04058 3.24L10.3606 6.51C10.5406 6.76 10.6706 6.99 10.7606 7.21C10.8506 7.42 10.9006 7.63 10.9006 7.82C10.9006 8.06 10.8306 8.3 10.6906 8.53C10.5606 8.76 10.3706 9 10.1306 9.24L9.37058 10.03C9.26058 10.14 9.21058 10.27 9.21058 10.43C9.21058 10.51 9.22058 10.58 9.24058 10.66C9.27058 10.74 9.30058 10.8 9.32058 10.86C9.50058 11.19 9.81058 11.62 10.2506 12.14C10.7006 12.66 11.1806 13.19 11.7006 13.72C12.2406 14.25 12.7606 14.74 13.2906 15.19C13.8106 15.63 14.2406 15.93 14.5806 16.11C14.6306 16.13 14.6906 16.16 14.7606 16.19C14.8406 16.22 14.9206 16.23 15.0106 16.23C15.1806 16.23 15.3106 16.17 15.4206 16.06L16.1806 15.31C16.4306 15.06 16.6706 14.87 16.9006 14.75C17.1306 14.61 17.3606 14.54 17.6106 14.54C17.8006 14.54 18.0006 14.58 18.2206 14.67C18.4406 14.76 18.6706 14.89 18.9206 15.06L22.2306 17.41C22.4906 17.59 22.6706 17.8 22.7806 18.05C22.8806 18.3 22.9406 18.55 22.9406 18.83Z" stroke="white" stroke-width="1.5" stroke-miterlimit="10" />
</svg>