<svg width="68" height="68" viewBox="0 0 68 68" fill="none" xmlns="http://www.w3.org/2000/svg">
<rect x="0.5" y="0.5" width="67" height="67" rx="33.5" stroke="#D3965F"/>
<mask id="mask0_4598_6384" style="mask-type:alpha" maskUnits="userSpaceOnUse" x="15" y="16" width="49" height="49">
<rect x="15.8047" y="16.4434" width="48" height="48" fill="#D9D9D9"/>
</mask>
<g mask="url(#mask0_4598_6384)">
<path d="M36.4497 49.3325H32.6708C32.342 49.3325 32.0579 49.2176 31.8184 48.9878C31.579 48.758 31.4593 48.4883 31.4593 48.1787V40.3614C31.4593 40.0518 31.579 39.782 31.8184 39.5522C32.0579 39.3224 32.342 39.2075 32.6708 39.2075H33.7958V33.3517C33.7958 33.1017 33.6949 32.8902 33.493 32.7171C33.291 32.5441 33.0458 32.4575 32.7574 32.4575H22.892C22.1823 32.4575 21.5819 32.2215 21.0905 31.7494C20.5992 31.2772 20.3535 30.7056 20.3535 30.0345V25.4767C20.3535 24.8248 20.5992 24.2628 21.0905 23.7907C21.5819 23.3186 22.1823 23.0825 22.892 23.0825H24.7381V21.9864C24.7381 21.6767 24.8578 21.407 25.0973 21.1772C25.3367 20.9474 25.6208 20.8325 25.9497 20.8325H43.142C43.4708 20.8325 43.755 20.9474 43.9944 21.1772C44.2338 21.407 44.3535 21.6767 44.3535 21.9864V25.6787C44.3535 25.9883 44.2338 26.258 43.9944 26.4878C43.755 26.7176 43.4708 26.8325 43.142 26.8325H25.9497C25.6208 26.8325 25.3367 26.7176 25.0973 26.4878C24.8578 26.258 24.7381 25.9883 24.7381 25.6787V24.5825H22.892C22.5843 24.5825 22.3343 24.6691 22.142 24.8421C21.9497 25.0152 21.8535 25.2267 21.8535 25.4767V30.0345C21.8535 30.3037 21.9497 30.5248 22.142 30.6979C22.3343 30.871 22.5843 30.9575 22.892 30.9575H32.7574C33.4478 30.9575 34.0434 31.1936 34.5444 31.6657C35.0454 32.1378 35.2958 32.6998 35.2958 33.3517V39.2075H36.4497C36.7785 39.2075 37.0579 39.3224 37.2877 39.5522C37.5175 39.782 37.6324 40.0518 37.6324 40.3614V48.1787C37.6324 48.4883 37.5175 48.758 37.2877 48.9878C37.0579 49.2176 36.7785 49.3325 36.4497 49.3325Z" fill="#D3965F"/>
</g>
</svg>
