<svg width="25" height="24" viewBox="0 0 25 24" fill="none" xmlns="http://www.w3.org/2000/svg">
<path d="M11.5946 4.92704C11.9547 4.16058 13.045 4.16073 13.4049 4.92729L15.055 8.44186C15.1965 8.74319 15.4786 8.95436 15.8076 9.00516L19.5794 9.5875C20.3833 9.71161 20.7106 10.6925 20.1423 11.2744L17.3531 14.1309C17.1311 14.3583 17.0304 14.6777 17.0818 14.9913L17.7333 18.9653C17.8684 19.7895 16.9934 20.4064 16.2625 20.0022L12.9888 18.1918C12.6879 18.0254 12.3227 18.0253 12.0216 18.1914L8.74074 20.0025C8.00985 20.4059 7.13559 19.789 7.27066 18.9652L7.92247 14.9894C7.9739 14.6756 7.87311 14.3562 7.65096 14.1288L4.8584 11.2702C4.28992 10.6883 4.61715 9.70727 5.42113 9.58314L9.19259 9.00086C9.52148 8.95008 9.80357 8.73902 9.94509 8.43782L11.5946 4.92704Z" fill="white"/>
</svg>
