<svg width="69" height="68" viewBox="0 0 69 68" fill="none" xmlns="http://www.w3.org/2000/svg">
<rect x="0.75" y="0.5" width="67" height="67" rx="33.5" stroke="#D3965F"/>
<mask id="mask0_4598_6358" style="mask-type:alpha" maskUnits="userSpaceOnUse" x="10" y="10" width="49" height="48">
<rect x="10.5" y="10" width="48" height="48" fill="#D9D9D9"/>
</mask>
<g mask="url(#mask0_4598_6358)">
<path d="M31.5797 35.3563L32.6993 31.6465L29.7524 29.4847H33.4346L34.5625 25.7362L35.6904 29.4847H39.3726L36.4174 31.6465L37.537 35.3563L34.5625 33.0536L31.5797 35.3563ZM27.375 47.1217V37.648C26.4646 36.7524 25.7578 35.7037 25.2547 34.5021C24.7516 33.3005 24.5 32.0151 24.5 30.6458C24.5 27.8408 25.4758 25.4625 27.4275 23.5108C29.3792 21.5591 31.7575 20.5833 34.5625 20.5833C37.3675 20.5833 39.7458 21.5591 41.6975 23.5108C43.6492 25.4625 44.625 27.8408 44.625 30.6458C44.625 32.0151 44.3734 33.3005 43.8703 34.5021C43.3672 35.7037 42.6604 36.7524 41.75 37.648V47.1217L34.5625 44.9655L27.375 47.1217ZM34.5625 39.2708C36.9583 39.2708 38.9948 38.4322 40.6719 36.7551C42.349 35.078 43.1875 33.0416 43.1875 30.6458C43.1875 28.2499 42.349 26.2135 40.6719 24.5364C38.9948 22.8593 36.9583 22.0208 34.5625 22.0208C32.1667 22.0208 30.1302 22.8593 28.4531 24.5364C26.776 26.2135 25.9375 28.2499 25.9375 30.6458C25.9375 33.0416 26.776 35.078 28.4531 36.7551C30.1302 38.4322 32.1667 39.2708 34.5625 39.2708Z" fill="#D3965F"/>
</g>
</svg>
