<svg width="32" height="32" viewBox="0 0 32 32" fill="none" xmlns="http://www.w3.org/2000/svg">
<path d="M13.4167 15.3486C14.7417 14.7172 15.4333 13.7618 15.4333 12.2746C15.4333 9.34192 13.2417 8.62744 10.7125 8.62744H3.75V23.3491H10.9083C13.5917 23.3491 16.1125 22.0655 16.1125 19.0747C16.1125 17.2262 15.2333 15.8595 13.4167 15.3486ZM6.99583 11.1406H10.0417C11.2125 11.1406 12.2667 11.4688 12.2667 12.823C12.2667 14.0733 11.4458 14.5759 10.2875 14.5759H6.99583V11.1406ZM10.4667 20.8484H6.99583V16.7942H10.5333C11.9625 16.7942 12.8667 17.3882 12.8667 18.8961C12.8667 20.3832 11.7875 20.8484 10.4667 20.8484ZM25.4042 10.8498H19.4167V9.40008H25.4042V10.8498ZM27.75 18.1733C27.75 15.0204 25.9 12.3909 22.5458 12.3909C19.2875 12.3909 17.075 14.8335 17.075 18.032C17.075 21.3511 19.1708 23.6274 22.5458 23.6274C25.1 23.6274 26.7542 22.4809 27.55 20.0426H24.9583C24.6792 20.9523 23.5292 21.4341 22.6375 21.4341C20.9167 21.4341 20.0125 20.4289 20.0125 18.7216H27.725C27.7375 18.5471 27.75 18.3602 27.75 18.1733ZM20.0167 16.8772C20.1125 15.4773 21.0458 14.6009 22.4542 14.6009C23.9292 14.6009 24.6708 15.4649 24.7958 16.8772H20.0167Z" fill="white"/>
</svg>
