<svg width="32" height="32" viewBox="0 0 32 32" fill="none" xmlns="http://www.w3.org/2000/svg">
<path d="M11.8331 25.9774C11.7561 25.9774 11.679 25.9693 11.6034 25.9533C11.318 25.893 11.0732 25.7268 10.9145 25.4848C10.7558 25.243 10.7021 24.9547 10.7631 24.673C11.907 19.4008 13.2761 13.0555 13.5846 11.5575C13.656 11.085 13.722 10.834 14.0055 10.588C14.2055 10.4148 14.462 10.3194 14.7281 10.3194C14.9063 10.3194 15.0837 10.363 15.2412 10.4455C15.6411 10.6554 15.8703 11.0979 15.8115 11.547C15.8087 11.5681 15.803 11.6124 15.7361 11.9389C15.4775 13.5066 15.2648 16.8421 16.3281 18.1494C16.6076 18.493 16.947 18.6462 17.4288 18.6462C20.5241 18.6462 22.469 15.7882 22.5612 13.0252C22.6467 10.4623 21.071 7.61534 16.392 7.31129C16.1456 7.29299 15.9042 7.28384 15.6717 7.28384C11.4473 7.28384 10.1285 10.2945 9.82501 11.2171C9.26851 12.9093 9.56056 14.7388 10.4763 15.2956C10.725 15.4468 10.899 15.6844 10.9665 15.9646C11.034 16.245 10.9868 16.5343 10.8335 16.7796C10.6328 17.1006 10.2845 17.2921 9.90196 17.2921C9.69991 17.2921 9.50176 17.2366 9.32911 17.1316C7.51906 16.0312 6.85276 13.2639 7.74496 10.5514C8.60731 7.92944 11.1455 5.12744 15.6822 5.12744C15.9642 5.12744 16.2549 5.13839 16.5459 5.15999C22.7802 5.56514 24.8607 9.68849 24.747 13.0963C24.6207 16.8847 21.8489 20.8033 17.429 20.8033C16.5948 20.8033 15.1644 20.5419 14.2401 18.9405C13.6665 21.5983 13.1072 24.1777 12.9017 25.1245C12.7946 25.6188 12.3452 25.9774 11.8331 25.9774Z" fill="white"/>
</svg>
