<svg width="32" height="32" viewBox="0 0 32 32" fill="none" xmlns="http://www.w3.org/2000/svg">
<path d="M26.9959 4.60232C26.6533 4.61832 26.3305 4.71872 26.0435 4.83112H26.0395C25.7487 4.94752 24.3659 5.53352 22.2659 6.42052C20.1659 7.31152 17.4403 8.46732 14.7345 9.61532C9.33112 11.9069 4.01932 14.1625 4.01932 14.1625L4.08312 14.1385C4.08312 14.1385 3.71652 14.2589 3.33392 14.5237C3.13872 14.6521 2.92352 14.8287 2.73612 15.1057C2.54892 15.3827 2.39732 15.8081 2.45312 16.2455C2.54472 16.9879 3.02292 17.4335 3.36572 17.6783C3.71232 17.9271 4.04312 18.0435 4.04312 18.0435H4.05112L9.03212 19.7331C9.25532 20.4555 10.5503 24.7419 10.8611 25.7293C11.0445 26.3193 11.2237 26.6885 11.4469 26.9695C11.5545 27.1139 11.6821 27.2343 11.8335 27.3307C11.8933 27.3669 11.9571 27.3949 12.0207 27.4189C12.0407 27.4309 12.0605 27.4349 12.0845 27.4389L12.0327 27.4269C12.0487 27.4309 12.0605 27.4429 12.0725 27.4469C12.1123 27.4589 12.1403 27.4629 12.1921 27.4709C12.9811 27.7117 13.6147 27.2181 13.6147 27.2181L13.6505 27.1901L15.9045 25.1229C16.3019 24.7583 16.9017 24.7329 17.3281 25.0625L21.5203 28.3019L21.6319 28.3501C22.6599 28.8037 23.7001 28.5507 24.2499 28.1053C24.8037 27.6557 25.0189 27.0819 25.0189 27.0819L25.0547 26.9895L28.8641 7.33552C28.9717 6.84992 28.9995 6.39632 28.8801 5.95492C28.7605 5.51352 28.4537 5.10012 28.0831 4.87932C27.7091 4.65452 27.3385 4.58632 26.9959 4.60232ZM26.8921 6.70952C26.8881 6.77372 26.9001 6.76572 26.8721 6.89012V6.90212L23.0985 26.3515C23.0825 26.3795 23.0547 26.4397 22.9789 26.5001C22.8993 26.5643 22.8355 26.6045 22.5047 26.4721L18.0053 22.9977C17.1199 22.3141 15.8755 22.3673 15.0509 23.1241L12.8335 25.1597L13.5985 20.2391L19.8501 14.2425C20.4667 13.6511 19.7271 12.6631 18.9935 13.0985C15.2637 15.3125 10.6855 18.1441 10.6855 18.1441L10.6815 18.1241L4.72872 16.1049V16.1009C4.72472 16.1009 4.71672 16.0969 4.71272 16.0969C4.71672 16.0969 4.74452 16.0849 4.74452 16.0849L4.77632 16.0689L4.80812 16.0569C4.80812 16.0569 10.1239 13.8013 15.5273 11.5097C18.2329 10.3619 20.9587 9.20592 23.0547 8.31492C25.1507 7.42792 26.7009 6.77772 26.7885 6.74172C26.8723 6.70952 26.8325 6.70952 26.8921 6.70952Z" fill="white"/>
</svg>
