<svg width="32" height="32" viewBox="0 0 32 32" fill="none" xmlns="http://www.w3.org/2000/svg">
  <path d="M13.4167 15.3481C14.7417 14.7167 15.4333 13.7613 15.4333 12.2741C15.4333 9.34144 13.2417 8.62695 10.7125 8.62695H3.75V23.3486H10.9083C13.5917 23.3486 16.1125 22.0651 16.1125 19.0742C16.1125 17.2257 15.2333 15.859 13.4167 15.3481ZM6.99583 11.1401H10.0417C11.2125 11.1401 12.2667 11.4683 12.2667 12.8225C12.2667 14.0728 11.4458 14.5754 10.2875 14.5754H6.99583V11.1401ZM10.4667 20.8479H6.99583V16.7937H10.5333C11.9625 16.7937 12.8667 17.3877 12.8667 18.8956C12.8667 20.3827 11.7875 20.8479 10.4667 20.8479ZM25.4042 10.8493H19.4167V9.39959H25.4042V10.8493ZM27.75 18.1728C27.75 15.0199 25.9 12.3905 22.5458 12.3905C19.2875 12.3905 17.075 14.833 17.075 18.0316C17.075 21.3506 19.1708 23.627 22.5458 23.627C25.1 23.627 26.7542 22.4805 27.55 20.0421H24.9583C24.6792 20.9518 23.5292 21.4337 22.6375 21.4337C20.9167 21.4337 20.0125 20.4284 20.0125 18.7211H27.725C27.7375 18.5466 27.75 18.3597 27.75 18.1728ZM20.0167 16.8767C20.1125 15.4769 21.0458 14.6004 22.4542 14.6004C23.9292 14.6004 24.6708 15.4644 24.7958 16.8767H20.0167Z" fill="white" />
</svg>
