<svg width="26" height="26" viewBox="0 0 26 26" fill="none" xmlns="http://www.w3.org/2000/svg">
<path d="M10.8765 12.4765C11.9562 11.962 12.5198 11.1835 12.5198 9.97178C12.5198 7.58217 10.734 7 8.67315 7H3V18.9954H8.83272C11.0191 18.9954 13.0731 17.9496 13.0731 15.5126C13.0731 14.0064 12.3568 12.8928 10.8765 12.4765ZM5.64475 9.04776H8.12654C9.08056 9.04776 9.93951 9.31515 9.93951 10.4186C9.93951 11.4374 9.27068 11.8469 8.32685 11.8469H5.64475V9.04776ZM8.47284 16.9578H5.64475V13.6544H8.52716C9.69167 13.6544 10.4284 14.1384 10.4284 15.367C10.4284 16.5788 9.54907 16.9578 8.47284 16.9578ZM20.6441 8.81082H15.7654V7.62956H20.6441V8.81082ZM22.5556 14.7781C22.5556 12.2091 21.0481 10.0666 18.3151 10.0666C15.6602 10.0666 13.8574 12.0568 13.8574 14.663C13.8574 17.3674 15.5651 19.2222 18.3151 19.2222C20.3963 19.2222 21.7441 18.288 22.3926 16.3012H20.2809C20.0534 17.0425 19.1164 17.4351 18.3898 17.4351C16.9877 17.4351 16.2509 16.616 16.2509 15.2249H22.5352C22.5454 15.0827 22.5556 14.9304 22.5556 14.7781ZM16.2543 13.7221C16.3324 12.5814 17.0929 11.8672 18.2404 11.8672C19.4423 11.8672 20.0466 12.5712 20.1485 13.7221H16.2543Z" fill="white"/>
</svg>
