<svg width="32" height="33" viewBox="0 0 32 33" fill="none" xmlns="http://www.w3.org/2000/svg">
<g clip-path="url(#clip0_6507_2981)">
<path d="M16 6.5335C19.2063 6.5335 19.5859 6.54756 20.8469 6.60381C22.0188 6.65537 22.6516 6.85225 23.0734 7.01631C23.6313 7.23193 24.0344 7.49443 24.4516 7.91162C24.8734 8.3335 25.1313 8.73193 25.3469 9.28975C25.5109 9.71162 25.7078 10.3491 25.7594 11.5163C25.8156 12.7819 25.8297 13.1616 25.8297 16.3632C25.8297 19.5694 25.8156 19.9491 25.7594 21.2101C25.7078 22.3819 25.5109 23.0147 25.3469 23.4366C25.1313 23.9944 24.8687 24.3976 24.4516 24.8147C24.0297 25.2366 23.6313 25.4944 23.0734 25.7101C22.6516 25.8741 22.0141 26.071 20.8469 26.1226C19.5813 26.1788 19.2016 26.1929 16 26.1929C12.7938 26.1929 12.4141 26.1788 11.1531 26.1226C9.98125 26.071 9.34844 25.8741 8.92656 25.7101C8.36875 25.4944 7.96563 25.2319 7.54844 24.8147C7.12656 24.3929 6.86875 23.9944 6.65313 23.4366C6.48906 23.0147 6.29219 22.3772 6.24063 21.2101C6.18438 19.9444 6.17031 19.5647 6.17031 16.3632C6.17031 13.1569 6.18438 12.7772 6.24063 11.5163C6.29219 10.3444 6.48906 9.71162 6.65313 9.28975C6.86875 8.73193 7.13125 8.32881 7.54844 7.91162C7.97031 7.48975 8.36875 7.23193 8.92656 7.01631C9.34844 6.85225 9.98594 6.65537 11.1531 6.60381C12.4141 6.54756 12.7938 6.5335 16 6.5335ZM16 4.37256C12.7422 4.37256 12.3344 4.38662 11.0547 4.44287C9.77969 4.49912 8.90313 4.70537 8.14375 5.00068C7.35156 5.31006 6.68125 5.71787 6.01563 6.38818C5.34531 7.05381 4.9375 7.72412 4.62813 8.51162C4.33281 9.27568 4.12656 10.1476 4.07031 11.4226C4.01406 12.7069 4 13.1147 4 16.3726C4 19.6304 4.01406 20.0382 4.07031 21.3179C4.12656 22.5929 4.33281 23.4694 4.62813 24.2288C4.9375 25.021 5.34531 25.6913 6.01563 26.3569C6.68125 27.0226 7.35156 27.4351 8.13906 27.7397C8.90313 28.0351 9.775 28.2413 11.05 28.2976C12.3297 28.3538 12.7375 28.3679 15.9953 28.3679C19.2531 28.3679 19.6609 28.3538 20.9406 28.2976C22.2156 28.2413 23.0922 28.0351 23.8516 27.7397C24.6391 27.4351 25.3094 27.0226 25.975 26.3569C26.6406 25.6913 27.0531 25.021 27.3578 24.2335C27.6531 23.4694 27.8594 22.5976 27.9156 21.3226C27.9719 20.0429 27.9859 19.6351 27.9859 16.3772C27.9859 13.1194 27.9719 12.7116 27.9156 11.4319C27.8594 10.1569 27.6531 9.28037 27.3578 8.521C27.0625 7.72412 26.6547 7.05381 25.9844 6.38818C25.3188 5.72256 24.6484 5.31006 23.8609 5.00537C23.0969 4.71006 22.225 4.50381 20.95 4.44756C19.6656 4.38662 19.2578 4.37256 16 4.37256Z" fill="white"/>
<path d="M16 10.2085C12.5969 10.2085 9.83594 12.9694 9.83594 16.3726C9.83594 19.7757 12.5969 22.5366 16 22.5366C19.4031 22.5366 22.1641 19.7757 22.1641 16.3726C22.1641 12.9694 19.4031 10.2085 16 10.2085ZM16 20.371C13.7922 20.371 12.0016 18.5804 12.0016 16.3726C12.0016 14.1647 13.7922 12.3741 16 12.3741C18.2078 12.3741 19.9984 14.1647 19.9984 16.3726C19.9984 18.5804 18.2078 20.371 16 20.371Z" fill="white"/>
<path d="M23.8469 9.96494C23.8469 10.7618 23.2 11.404 22.4078 11.404C21.6109 11.404 20.9688 10.7571 20.9688 9.96494C20.9688 9.16807 21.6156 8.52588 22.4078 8.52588C23.2 8.52588 23.8469 9.17275 23.8469 9.96494Z" fill="white"/>
</g>
<defs>
<clipPath id="clip0_6507_2981">
<rect width="24" height="24" fill="white" transform="translate(4 4.37256)"/>
</clipPath>
</defs>
</svg>
