<svg width="25" height="25" viewBox="0 0 25 25" fill="none" xmlns="http://www.w3.org/2000/svg">
  <path d="M8.83306 22.977C8.75611 22.977 8.67901 22.9689 8.60341 22.9528C8.31796 22.8925 8.07316 22.7263 7.91446 22.4844C7.75576 22.2426 7.70206 21.9543 7.76311 21.6726C8.90701 16.4004 10.2761 10.0551 10.5846 8.557C10.656 8.0845 10.722 7.83355 11.0055 7.58755C11.2055 7.4143 11.462 7.3189 11.7281 7.3189C11.9063 7.3189 12.0837 7.36255 12.2412 7.44505C12.6411 7.6549 12.8703 8.0974 12.8115 8.5465C12.8087 8.56765 12.803 8.6119 12.7361 8.93845C12.4775 10.5061 12.2648 13.8417 13.3281 15.1489C13.6076 15.4926 13.947 15.6457 14.4288 15.6457C17.5241 15.6457 19.469 12.7878 19.5612 10.0248C19.6467 7.46185 18.071 4.61485 13.392 4.3108C13.1456 4.2925 12.9042 4.28335 12.6717 4.28335C8.44726 4.28335 7.12846 7.294 6.82501 8.21665C6.26851 9.9088 6.56056 11.7384 7.47631 12.2952C7.72501 12.4464 7.89901 12.684 7.96651 12.9642C8.03401 13.2445 7.98676 13.5339 7.83346 13.7791C7.63276 14.1001 7.28446 14.2917 6.90196 14.2917C6.69991 14.2917 6.50176 14.2362 6.32911 14.1312C4.51906 13.0308 3.85276 10.2634 4.74496 7.55095C5.60731 4.92895 8.14546 2.12695 12.6822 2.12695C12.9642 2.12695 13.2549 2.1379 13.5459 2.1595C19.7802 2.56465 21.8607 6.688 21.747 10.0959C21.6207 13.8843 18.8489 17.8029 14.429 17.8029C13.5948 17.8029 12.1644 17.5414 11.2401 15.94C10.6665 18.5979 10.1072 21.1773 9.90166 22.1241C9.79456 22.6183 9.34516 22.977 8.83306 22.977Z" fill="white" />
</svg>