<svg width="32" height="33" viewBox="0 0 32 33" fill="none" xmlns="http://www.w3.org/2000/svg">
  <path d="M26.9957 4.97488C26.6531 4.99088 26.3303 5.09128 26.0433 5.20368H26.0393C25.7485 5.32008 24.3657 5.90608 22.2657 6.79308C20.1657 7.68408 17.4401 8.83988 14.7343 9.98788C9.33088 12.2795 4.01908 14.5351 4.01908 14.5351L4.08288 14.5111C4.08288 14.5111 3.71628 14.6315 3.33368 14.8963C3.13848 15.0247 2.92328 15.2013 2.73588 15.4783C2.54868 15.7553 2.39708 16.1807 2.45288 16.6181C2.54448 17.3605 3.02268 17.8061 3.36548 18.0509C3.71208 18.2997 4.04288 18.4161 4.04288 18.4161H4.05088L9.03188 20.1057C9.25508 20.8281 10.5501 25.1145 10.8609 26.1019C11.0443 26.6919 11.2235 27.0611 11.4467 27.3421C11.5543 27.4865 11.6819 27.6069 11.8333 27.7033C11.8931 27.7395 11.9569 27.7675 12.0205 27.7915C12.0405 27.8035 12.0603 27.8075 12.0843 27.8115L12.0325 27.7995C12.0485 27.8035 12.0603 27.8155 12.0723 27.8195C12.1121 27.8315 12.1401 27.8355 12.1919 27.8435C12.9809 28.0843 13.6145 27.5907 13.6145 27.5907L13.6503 27.5627L15.9043 25.4955C16.3017 25.1309 16.9015 25.1055 17.3279 25.4351L21.5201 28.6745L21.6317 28.7227C22.6597 29.1763 23.6999 28.9233 24.2497 28.4779C24.8035 28.0283 25.0187 27.4545 25.0187 27.4545L25.0545 27.3621L28.8639 7.70808C28.9715 7.22248 28.9993 6.76888 28.8799 6.32748C28.7603 5.88608 28.4535 5.47268 28.0829 5.25188C27.7089 5.02708 27.3383 4.95888 26.9957 4.97488ZM26.8919 7.08208C26.8879 7.14628 26.8999 7.13828 26.8719 7.26268V7.27468L23.0983 26.7241C23.0823 26.7521 23.0545 26.8123 22.9787 26.8727C22.8991 26.9369 22.8353 26.9771 22.5045 26.8447L18.0051 23.3703C17.1197 22.6867 15.8753 22.7399 15.0507 23.4967L12.8333 25.5323L13.5983 20.6117L19.8499 14.6151C20.4665 14.0237 19.7269 13.0357 18.9933 13.4711C15.2635 15.6851 10.6853 18.5167 10.6853 18.5167L10.6813 18.4967L4.72848 16.4775V16.4735C4.72448 16.4735 4.71648 16.4695 4.71248 16.4695C4.71648 16.4695 4.74428 16.4575 4.74428 16.4575L4.77608 16.4415L4.80788 16.4295C4.80788 16.4295 10.1237 14.1739 15.5271 11.8823C18.2327 10.7345 20.9585 9.57848 23.0545 8.68748C25.1505 7.80048 26.7007 7.15028 26.7883 7.11428C26.8721 7.08208 26.8323 7.08208 26.8919 7.08208Z" fill="white" />
</svg>