<svg width="32" height="33" viewBox="0 0 32 33" fill="none" xmlns="http://www.w3.org/2000/svg">
<path d="M4 28.3725L5.687 22.2095C4.646 20.4055 4.099 18.3605 4.1 16.2635C4.103 9.70755 9.43799 4.37256 15.993 4.37256C19.174 4.37356 22.16 5.61256 24.406 7.86055C26.6509 10.1085 27.8869 13.0965 27.8859 16.2745C27.8829 22.8315 22.548 28.1665 15.993 28.1665C14.003 28.1655 12.042 27.6665 10.305 26.7185L4 28.3725ZM10.597 24.5655C12.273 25.5605 13.873 26.1565 15.989 26.1575C21.437 26.1575 25.875 21.7235 25.878 16.2725C25.88 10.8105 21.463 6.38255 15.997 6.38055C10.545 6.38055 6.11 10.8145 6.108 16.2645C6.107 18.4895 6.75899 20.1555 7.85399 21.8985L6.85499 25.5465L10.597 24.5655ZM21.984 19.1015C21.91 18.9775 21.712 18.9035 21.414 18.7545C21.117 18.6055 19.656 17.8865 19.383 17.7875C19.111 17.6885 18.913 17.6385 18.714 17.9365C18.516 18.2335 17.946 18.9035 17.773 19.1015C17.6 19.2995 17.426 19.3245 17.129 19.1755C16.832 19.0265 15.874 18.7135 14.739 17.7005C13.856 16.9125 13.259 15.9395 13.086 15.6415C12.913 15.3445 13.068 15.1835 13.216 15.0355C13.35 14.9025 13.513 14.6885 13.662 14.5145C13.813 14.3425 13.862 14.2185 13.962 14.0195C14.061 13.8215 14.012 13.6475 13.937 13.4985C13.862 13.3505 13.268 11.8875 13.021 11.2925C12.779 10.7135 12.534 10.7915 12.352 10.7825L11.782 10.7725C11.584 10.7725 11.262 10.8465 10.99 11.1445C10.718 11.4425 9.94999 12.1605 9.94999 13.6235C9.94999 15.0865 11.015 16.4995 11.163 16.6975C11.312 16.8955 13.258 19.8975 16.239 21.1845C16.948 21.4905 17.502 21.6735 17.933 21.8105C18.645 22.0365 19.293 22.0045 19.805 21.9285C20.376 21.8435 21.563 21.2095 21.811 20.5155C22.059 19.8205 22.059 19.2255 21.984 19.1015Z" fill="white"/>
</svg>
