<svg width="90" height="68" fill="none" xmlns="http://www.w3.org/2000/svg"><path opacity=".5" d="M37.302 51.745c0 4.515-1.591 8.398-4.774 11.65C29.522 66.464 25.72 68 21.122 68c-6.365 0-11.317-2.258-14.853-6.773C2.732 56.531.964 51.113.964 44.972c0-9.392 2.74-17.88 8.222-25.466C14.668 11.74 20.946 5.238 28.02 0l9.018 9.211c-1.415 1.626-3.183 3.522-5.305 5.69a38.42 38.42 0 0 0-5.57 6.501c-1.415 2.348-2.122 4.696-2.122 7.044s1.061 4.425 3.183 6.231c2.299 1.806 4.51 3.974 6.631 6.502 2.299 2.529 3.448 6.05 3.448 10.566Zm51.723 0c0 4.515-1.592 8.398-4.775 11.65C81.245 66.464 77.442 68 72.846 68c-6.366 0-11.317-2.258-14.854-6.773-3.536-4.696-5.305-10.114-5.305-16.255 0-9.392 2.741-17.88 8.223-25.466C66.391 11.74 72.669 5.238 79.741 0l9.019 9.211c-1.415 1.626-3.183 3.522-5.305 5.69a38.424 38.424 0 0 0-5.57 6.501c-1.415 2.348-2.122 4.696-2.122 7.044s1.06 4.425 3.183 6.231c2.298 1.806 4.509 3.974 6.63 6.502 2.3 2.529 3.449 6.05 3.449 10.566Z" fill="#D3965F"/></svg>