<svg width="48" height="48" fill="none" xmlns="http://www.w3.org/2000/svg"><path d="M34.402 8.4h-20.8a3.057 3.057 0 0 0-2.429 1.315l-5.2 7.2a3 3 0 0 0 .171 3.685l15.6 17.972a2.858 2.858 0 0 0 4.515 0l15.6-17.972a3 3 0 0 0 .171-3.685l-5.2-7.2A3.057 3.057 0 0 0 34.402 8.4v0Z" stroke="#D3965F" stroke-width="2" stroke-linecap="round" stroke-linejoin="round"/><path d="m22.514 8.371-6.971 10.8L24 39.6m1.571-31.229 6.943 10.8L24 39.6M5.488 19.172h37.029" stroke="#D3965F" stroke-width="2" stroke-linecap="round" stroke-linejoin="round"/></svg>