<svg width="48" height="48" fill="none" xmlns="http://www.w3.org/2000/svg"><path fill-rule="evenodd" clip-rule="evenodd" d="M18.171 6.334a.5.5 0 0 0 0 1h5.9V9.95c0 .082.02.159.054.227-8.63.23-15.555 7.114-15.555 15.573 0 8.604 7.164 15.579 16 15.579 8.837 0 16-6.975 16-15.58 0-8.458-6.923-15.342-15.553-15.572a.498.498 0 0 0 .054-.227V7.334h5.901a.5.5 0 0 0 0-1H18.17Zm6.4 33.995c8.309 0 15-6.552 15-14.58 0-8.026-6.691-14.578-15-14.578-8.31 0-15 6.552-15 14.579 0 8.027 6.69 14.579 15 14.579Zm0-24.427a.5.5 0 0 1 .5.5v9.921l5.604-4.093a.5.5 0 1 1 .59.808l-6.4 4.674a.5.5 0 0 1-.795-.404V16.402a.5.5 0 0 1 .5-.5Z" fill="#D3965F"/><path d="M24.071 7.334h.75a.75.75 0 0 0-.75-.75v.75Zm.054 2.843.02.75a.75.75 0 0 0 .649-1.091l-.669.34Zm.892 0-.668-.341a.75.75 0 0 0 .648 1.09l.02-.75Zm.054-2.843v-.75a.75.75 0 0 0-.75.75h.75Zm0 18.99h-.75a.75.75 0 0 0 1.192.605l-.443-.606Zm5.604-4.094-.442-.605.442.605Zm.7.11-.607.441.606-.442Zm-.11.698-.442-.606.442.606Zm-6.4 4.674.443.605-.443-.605ZM18.421 6.834a.25.25 0 0 1-.25.25v-1.5c-.69 0-1.25.56-1.25 1.25h1.5Zm-.25-.25a.25.25 0 0 1 .25.25h-1.5c0 .69.56 1.25 1.25 1.25v-1.5Zm5.9 0h-5.9v1.5h5.9v-1.5Zm.75 3.366V7.334h-1.5V9.95h1.5Zm-.027-.114a.252.252 0 0 1 .027.114h-1.5c0 .203.05.397.136.568l1.337-.682ZM9.32 25.75c0-8.034 6.582-14.604 14.825-14.823l-.04-1.5C15.089 9.667 7.82 16.865 7.82 25.75h1.5Zm15.25 14.829c-8.441 0-15.25-6.658-15.25-14.83h-1.5c0 9.038 7.518 16.33 16.75 16.33v-1.5Zm15.25-14.83c0 8.172-6.808 14.83-15.25 14.83v1.5c9.232 0 16.75-7.292 16.75-16.33h-1.5ZM24.997 10.928c8.243.22 14.823 6.79 14.823 14.823h1.5c0-8.884-7.266-16.082-16.283-16.323l-.04 1.5Zm-.676-.977c0-.04.01-.08.028-.114l1.336.682c.087-.171.136-.365.136-.568h-1.5Zm0-2.616V9.95h1.5V7.334h-1.5Zm.755-.75h-.005v1.5h.005v-1.5Zm.01 0h-.01v1.5h.01v-1.5Zm.01 0h-.01v1.5h.01v-1.5Zm.01 0h-.01v1.5h.01v-1.5Zm.011 0h-.01v1.5h.01v-1.5Zm.01 0h-.01v1.5h.01v-1.5Zm.01 0h-.01v1.5h.01v-1.5Zm.011 0h-.01v1.5h.01v-1.5Zm.01 0h-.01v1.5h.01v-1.5Zm.01 0h-.01v1.5h.01v-1.5Zm.011 0h-.01v1.5h.01v-1.5Zm.01 0h-.01v1.5h.01v-1.5Zm.012 0h-.011v1.5h.01v-1.5Zm.01 0h-.01v1.5h.01v-1.5Zm.01 0h-.01v1.5h.01v-1.5Zm.011 0h-.01v1.5h.01v-1.5Zm.011 0h-.01v1.5h.01v-1.5Zm.01 0h-.01v1.5h.01v-1.5Zm.012 0h-.011v1.5h.01v-1.5Zm.01 0h-.01v1.5h.01v-1.5Zm.011 0h-.01v1.5h.01v-1.5Zm.011 0h-.01v1.5h.01v-1.5Zm.011 0h-.01v1.5h.01v-1.5Zm.011 0h-.01v1.5h.01v-1.5Zm.011 0h-.01v1.5h.01v-1.5Zm.011 0h-.01v1.5h.01v-1.5Zm.011 0h-.01v1.5h.01v-1.5Zm.012 0h-.012v1.5h.012v-1.5Zm.01 0h-.01v1.5h.01v-1.5Zm.012 0h-.011v1.5h.011v-1.5Zm.011 0h-.011v1.5h.011v-1.5Zm.012 0h-.012v1.5h.012v-1.5Zm.01 0h-.01v1.5h.01v-1.5Zm.012 0h-.011v1.5h.011v-1.5Zm.011 0h-.01v1.5h.01v-1.5Zm.012 0h-.012v1.5h.012v-1.5Zm.011 0h-.011v1.5h.011v-1.5Zm.012 0h-.012v1.5h.012v-1.5Zm.011 0h-.011v1.5h.011v-1.5Zm.012 0h-.012v1.5h.012v-1.5Zm.012 0H25.5v1.5h.012v-1.5Zm.011 0h-.011v1.5h.011v-1.5Zm.012 0h-.012v1.5h.012v-1.5Zm.012 0h-.012v1.5h.012v-1.5Zm.011 0h-.011v1.5h.011v-1.5Zm.012 0h-.012v1.5h.012v-1.5Zm.012 0h-.012v1.5h.012v-1.5Zm.011 0h-.011v1.5h.011v-1.5Zm.012 0h-.012v1.5h.012v-1.5Zm.012 0h-.012v1.5h.012v-1.5Zm.012 0h-.012v1.5h.012v-1.5Zm.012 0h-.012v1.5h.012v-1.5Zm.012 0h-.012v1.5h.012v-1.5Zm.012 0h-.012v1.5h.012v-1.5Zm.012 0h-.012v1.5h.012v-1.5Zm.012 0h-.012v1.5h.012v-1.5Zm.012 0h-.012v1.5h.012v-1.5Zm.012 0h-.012v1.5h.012v-1.5Zm.012 0h-.012v1.5h.012v-1.5Zm.013 0h-.012v1.5h.012v-1.5Zm.012 0h-.012v1.5h.012v-1.5Zm.012 0h-.012v1.5h.012v-1.5Zm.012 0h-.012v1.5h.012v-1.5Zm.013 0h-.013v1.5h.013v-1.5Zm.012 0h-.012v1.5h.012v-1.5Zm.012 0H25.8v1.5h.012v-1.5Zm.013 0h-.013v1.5h.013v-1.5Zm.012 0h-.012v1.5h.012v-1.5Zm.013 0h-.013v1.5h.013v-1.5Zm.012 0h-.012v1.5h.012v-1.5Zm.013 0h-.013v1.5h.013v-1.5Zm.012 0h-.012v1.5h.012v-1.5Zm.013 0h-.013v1.5h.013v-1.5Zm.012 0H25.9v1.5h.012v-1.5Zm.013 0h-.013v1.5h.013v-1.5Zm.012 0h-.012v1.5h.012v-1.5Zm.013 0h-.013v1.5h.013v-1.5Zm.013 0h-.013v1.5h.013v-1.5Zm.012 0h-.012v1.5h.012v-1.5Zm.013 0h-.012v1.5h.012v-1.5Zm.013 0h-.013v1.5H26v-1.5Zm.013 0H26v1.5h.013v-1.5Zm.013 0h-.013v1.5h.013v-1.5Zm.012 0h-.012v1.5h.012v-1.5Zm.013 0h-.012v1.5h.012v-1.5Zm.013 0h-.013v1.5h.013v-1.5Zm.013 0h-.013v1.5h.013v-1.5Zm.013 0h-.013v1.5h.013v-1.5Zm.013 0h-.013v1.5h.013v-1.5Zm.013 0h-.013v1.5h.013v-1.5Zm.013 0h-.013v1.5h.013v-1.5Zm.013 0h-.013v1.5h.013v-1.5Zm.013 0h-.013v1.5h.013v-1.5Zm.013 0h-.013v1.5h.013v-1.5Zm.013 0h-.013v1.5h.013v-1.5Zm.014 0h-.014v1.5h.014v-1.5Zm.013 0h-.013v1.5h.013v-1.5Zm.013 0h-.013v1.5h.013v-1.5Zm.013 0h-.013v1.5h.013v-1.5Zm.013 0h-.013v1.5h.013v-1.5Zm.014 0h-.014v1.5h.014v-1.5Zm.013 0h-.014v1.5h.014v-1.5Zm.013 0h-.013v1.5h.013v-1.5Zm.013 0h-.013v1.5h.013v-1.5Zm.014 0H26.3v1.5h.014v-1.5Zm.013 0h-.013v1.5h.013v-1.5Zm.013 0h-.013v1.5h.013v-1.5Zm.014 0h-.014v1.5h.014v-1.5Zm.013 0h-.013v1.5h.013v-1.5Zm.014 0h-.014v1.5h.014v-1.5Zm.013 0h-.013v1.5h.013v-1.5Zm.014 0h-.014v1.5h.014v-1.5Zm.013 0h-.013v1.5h.013v-1.5Zm.014 0h-.014v1.5h.014v-1.5Zm.013 0h-.013v1.5h.013v-1.5Zm.014 0h-.014v1.5h.014v-1.5Zm.013 0h-.013v1.5h.013v-1.5Zm.014 0h-.014v1.5h.014v-1.5Zm.014 0h-.014v1.5h.014v-1.5Zm.013 0h-.013v1.5h.013v-1.5Zm.014 0h-.014v1.5h.014v-1.5Zm.014 0h-.014v1.5h.014v-1.5Zm.013 0h-.013v1.5h.013v-1.5Zm.014 0h-.014v1.5h.014v-1.5Zm.014 0h-.014v1.5h.014v-1.5Zm.013 0h-.013v1.5h.013v-1.5Zm.014 0h-.014v1.5h.014v-1.5Zm.014 0h-.014v1.5h.014v-1.5Zm.014 0h-.014v1.5h.014v-1.5Zm.014 0h-.014v1.5h.014v-1.5Zm.013 0h-.014v1.5h.014v-1.5Zm.014 0h-.014v1.5h.014v-1.5Zm.014 0h-.014v1.5h.014v-1.5Zm.014 0h-.014v1.5h.014v-1.5Zm.014 0h-.014v1.5h.014v-1.5Zm.014 0h-.014v1.5h.014v-1.5Zm.014 0h-.014v1.5h.014v-1.5Zm.014 0h-.014v1.5h.014v-1.5Zm.014 0h-.014v1.5h.014v-1.5Zm.014 0h-.014v1.5h.014v-1.5Zm.014 0h-.014v1.5h.014v-1.5Zm.014 0h-.015v1.5h.014v-1.5Zm.013 0h-.014v1.5h.014v-1.5Zm.015 0h-.015v1.5h.015v-1.5Zm.014 0h-.014v1.5h.014v-1.5Zm.014 0h-.014v1.5h.014v-1.5Zm.014 0h-.014v1.5h.014v-1.5Zm.014 0h-.014v1.5h.014v-1.5Zm.014 0h-.014v1.5h.014v-1.5Zm.014 0h-.014v1.5h.014v-1.5Zm.014 0h-.014v1.5h.014v-1.5Zm.014 0h-.014v1.5h.014v-1.5Zm.014 0h-.014v1.5h.014v-1.5Zm.015 0h-.015v1.5h.015v-1.5Zm.014 0h-.014v1.5h.014v-1.5Zm.014 0h-.014v1.5h.014v-1.5Zm.014 0h-.014v1.5h.014v-1.5Zm.014 0h-.014v1.5h.014v-1.5Zm.015 0h-.015v1.5h.015v-1.5Zm.014 0h-.014v1.5h.014v-1.5Zm.014 0h-.014v1.5h.014v-1.5Zm.014 0h-.014v1.5h.014v-1.5Zm.014 0h-.014v1.5h.014v-1.5Zm.015 0h-.015v1.5h.015v-1.5Zm.014 0h-.014v1.5h.014v-1.5Zm.014 0h-.014v1.5h.014v-1.5Zm.015 0h-.015v1.5h.015v-1.5Zm.014 0h-.014v1.5h.014v-1.5Zm.014 0h-.014v1.5h.014v-1.5Zm.015 0h-.015v1.5h.015v-1.5Zm.014 0h-.014v1.5h.014v-1.5Zm.014 0h-.014v1.5h.014v-1.5Zm.015 0h-.015v1.5h.015v-1.5Zm.014 0h-.014v1.5h.014v-1.5Zm.015 0h-.015v1.5h.015v-1.5Zm.014 0h-.014v1.5h.014v-1.5Zm.014 0h-.014v1.5h.014v-1.5Zm.015 0h-.015v1.5h.015v-1.5Zm.014 0h-.014v1.5h.014v-1.5Zm.014 0h-.014v1.5h.014v-1.5Zm.015 0h-.015v1.5h.015v-1.5Zm.014 0h-.014v1.5h.014v-1.5Zm.015 0h-.015v1.5h.015v-1.5Zm.014 0h-.014v1.5h.014v-1.5Zm.015 0h-.015v1.5h.015v-1.5Zm.014 0h-.014v1.5h.014v-1.5Zm.015 0h-.015v1.5h.015v-1.5Zm.014 0h-.014v1.5h.014v-1.5Zm.014 0h-.014v1.5h.014v-1.5Zm.015 0h-.015v1.5h.015v-1.5Zm.014 0h-.014v1.5h.014v-1.5Zm.015 0h-.015v1.5h.015v-1.5Zm.014 0h-.014v1.5h.014v-1.5Zm.015 0h-.015v1.5h.015v-1.5Zm.014 0h-.014v1.5h.014v-1.5Zm.015 0h-.015v1.5h.015v-1.5Zm.015 0h-.015v1.5h.015v-1.5Zm.014 0h-.014v1.5h.014v-1.5Zm.015 0h-.015v1.5h.015v-1.5Zm.014 0h-.014v1.5h.014v-1.5Zm.015 0h-.015v1.5h.015v-1.5Zm.014 0h-.014v1.5h.014v-1.5Zm.015 0h-.015v1.5h.015v-1.5Zm.014 0h-.014v1.5h.014v-1.5Zm.015 0h-.015v1.5h.015v-1.5Zm.014 0h-.014v1.5h.014v-1.5Zm.015 0h-.015v1.5h.015v-1.5Zm.014 0h-.014v1.5h.014v-1.5Zm.015 0h-.015v1.5h.015v-1.5Zm.015 0h-.015v1.5h.015v-1.5Zm.014 0h-.014v1.5h.014v-1.5Zm.015 0h-.015v1.5h.015v-1.5Zm.014 0h-.014v1.5h.014v-1.5Zm.015 0h-.015v1.5h.015v-1.5Zm.014 0h-.014v1.5h.014v-1.5Zm.015 0h-.015v1.5h.015v-1.5Zm.014 0h-.014v1.5h.014v-1.5Zm.015 0h-.015v1.5h.015v-1.5Zm.015 0h-.015v1.5h.015v-1.5Zm.014 0h-.014v1.5h.014v-1.5Zm.015 0h-.015v1.5h.015v-1.5Zm.014 0h-.014v1.5h.014v-1.5Zm.015 0h-.015v1.5h.015v-1.5Zm.014 0h-.014v1.5H28v-1.5Zm.015 0H28v1.5h.015v-1.5Zm.015 0h-.015v1.5h.015v-1.5Zm.014 0h-.014v1.5h.014v-1.5Zm.015 0h-.015v1.5h.015v-1.5Zm.014 0h-.014v1.5h.014v-1.5Zm.015 0h-.015v1.5h.015v-1.5Zm.014 0h-.014v1.5h.014v-1.5Zm.015 0h-.015v1.5h.015v-1.5Zm.014 0h-.014v1.5h.014v-1.5Zm.015 0h-.015v1.5h.015v-1.5Zm.015 0h-.015v1.5h.015v-1.5Zm.014 0h-.014v1.5h.014v-1.5Zm.015 0h-.015v1.5h.015v-1.5Zm.014 0h-.014v1.5h.014v-1.5Zm.015 0h-.015v1.5h.015v-1.5Zm.014 0h-.014v1.5h.014v-1.5Zm.015 0h-.015v1.5h.015v-1.5Zm.014 0h-.014v1.5h.014v-1.5Zm.015 0h-.015v1.5h.015v-1.5Zm.014 0h-.014v1.5h.014v-1.5Zm.015 0h-.015v1.5h.015v-1.5Zm.014 0h-.014v1.5h.014v-1.5Zm.015 0h-.015v1.5h.015v-1.5Zm.014 0h-.014v1.5h.014v-1.5Zm.015 0h-.015v1.5h.015v-1.5Zm.014 0h-.014v1.5h.014v-1.5Zm.015 0h-.015v1.5h.015v-1.5Zm.014 0h-.014v1.5h.014v-1.5Zm.015 0h-.015v1.5h.015v-1.5Zm.014 0h-.014v1.5h.014v-1.5Zm.015 0h-.015v1.5h.015v-1.5Zm.014 0h-.014v1.5h.014v-1.5Zm.015 0h-.015v1.5h.015v-1.5Zm.014 0h-.014v1.5h.014v-1.5Zm.015 0h-.015v1.5h.015v-1.5Zm.014 0h-.014v1.5h.014v-1.5Zm.014 0h-.014v1.5h.014v-1.5Zm.015 0h-.015v1.5h.015v-1.5Zm.014 0h-.014v1.5h.014v-1.5Zm.015 0h-.015v1.5h.015v-1.5Zm.014 0h-.014v1.5h.014v-1.5Zm.014 0h-.014v1.5h.014v-1.5Zm.015 0h-.015v1.5h.015v-1.5Zm.014 0h-.014v1.5h.014v-1.5Zm.014 0h-.014v1.5h.014v-1.5Zm.015 0h-.015v1.5h.015v-1.5Zm.014 0h-.014v1.5h.014v-1.5Zm.014 0h-.014v1.5h.014v-1.5Zm.015 0h-.015v1.5h.015v-1.5Zm.014 0h-.014v1.5h.014v-1.5Zm.014 0h-.014v1.5h.014v-1.5Zm.015 0h-.015v1.5h.015v-1.5Zm.014 0h-.014v1.5h.014v-1.5Zm.014 0h-.014v1.5h.014v-1.5Zm.014 0h-.014v1.5h.014v-1.5Zm.014 0h-.014v1.5h.014v-1.5Zm.015 0h-.015v1.5h.015v-1.5Zm.014 0h-.014v1.5h.014v-1.5Zm.014 0h-.014v1.5h.014v-1.5Zm.014 0h-.014v1.5h.014v-1.5Zm.015 0h-.015v1.5h.015v-1.5Zm.014 0h-.014v1.5h.014v-1.5Zm.014 0h-.014v1.5h.014v-1.5Zm.014 0h-.014v1.5h.014v-1.5Zm.014 0h-.014v1.5h.014v-1.5Zm.014 0h-.014v1.5h.014v-1.5Zm.014 0h-.014v1.5h.014v-1.5Zm.014 0h-.014v1.5h.014v-1.5Zm.014 0h-.014v1.5h.014v-1.5Zm.015 0h-.015v1.5h.015v-1.5Zm.014 0h-.014v1.5h.014v-1.5Zm.014 0h-.015v1.5h.015v-1.5Zm.014 0h-.014v1.5h.014v-1.5Zm.014 0h-.014v1.5h.014v-1.5Zm.014 0h-.014v1.5h.014v-1.5Zm.014 0h-.014v1.5h.014v-1.5Zm.014 0h-.015v1.5h.014v-1.5Zm.013 0h-.014v1.5h.014v-1.5Zm.014 0h-.014v1.5h.014v-1.5Zm.014 0h-.014v1.5h.014v-1.5Zm.014 0h-.014v1.5h.014v-1.5Zm.014 0h-.014v1.5h.014v-1.5Zm.014 0h-.014v1.5h.014v-1.5Zm.014 0h-.014v1.5h.014v-1.5Zm.014 0h-.014v1.5h.014v-1.5Zm.013 0h-.013v1.5h.013v-1.5Zm.014 0h-.014v1.5h.014v-1.5Zm.014 0h-.014v1.5h.014v-1.5Zm.014 0h-.014v1.5h.014v-1.5Zm.014 0h-.014v1.5h.014v-1.5Zm.013 0h-.014v1.5h.014v-1.5Zm.014 0h-.014v1.5h.014v-1.5Zm.014 0h-.014v1.5h.014v-1.5Zm.013 0h-.013v1.5h.013v-1.5Zm.014 0h-.014v1.5h.014v-1.5Zm.014 0h-.014v1.5h.014v-1.5Zm.013 0h-.013v1.5h.013v-1.5Zm.014 0h-.014v1.5h.014v-1.5Zm.014 0h-.014v1.5h.014v-1.5Zm.013 0h-.014v1.5h.014v-1.5Zm.014 0h-.014v1.5h.014v-1.5Zm.013 0h-.013v1.5h.013v-1.5Zm.014 0h-.014v1.5h.014v-1.5Zm.013 0h-.013v1.5h.013v-1.5Zm.014 0h-.014v1.5h.014v-1.5Zm.013 0h-.013v1.5h.013v-1.5Zm.013 0h-.013v1.5h.013v-1.5Zm.014 0h-.014v1.5h.014v-1.5Zm.013 0h-.013v1.5h.013v-1.5Zm.014 0h-.014v1.5h.014v-1.5Zm.013 0h-.013v1.5h.013v-1.5Zm.013 0h-.013v1.5h.013v-1.5Zm.014 0h-.014v1.5h.014v-1.5Zm.013 0h-.013v1.5h.013v-1.5Zm.013 0h-.013v1.5h.013v-1.5Zm.013 0h-.013v1.5h.013v-1.5Zm.014 0h-.014v1.5h.014v-1.5Zm.013 0h-.014v1.5h.014v-1.5Zm.013 0h-.013v1.5h.013v-1.5Zm.013 0h-.013v1.5h.013v-1.5Zm.013 0h-.013v1.5h.013v-1.5Zm.013 0h-.013v1.5h.013v-1.5Zm.013 0h-.013v1.5h.013v-1.5Zm.013 0h-.013v1.5h.013v-1.5Zm.013 0h-.013v1.5h.013v-1.5Zm.013 0h-.013v1.5h.013v-1.5Zm.013 0h-.013v1.5h.013v-1.5Zm.013 0h-.013v1.5h.013v-1.5Zm.013 0h-.013v1.5h.013v-1.5Zm.013 0h-.013v1.5h.013v-1.5Zm.013 0h-.013v1.5h.013v-1.5Zm.013 0h-.013v1.5h.013v-1.5Zm.013 0h-.013v1.5h.013v-1.5Zm.012 0h-.012v1.5h.012v-1.5Zm.013 0h-.012v1.5h.012v-1.5Zm.013 0h-.013v1.5h.013v-1.5Zm.013 0h-.013v1.5h.013v-1.5Zm.013 0h-.013v1.5h.013v-1.5Zm.012 0h-.012v1.5h.012v-1.5Zm.013 0h-.013v1.5h.013v-1.5Zm.012 0h-.012v1.5h.012v-1.5Zm.013 0h-.013v1.5h.013v-1.5Zm.012 0h-.012v1.5h.012v-1.5Zm.013 0h-.012v1.5h.012v-1.5Zm.013 0h-.013v1.5h.013v-1.5Zm.012 0h-.012v1.5h.012v-1.5Zm.013 0h-.013v1.5h.013v-1.5Zm.012 0h-.012v1.5h.012v-1.5Zm.012 0h-.012v1.5h.012v-1.5Zm.013 0h-.013v1.5h.013v-1.5Zm.012 0h-.012v1.5h.012v-1.5Zm.012 0h-.012v1.5h.012v-1.5Zm.013 0h-.013v1.5h.013v-1.5Zm.012 0h-.012v1.5h.012v-1.5Zm.012 0h-.012v1.5h.012v-1.5Zm.012 0h-.012v1.5h.012v-1.5Zm.012 0h-.012v1.5h.012v-1.5Zm.013 0h-.013v1.5h.013v-1.5Zm.012 0h-.012v1.5h.012v-1.5Zm.012 0h-.012v1.5h.012v-1.5Zm.012 0h-.012v1.5h.012v-1.5Zm.012 0h-.012v1.5h.012v-1.5Zm.012 0h-.012v1.5h.012v-1.5Zm.012 0h-.012v1.5h.012v-1.5Zm.012 0h-.012v1.5h.012v-1.5Zm.012 0h-.012v1.5h.012v-1.5Zm.011 0h-.011v1.5h.011v-1.5Zm.012 0h-.012v1.5h.012v-1.5Zm.012 0h-.012v1.5h.012v-1.5Zm.012 0H30.3v1.5h.012v-1.5Zm.012 0h-.012v1.5h.012v-1.5Zm.011 0h-.011v1.5h.011v-1.5Zm.012 0h-.012v1.5h.012v-1.5Zm.012 0h-.012v1.5h.012v-1.5Zm.011 0h-.011v1.5h.011v-1.5Zm.012 0h-.012v1.5h.012v-1.5Zm.011 0h-.011v1.5h.011v-1.5Zm.012 0h-.012v1.5h.012v-1.5Zm.011 0h-.011v1.5h.011v-1.5Zm.012 0h-.012v1.5h.012v-1.5Zm.01 0h-.01v1.5h.01v-1.5Zm.012 0h-.011v1.5h.011v-1.5Zm.012 0h-.012v1.5h.012v-1.5Zm.01 0h-.01v1.5h.01v-1.5Zm.012 0h-.011v1.5h.011v-1.5Zm.011 0h-.01v1.5h.01v-1.5Zm.012 0h-.012v1.5h.012v-1.5Zm.01 0h-.01v1.5h.01v-1.5Zm.012 0h-.011v1.5h.01v-1.5Zm.01 0h-.01v1.5h.01v-1.5Zm.012 0h-.011v1.5h.01v-1.5Zm.01 0h-.01v1.5h.01v-1.5Zm.012 0h-.011v1.5h.01v-1.5Zm.01 0h-.01v1.5h.01v-1.5Zm.012 0h-.011v1.5h.01v-1.5Zm.01 0h-.01v1.5h.01v-1.5Zm.011 0h-.01v1.5h.01v-1.5Zm.011 0h-.01v1.5h.01v-1.5Zm.01 0h-.01v1.5h.01v-1.5Zm.012 0h-.011v1.5h.01v-1.5Zm.01 0h-.01v1.5h.01v-1.5Zm.01 0h-.01v1.5h.01v-1.5Zm.011 0h-.01v1.5h.01v-1.5Zm.011 0h-.01v1.5h.01v-1.5Zm.01 0h-.01v1.5h.01v-1.5Zm.011 0h-.01v1.5h.01v-1.5Zm.01 0h-.01v1.5h.01v-1.5Zm.01 0h-.01v1.5h.01v-1.5Zm.011 0h-.01v1.5h.01v-1.5Zm.01 0h-.01v1.5h.01v-1.5Zm.01 0h-.01v1.5h.01v-1.5Zm.011 0h-.01v1.5h.01v-1.5Zm.01 0h-.01v1.5h.01v-1.5Zm.01 0h-.01v1.5h.01v-1.5Zm.01 0h-.01v1.5h.01v-1.5Zm.01 0h-.01v1.5h.01v-1.5Zm.01 0h-.01v1.5h.01v-1.5Zm.01 0h-.01v1.5h.01v-1.5Zm.01 0h-.01v1.5h.01v-1.5Zm.01 0h-.01v1.5h.01v-1.5Zm.01 0h-.01v1.5h.01v-1.5Zm.01 0h-.01v1.5h.01v-1.5Zm.01 0h-.01v1.5h.01v-1.5Zm.01 0h-.01v1.5h.01v-1.5Zm.01 0h-.01v1.5h.01v-1.5Zm.01 0h-.01v1.5h.01v-1.5Zm.009 0h-.01v1.5h.01v-1.5Zm.01 0h-.01v1.5h.01v-1.5Zm.009 0h-.01v1.5h.01v-1.5Zm.01 0h-.01v1.5h.01v-1.5Zm.009 0h-.01v1.5h.01v-1.5Zm.01 0h-.01v1.5h.01v-1.5Zm-.25.25a.25.25 0 0 1 .25-.25v1.5c.69 0 1.25-.56 1.25-1.25h-1.5Zm.25.25a.25.25 0 0 1-.25-.25h1.5c0-.69-.56-1.25-1.25-1.25v1.5Zm-.01 0h.01v-1.5h-.01v1.5Zm-.01 0h.01v-1.5h-.01v1.5Zm-.01 0h.01v-1.5h-.01v1.5Zm-.009 0h.01v-1.5h-.01v1.5Zm-.01 0h.01v-1.5h-.01v1.5Zm-.009 0h.01v-1.5h-.01v1.5Zm-.01 0h.01v-1.5h-.01v1.5Zm-.01 0h.01v-1.5h-.01v1.5Zm-.009 0h.01v-1.5h-.01v1.5Zm-.01 0h.01v-1.5h-.01v1.5Zm-.01 0h.01v-1.5h-.01v1.5Zm-.01 0h.01v-1.5h-.01v1.5Zm-.01 0h.01v-1.5h-.01v1.5Zm-.01 0h.01v-1.5h-.01v1.5Zm-.01 0h.01v-1.5h-.01v1.5Zm-.01 0h.01v-1.5h-.01v1.5Zm-.01 0h.01v-1.5h-.01v1.5Zm-.01 0h.01v-1.5h-.01v1.5Zm-.01 0h.01v-1.5h-.01v1.5Zm-.01 0h.01v-1.5h-.01v1.5Zm-.01 0h.01v-1.5h-.01v1.5Zm-.01 0h.01v-1.5h-.01v1.5Zm-.01 0h.01v-1.5h-.01v1.5Zm-.011 0h.01v-1.5h-.01v1.5Zm-.01 0h.01v-1.5h-.01v1.5Zm-.011 0h.01v-1.5h-.01v1.5Zm-.01 0h.01v-1.5h-.01v1.5Zm-.01 0h.01v-1.5h-.01v1.5Zm-.012 0h.011v-1.5h-.01v1.5Zm-.01 0h.01v-1.5h-.01v1.5Zm-.01 0h.01v-1.5h-.01v1.5Zm-.011 0h.01v-1.5h-.01v1.5Zm-.011 0h.01v-1.5h-.01v1.5Zm-.01 0h.01v-1.5h-.01v1.5Zm-.012 0h.011v-1.5h-.01v1.5Zm-.01 0h.01v-1.5h-.01v1.5Zm-.011 0h.01v-1.5h-.01v1.5Zm-.011 0h.01v-1.5h-.01v1.5Zm-.011 0h.01v-1.5h-.01v1.5Zm-.011 0h.01v-1.5h-.01v1.5Zm-.011 0h.01v-1.5h-.01v1.5Zm-.011 0h.01v-1.5h-.01v1.5Zm-.011 0h.01v-1.5h-.01v1.5Zm-.011 0h.01v-1.5h-.01v1.5Zm-.011 0h.01v-1.5h-.01v1.5Zm-.012 0h.012v-1.5h-.012v1.5Zm-.01 0h.01v-1.5h-.01v1.5Zm-.012 0h.011v-1.5h-.011v1.5Zm-.011 0h.01v-1.5h-.01v1.5Zm-.012 0h.012v-1.5h-.012v1.5Zm-.011 0h.011v-1.5h-.011v1.5Zm-.011 0h.01v-1.5h-.01v1.5Zm-.012 0h.012v-1.5h-.012v1.5Zm-.011 0h.011v-1.5h-.011v1.5Zm-.012 0h.012v-1.5h-.012v1.5Zm-.011 0h.011v-1.5h-.011v1.5Zm-.012 0h.012v-1.5h-.012v1.5Zm-.011 0h.011v-1.5h-.011v1.5Zm-.012 0h.012v-1.5h-.012v1.5Zm-.012 0h.012v-1.5h-.012v1.5Zm-.011 0h.011v-1.5h-.011v1.5Zm-.012 0h.012v-1.5h-.012v1.5Zm-.012 0h.012v-1.5H30.3v1.5Zm-.012 0h.012v-1.5h-.012v1.5Zm-.012 0h.012v-1.5h-.012v1.5Zm-.011 0h.011v-1.5h-.011v1.5Zm-.012 0h.012v-1.5h-.012v1.5Zm-.012 0h.012v-1.5h-.012v1.5Zm-.012 0h.012v-1.5h-.012v1.5Zm-.012 0h.012v-1.5h-.012v1.5Zm-.012 0h.012v-1.5h-.012v1.5Zm-.012 0h.012v-1.5h-.012v1.5Zm-.012 0h.012v-1.5h-.012v1.5Zm-.012 0h.012v-1.5h-.012v1.5Zm-.013 0h.013v-1.5h-.013v1.5Zm-.012 0h.012v-1.5h-.012v1.5Zm-.012 0h.012v-1.5h-.012v1.5Zm-.012 0h.012v-1.5h-.012v1.5Zm-.012 0h.012v-1.5h-.012v1.5Zm-.013 0h.013v-1.5h-.013v1.5Zm-.012 0h.012v-1.5h-.012v1.5Zm-.012 0h.012v-1.5h-.012v1.5Zm-.013 0h.013v-1.5h-.013v1.5Zm-.012 0h.012v-1.5h-.012v1.5Zm-.012 0h.012v-1.5h-.012v1.5Zm-.013 0h.013v-1.5h-.013v1.5Zm-.012 0h.012v-1.5h-.012v1.5Zm-.013 0h.013v-1.5h-.013v1.5Zm-.012 0h.012v-1.5h-.012v1.5Zm-.013 0h.012v-1.5h-.012v1.5Zm-.013 0h.013v-1.5h-.013v1.5Zm-.012 0h.012v-1.5h-.012v1.5Zm-.013 0h.013v-1.5h-.013v1.5Zm-.012 0h.012v-1.5h-.012v1.5Zm-.013 0h.013v-1.5h-.013v1.5Zm-.013 0h.013v-1.5h-.013v1.5Zm-.013 0h.013v-1.5h-.013v1.5Zm-.012 0h.012v-1.5h-.012v1.5Zm-.013 0h.012v-1.5h-.012v1.5Zm-.013 0h.013v-1.5h-.013v1.5Zm-.013 0h.013v-1.5h-.013v1.5Zm-.013 0h.013v-1.5h-.013v1.5Zm-.013 0h.013v-1.5h-.013v1.5Zm-.013 0h.013v-1.5h-.013v1.5Zm-.013 0h.013v-1.5h-.013v1.5Zm-.013 0h.013v-1.5h-.013v1.5Zm-.013 0h.013v-1.5h-.013v1.5Zm-.013 0h.013v-1.5h-.013v1.5Zm-.013 0h.013v-1.5h-.013v1.5Zm-.013 0h.013v-1.5h-.013v1.5Zm-.013 0h.013v-1.5h-.013v1.5Zm-.013 0h.013v-1.5h-.013v1.5Zm-.013 0h.013v-1.5h-.013v1.5Zm-.013 0h.013v-1.5h-.013v1.5Zm-.014 0h.014v-1.5h-.014v1.5Zm-.013 0h.014v-1.5h-.014v1.5Zm-.013 0h.013v-1.5h-.013v1.5Zm-.013 0h.013v-1.5h-.013v1.5Zm-.013 0h.013v-1.5h-.013v1.5Zm-.014 0h.014v-1.5h-.014v1.5Zm-.013 0h.013v-1.5h-.013v1.5Zm-.013 0h.013v-1.5h-.013v1.5Zm-.014 0h.014v-1.5h-.014v1.5Zm-.013 0h.013v-1.5h-.013v1.5Zm-.014 0h.014v-1.5h-.014v1.5Zm-.013 0h.013v-1.5h-.013v1.5Zm-.013 0h.013v-1.5h-.013v1.5Zm-.014 0h.014v-1.5h-.014v1.5Zm-.013 0h.013v-1.5h-.013v1.5Zm-.014 0h.014v-1.5h-.014v1.5Zm-.013 0h.013v-1.5h-.013v1.5Zm-.014 0h.014v-1.5h-.014v1.5Zm-.014 0h.014v-1.5h-.014v1.5Zm-.013 0h.014v-1.5h-.014v1.5Zm-.014 0h.014v-1.5h-.014v1.5Zm-.013 0h.013v-1.5h-.013v1.5Zm-.014 0h.014v-1.5h-.014v1.5Zm-.014 0h.014v-1.5h-.014v1.5Zm-.013 0h.013v-1.5h-.013v1.5Zm-.014 0h.014v-1.5h-.014v1.5Zm-.014 0h.014v-1.5h-.014v1.5Zm-.014 0h.014v-1.5h-.014v1.5Zm-.013 0h.014v-1.5h-.014v1.5Zm-.014 0h.014v-1.5h-.014v1.5Zm-.014 0h.014v-1.5h-.014v1.5Zm-.014 0h.014v-1.5h-.014v1.5Zm-.013 0h.013v-1.5h-.013v1.5Zm-.014 0h.014v-1.5h-.014v1.5Zm-.014 0h.014v-1.5h-.014v1.5Zm-.014 0h.014v-1.5h-.014v1.5Zm-.014 0h.014v-1.5h-.014v1.5Zm-.014 0h.014v-1.5h-.014v1.5Zm-.014 0h.014v-1.5h-.014v1.5Zm-.014 0h.014v-1.5h-.014v1.5Zm-.014 0h.014v-1.5h-.014v1.5Zm-.014 0h.014v-1.5h-.014v1.5Zm-.013 0h.014v-1.5h-.014v1.5Zm-.014 0h.014v-1.5h-.014v1.5Zm-.014 0h.014v-1.5h-.014v1.5Zm-.014 0h.014v-1.5h-.014v1.5Zm-.015 0h.015v-1.5h-.015v1.5Zm-.014 0h.014v-1.5h-.014v1.5Zm-.014 0h.015v-1.5h-.015v1.5Zm-.014 0h.014v-1.5h-.014v1.5Zm-.014 0h.014v-1.5h-.014v1.5Zm-.014 0h.014v-1.5h-.014v1.5Zm-.014 0h.014v-1.5h-.014v1.5Zm-.014 0h.014v-1.5h-.014v1.5Zm-.014 0h.014v-1.5h-.014v1.5Zm-.014 0h.014v-1.5h-.014v1.5Zm-.014 0h.014v-1.5h-.014v1.5Zm-.015 0h.015v-1.5h-.015v1.5Zm-.014 0h.014v-1.5h-.014v1.5Zm-.014 0h.014v-1.5h-.014v1.5Zm-.014 0h.014v-1.5h-.014v1.5Zm-.015 0h.015v-1.5h-.015v1.5Zm-.014 0h.014v-1.5h-.014v1.5Zm-.014 0h.014v-1.5h-.014v1.5Zm-.014 0h.014v-1.5h-.014v1.5Zm-.014 0h.014v-1.5h-.014v1.5Zm-.015 0h.015v-1.5h-.015v1.5Zm-.014 0h.014v-1.5h-.014v1.5Zm-.014 0h.014v-1.5h-.014v1.5Zm-.015 0h.015v-1.5h-.015v1.5Zm-.014 0h.014v-1.5h-.014v1.5Zm-.014 0h.014v-1.5h-.014v1.5Zm-.015 0h.015v-1.5h-.015v1.5Zm-.014 0h.014v-1.5h-.014v1.5Zm-.014 0h.014v-1.5h-.014v1.5Zm-.015 0h.015v-1.5h-.015v1.5Zm-.014 0h.014v-1.5h-.014v1.5Zm-.014 0h.014v-1.5h-.014v1.5Zm-.015 0h.015v-1.5h-.015v1.5Zm-.014 0h.014v-1.5h-.014v1.5Zm-.015 0h.015v-1.5h-.015v1.5Zm-.014 0h.014v-1.5h-.014v1.5Zm-.014 0h.014v-1.5h-.014v1.5Zm-.015 0h.015v-1.5h-.015v1.5Zm-.014 0h.014v-1.5h-.014v1.5Zm-.015 0h.015v-1.5h-.015v1.5Zm-.014 0h.014v-1.5h-.014v1.5Zm-.015 0h.015v-1.5h-.015v1.5Zm-.014 0h.014v-1.5h-.014v1.5Zm-.015 0h.015v-1.5h-.015v1.5Zm-.014 0h.014v-1.5h-.014v1.5Zm-.015 0h.015v-1.5h-.015v1.5Zm-.014 0h.014v-1.5h-.014v1.5Zm-.015 0h.015v-1.5h-.015v1.5Zm-.014 0h.014v-1.5h-.014v1.5Zm-.015 0h.015v-1.5h-.015v1.5Zm-.014 0h.014v-1.5h-.014v1.5Zm-.015 0h.015v-1.5h-.015v1.5Zm-.014 0h.014v-1.5h-.014v1.5Zm-.015 0h.015v-1.5h-.015v1.5Zm-.014 0h.014v-1.5h-.014v1.5Zm-.015 0h.015v-1.5h-.015v1.5Zm-.014 0h.014v-1.5h-.014v1.5Zm-.015 0h.015v-1.5h-.015v1.5Zm-.014 0h.014v-1.5h-.014v1.5Zm-.015 0h.015v-1.5h-.015v1.5Zm-.014 0h.014v-1.5h-.014v1.5Zm-.015 0h.015v-1.5h-.015v1.5Zm-.015 0h.015v-1.5h-.015v1.5Zm-.014 0h.014v-1.5h-.014v1.5Zm-.015 0h.015v-1.5h-.015v1.5Zm-.014 0h.014v-1.5h-.014v1.5Zm-.015 0h.015v-1.5h-.015v1.5Zm-.014 0h.014v-1.5h-.014v1.5Zm-.015 0h.015v-1.5h-.015v1.5Zm-.014 0h.014v-1.5h-.014v1.5Zm-.015 0h.015v-1.5h-.015v1.5Zm-.015 0h.015v-1.5H28v1.5Zm-.014 0H28v-1.5h-.014v1.5Zm-.015 0h.015v-1.5h-.015v1.5Zm-.014 0h.014v-1.5h-.014v1.5Zm-.015 0h.015v-1.5h-.015v1.5Zm-.014 0h.014v-1.5h-.014v1.5Zm-.015 0h.015v-1.5h-.015v1.5Zm-.015 0h.015v-1.5h-.015v1.5Zm-.014 0h.014v-1.5h-.014v1.5Zm-.015 0h.015v-1.5h-.015v1.5Zm-.014 0h.014v-1.5h-.014v1.5Zm-.015 0h.015v-1.5h-.015v1.5Zm-.014 0h.014v-1.5h-.014v1.5Zm-.015 0h.015v-1.5h-.015v1.5Zm-.014 0h.014v-1.5h-.014v1.5Zm-.015 0h.015v-1.5h-.015v1.5Zm-.015 0h.015v-1.5h-.015v1.5Zm-.014 0h.014v-1.5h-.014v1.5Zm-.015 0h.015v-1.5h-.015v1.5Zm-.014 0h.014v-1.5h-.014v1.5Zm-.015 0h.015v-1.5h-.015v1.5Zm-.014 0h.014v-1.5h-.014v1.5Zm-.015 0h.015v-1.5h-.015v1.5Zm-.014 0h.014v-1.5h-.014v1.5Zm-.015 0h.015v-1.5h-.015v1.5Zm-.014 0h.014v-1.5h-.014v1.5Zm-.015 0h.015v-1.5h-.015v1.5Zm-.014 0h.014v-1.5h-.014v1.5Zm-.015 0h.015v-1.5h-.015v1.5Zm-.015 0h.015v-1.5h-.015v1.5Zm-.014 0h.014v-1.5h-.014v1.5Zm-.015 0h.015v-1.5h-.015v1.5Zm-.014 0h.014v-1.5h-.014v1.5Zm-.015 0h.015v-1.5h-.015v1.5Zm-.014 0h.014v-1.5h-.014v1.5Zm-.015 0h.015v-1.5h-.015v1.5Zm-.014 0h.014v-1.5h-.014v1.5Zm-.014 0h.014v-1.5h-.014v1.5Zm-.015 0h.015v-1.5h-.015v1.5Zm-.014 0h.014v-1.5h-.014v1.5Zm-.015 0h.015v-1.5h-.015v1.5Zm-.014 0h.014v-1.5h-.014v1.5Zm-.015 0h.015v-1.5h-.015v1.5Zm-.014 0h.014v-1.5h-.014v1.5Zm-.015 0h.015v-1.5h-.015v1.5Zm-.014 0h.014v-1.5h-.014v1.5Zm-.014 0h.014v-1.5h-.014v1.5Zm-.015 0h.015v-1.5h-.015v1.5Zm-.014 0h.014v-1.5h-.014v1.5Zm-.014 0h.014v-1.5h-.014v1.5Zm-.015 0h.015v-1.5h-.015v1.5Zm-.014 0h.014v-1.5h-.014v1.5Zm-.015 0h.015v-1.5h-.015v1.5Zm-.014 0h.014v-1.5h-.014v1.5Zm-.014 0h.014v-1.5h-.014v1.5Zm-.015 0h.015v-1.5h-.015v1.5Zm-.014 0h.014v-1.5h-.014v1.5Zm-.014 0h.014v-1.5h-.014v1.5Zm-.015 0h.015v-1.5h-.015v1.5Zm-.014 0h.014v-1.5h-.014v1.5Zm-.014 0h.014v-1.5h-.014v1.5Zm-.015 0h.015v-1.5h-.015v1.5Zm-.014 0h.014v-1.5h-.014v1.5Zm-.014 0h.014v-1.5h-.014v1.5Zm-.014 0h.014v-1.5h-.014v1.5Zm-.014 0h.014v-1.5h-.014v1.5Zm-.015 0h.015v-1.5h-.015v1.5Zm-.014 0h.014v-1.5h-.014v1.5Zm-.014 0h.014v-1.5h-.014v1.5Zm-.014 0h.014v-1.5h-.014v1.5Zm-.014 0h.014v-1.5h-.014v1.5Zm-.015 0h.015v-1.5h-.015v1.5Zm-.014 0h.014v-1.5h-.014v1.5Zm-.014 0h.014v-1.5h-.014v1.5Zm-.014 0h.014v-1.5h-.014v1.5Zm-.014 0h.014v-1.5h-.014v1.5Zm-.014 0h.014v-1.5h-.014v1.5Zm-.014 0h.014v-1.5h-.014v1.5Zm-.014 0h.014v-1.5h-.014v1.5Zm-.014 0h.014v-1.5h-.014v1.5Zm-.014 0h.014v-1.5h-.014v1.5Zm-.015 0h.015v-1.5h-.015v1.5Zm-.014 0h.014v-1.5h-.014v1.5Zm-.014 0h.014v-1.5h-.014v1.5Zm-.014 0h.014v-1.5h-.014v1.5Zm-.014 0h.015v-1.5h-.014v1.5Zm-.013 0h.014v-1.5h-.014v1.5Zm-.014 0h.014v-1.5h-.014v1.5Zm-.014 0h.014v-1.5h-.014v1.5Zm-.014 0h.014v-1.5h-.014v1.5Zm-.014 0h.014v-1.5h-.014v1.5Zm-.014 0h.014v-1.5h-.014v1.5Zm-.014 0h.014v-1.5h-.014v1.5Zm-.014 0h.014v-1.5h-.014v1.5Zm-.014 0h.014v-1.5h-.014v1.5Zm-.013 0h.014v-1.5h-.014v1.5Zm-.014 0h.014v-1.5h-.014v1.5Zm-.014 0h.014v-1.5h-.014v1.5Zm-.014 0h.014v-1.5h-.014v1.5Zm-.013 0h.013v-1.5h-.013v1.5Zm-.014 0h.014v-1.5h-.014v1.5Zm-.014 0h.014v-1.5h-.014v1.5Zm-.013 0h.013v-1.5h-.013v1.5Zm-.014 0h.014v-1.5h-.014v1.5Zm-.014 0h.014v-1.5h-.014v1.5Zm-.013 0h.013v-1.5h-.013v1.5Zm-.014 0h.014v-1.5h-.014v1.5Zm-.014 0h.014v-1.5h-.014v1.5Zm-.013 0h.013v-1.5h-.013v1.5Zm-.014 0h.014v-1.5h-.014v1.5Zm-.013 0h.013v-1.5h-.013v1.5Zm-.014 0h.014v-1.5h-.014v1.5Zm-.013 0h.013v-1.5h-.013v1.5Zm-.014 0h.014v-1.5h-.014v1.5Zm-.013 0h.013v-1.5h-.013v1.5Zm-.014 0h.014v-1.5h-.014v1.5Zm-.013 0h.013v-1.5h-.013v1.5Zm-.014 0h.014v-1.5h-.014v1.5Zm-.013 0h.013v-1.5h-.013v1.5Zm-.013 0h.013v-1.5h-.013v1.5Zm-.014 0h.014v-1.5H26.3v1.5Zm-.013 0h.013v-1.5h-.013v1.5Zm-.013 0h.013v-1.5h-.013v1.5Zm-.014 0h.014v-1.5h-.014v1.5Zm-.013 0h.014v-1.5h-.014v1.5Zm-.013 0h.013v-1.5h-.013v1.5Zm-.013 0h.013v-1.5h-.013v1.5Zm-.013 0h.013v-1.5h-.013v1.5Zm-.013 0h.013v-1.5h-.013v1.5Zm-.014 0h.014v-1.5h-.014v1.5Zm-.013 0h.013v-1.5h-.013v1.5Zm-.013 0h.013v-1.5h-.013v1.5Zm-.013 0h.013v-1.5h-.013v1.5Zm-.013 0h.013v-1.5h-.013v1.5Zm-.013 0h.013v-1.5h-.013v1.5Zm-.013 0h.013v-1.5h-.013v1.5Zm-.013 0h.013v-1.5h-.013v1.5Zm-.013 0h.013v-1.5h-.013v1.5Zm-.013 0h.013v-1.5h-.013v1.5Zm-.013 0h.013v-1.5h-.013v1.5Zm-.012 0h.012v-1.5h-.012v1.5Zm-.013 0h.012v-1.5h-.012v1.5Zm-.013 0h.013v-1.5h-.013v1.5Zm-.013 0h.013v-1.5H26v1.5Zm-.013 0H26v-1.5h-.013v1.5Zm-.012 0h.012v-1.5h-.012v1.5Zm-.013 0h.012v-1.5h-.012v1.5Zm-.013 0h.013v-1.5h-.013v1.5Zm-.013 0h.013v-1.5h-.013v1.5Zm-.012 0h.012v-1.5h-.012v1.5Zm-.013 0h.013v-1.5h-.013v1.5Zm-.012 0h.012v-1.5H25.9v1.5Zm-.013 0h.013v-1.5h-.013v1.5Zm-.012 0h.012v-1.5h-.012v1.5Zm-.013 0h.013v-1.5h-.013v1.5Zm-.012 0h.012v-1.5h-.012v1.5Zm-.013 0h.013v-1.5h-.013v1.5Zm-.012 0h.012v-1.5h-.012v1.5Zm-.013 0h.013v-1.5h-.013v1.5Zm-.012 0h.012v-1.5H25.8v1.5Zm-.012 0h.012v-1.5h-.012v1.5Zm-.013 0h.013v-1.5h-.013v1.5Zm-.012 0h.012v-1.5h-.012v1.5Zm-.012 0h.012v-1.5h-.012v1.5Zm-.012 0h.012v-1.5h-.012v1.5Zm-.012 0h.012v-1.5h-.012v1.5Zm-.013 0h.012v-1.5h-.012v1.5Zm-.012 0h.012v-1.5h-.012v1.5Zm-.012 0h.012v-1.5h-.012v1.5Zm-.012 0h.012v-1.5h-.012v1.5Zm-.012 0h.012v-1.5h-.012v1.5Zm-.012 0h.012v-1.5h-.012v1.5Zm-.012 0h.012v-1.5h-.012v1.5Zm-.012 0h.012v-1.5h-.012v1.5Zm-.012 0h.012v-1.5h-.012v1.5Zm-.012 0h.012v-1.5h-.012v1.5Zm-.012 0h.012v-1.5h-.012v1.5Zm-.011 0h.011v-1.5h-.011v1.5Zm-.012 0h.012v-1.5h-.012v1.5Zm-.012 0h.012v-1.5h-.012v1.5Zm-.011 0h.011v-1.5h-.011v1.5Zm-.012 0h.012v-1.5h-.012v1.5Zm-.012 0h.012v-1.5h-.012v1.5Zm-.011 0h.011v-1.5h-.011v1.5Zm-.012 0h.012v-1.5H25.5v1.5Zm-.012 0h.012v-1.5h-.012v1.5Zm-.011 0h.011v-1.5h-.011v1.5Zm-.012 0h.012v-1.5h-.012v1.5Zm-.011 0h.011v-1.5h-.011v1.5Zm-.012 0h.012v-1.5h-.012v1.5Zm-.01 0h.01v-1.5h-.01v1.5Zm-.012 0h.011v-1.5h-.011v1.5Zm-.012 0h.012v-1.5h-.012v1.5Zm-.01 0h.01v-1.5h-.01v1.5Zm-.012 0h.011v-1.5h-.011v1.5Zm-.011 0h.011v-1.5h-.011v1.5Zm-.011 0h.01v-1.5h-.01v1.5Zm-.012 0h.012v-1.5h-.012v1.5Zm-.01 0h.01v-1.5h-.01v1.5Zm-.012 0h.011v-1.5h-.01v1.5Zm-.01 0h.01v-1.5h-.01v1.5Zm-.012 0h.011v-1.5h-.01v1.5Zm-.01 0h.01v-1.5h-.01v1.5Zm-.012 0h.011v-1.5h-.01v1.5Zm-.01 0h.01v-1.5h-.01v1.5Zm-.011 0h.01v-1.5h-.01v1.5Zm-.011 0h.01v-1.5h-.01v1.5Zm-.01 0h.01v-1.5h-.01v1.5Zm-.012 0h.011v-1.5h-.01v1.5Zm-.01 0h.01v-1.5h-.01v1.5Zm-.01 0h.01v-1.5h-.01v1.5Zm-.011 0h.01v-1.5h-.01v1.5Zm-.011 0h.01v-1.5h-.01v1.5Zm-.01 0h.01v-1.5h-.01v1.5Zm-.011 0h.01v-1.5h-.01v1.5Zm-.01 0h.01v-1.5h-.01v1.5Zm-.011 0h.01v-1.5h-.01v1.5Zm-.01 0h.01v-1.5h-.01v1.5Zm-.01 0h.01v-1.5h-.01v1.5Zm-.011 0h.01v-1.5h-.01v1.5Zm-.01 0h.01v-1.5h-.01v1.5Zm-.01 0h.01v-1.5h-.01v1.5Zm-.01 0h.01v-1.5h-.01v1.5Zm-.01 0h.01v-1.5h-.01v1.5Zm-.01 0h.01v-1.5h-.01v1.5Zm-.011 0h.01v-1.5h-.01v1.5Zm-.01 0h.01v-1.5h-.01v1.5Zm-.01 0h.01v-1.5h-.01v1.5Zm-.01 0h.01v-1.5h-.01v1.5Zm-.01 0h.01v-1.5h-.01v1.5Zm-.01 0h.01v-1.5h-.01v1.5Zm-.01 0h.01v-1.5h-.01v1.5Zm-.01 0h.01v-1.5h-.01v1.5Zm-.009 0h.01v-1.5h-.01v1.5Zm-.01 0h.01v-1.5h-.01v1.5Zm-.01 0h.01v-1.5h-.01v1.5Zm-.009 0h.01v-1.5h-.01v1.5Zm-.01 0h.01v-1.5h-.01v1.5Zm-.009 0h.01v-1.5h-.01v1.5Zm-.01 0h.01v-1.5h-.01v1.5Zm-.009 0h.01v-1.5h-.01v1.5Zm-.01 0h.01v-1.5h-.01v1.5Zm-.009 0h.01v-1.5h-.01v1.5Zm-.009 0h.01v-1.5h-.01v1.5Zm-.01 0h.01v-1.5h-.01v1.5Zm-.008 0h.009v-1.5h-.01v1.5Zm-.01 0h.01v-1.5h-.01v1.5Zm-.009 0h.01v-1.5h-.01v1.5Zm-.009 0h.01v-1.5h-.01v1.5Zm-.009 0h.01v-1.5h-.01v1.5Zm-.009 0h.01v-1.5h-.01v1.5Zm-.009 0h.01v-1.5h-.01v1.5Zm-.009 0h.01v-1.5h-.01v1.5Zm-.008 0h.008v-1.5h-.008v1.5Zm-.01 0h.01v-1.5h-.01v1.5Zm-.008 0h.009v-1.5h-.009v1.5Zm-.009 0h.01v-1.5h-.01v1.5Zm-.008 0h.008v-1.5h-.008v1.5Zm-.009 0h.009v-1.5h-.009v1.5Zm-.008 0h.008v-1.5h-.008v1.5Zm-.009 0h.009v-1.5h-.009v1.5Zm-.008 0h.008v-1.5h-.008v1.5Zm-.009 0h.009v-1.5h-.009v1.5Zm-.008 0h.008v-1.5h-.008v1.5Zm-.008 0h.008v-1.5h-.008v1.5Zm-.009 0h.009v-1.5h-.009v1.5Zm-.008 0h.008v-1.5h-.008v1.5Zm-.008 0h.008v-1.5h-.008v1.5Zm-.008 0h.008v-1.5h-.008v1.5Zm-.008 0h.008v-1.5h-.008v1.5Zm-.008 0h.008v-1.5h-.008v1.5Zm-.008 0h.008v-1.5h-.008v1.5Zm-.008 0h.008v-1.5h-.008v1.5Zm-.008 0h.008v-1.5h-.008v1.5Zm-.008 0h.008v-1.5h-.008v1.5Zm-.008 0h.008v-1.5h-.008v1.5Zm-.008 0h.008v-1.5h-.008v1.5Zm-.007 0h.008v-1.5h-.008v1.5Zm-.008 0h.008v-1.5h-.008v1.5Zm-.007 0h.007v-1.5h-.007v1.5Zm-.008 0h.008v-1.5h-.008v1.5Zm-6.4 0h6.4v-1.5h-6.4v1.5Zm20.65 18.666c0 7.594-6.337 13.829-14.25 13.829v1.5c8.704 0 15.75-6.87 15.75-15.33h-1.5ZM24.57 11.92c7.913 0 14.25 6.236 14.25 13.83h1.5c0-8.46-7.045-15.33-15.75-15.33v1.5ZM10.32 25.75c0-7.594 6.335-13.83 14.25-13.83v-1.5c-8.706 0-15.75 6.87-15.75 15.33h1.5Zm14.25 13.829c-7.915 0-14.25-6.235-14.25-13.83h-1.5c0 8.46 7.044 15.33 15.75 15.33v-1.5Zm1.25-23.177c0-.69-.56-1.25-1.25-1.25v1.5a.25.25 0 0 1-.25-.25h1.5Zm0 9.921v-9.92h-1.5v9.92h1.5Zm4.412-4.698-5.605 4.093.885 1.211 5.605-4.093-.885-1.211Zm1.747.272a1.25 1.25 0 0 0-1.747-.272l.885 1.21a.25.25 0 0 1-.35-.054l1.212-.884Zm-.273 1.746a1.25 1.25 0 0 0 .273-1.746l-1.212.884a.25.25 0 0 1 .055-.349l.884 1.211Zm-6.4 4.674 6.4-4.674-.884-1.21-6.4 4.673.885 1.211Zm-1.303.105c.42.213.923.173 1.303-.105l-.884-1.211a.25.25 0 0 1 .26-.021l-.679 1.337Zm-.684-1.114c0 .47.265.901.684 1.114l.68-1.337a.25.25 0 0 1 .136.223h-1.5Zm0-10.906v10.906h1.5V16.402h-1.5Zm1.25-1.25c-.69 0-1.25.56-1.25 1.25h1.5a.25.25 0 0 1-.25.25v-1.5Z" fill="#D3965F"/></svg>