<svg width="48" height="48" fill="none" xmlns="http://www.w3.org/2000/svg"><path d="m41 37-4.83-4.83A4.004 4.004 0 0 0 33.34 31H32l-2 1h-4c-1.1 0-2 .9-2 2v2" stroke="#D3965F" stroke-width="2" stroke-linecap="round" stroke-linejoin="round"/><path d="m35 43-2-2H21l-9-9 1.57-.39c1.53-.38 3.16-.03 4.39.96L22 36h8M7 10l4.83 4.83c.75.75 1.77 1.17 2.83 1.17H16l2-1h4c1.1 0 2-.9 2-2v-2" stroke="#D3965F" stroke-width="2" stroke-linecap="round" stroke-linejoin="round"/><path d="m13 4 2 2h12l9 9-1.57.39c-1.53.38-3.16.03-4.39-.96L26 11h-8m6 8.72a3.178 3.178 0 0 1 3.23-1.69c1.6.2 2.77 1.64 2.77 3.25 0 1.74-.69 3.41-1.92 4.64L24 30l-4.08-4.08A6.562 6.562 0 0 1 18 21.28c0-1.7 1.3-3.18 3-3.27 1.3-.07 2.45.64 3 1.72v-.01Z" stroke="#D3965F" stroke-width="2" stroke-linecap="round" stroke-linejoin="round"/></svg>