<svg width="48" height="48" fill="none" xmlns="http://www.w3.org/2000/svg"><path d="M16.742 6h14.516l.29.29.218 1.089.436.726.58.435.58.218.8.145.29.29v4.138l-.218 1.742-.436 1.887-.58 1.742-.799 1.741-.725 1.307-.581.871-.653.87-.654.8-.87.943-.581.58-.799.654-.798.653-1.306.87-1.162.654-.145.073.363.145 1.306.218 1.162.072 3.411.073.726.29.508.436.363.58v.145l3.774-1.451 2.83-1.089.291-.073h1.306l.726.29.58.509.364.58.145.436v1.234l-.29.653-.436.58-.798.509-1.742 1.016-1.742 1.016-1.742 1.016-1.742 1.016-1.742 1.017-1.742 1.016-1.379.653-1.451.435-1.307.218h-2.25l-1.306-.218-1.452-.435-3.266-1.307-.799-.217h-1.451l-.944.29-.87.508-1.67 1.67-.072 1.16-.29.291H6.29L6 41.71V28.355l.29-.29h5.226l.29.29.073 1.451 1.597-1.016L15 28.064l1.524-.435 1.016-.145h2.105l1.307.218 1.16.362 1.453.509-1.38-.799-1.306-.943-.944-.799-.943-.87-.944-1.017-.943-1.234-.871-1.306-.726-1.307-.726-1.596-.653-2.033-.363-1.596-.218-1.742V9.194l.29-.29 1.09-.219.725-.435.436-.58.218-.581.145-.799.29-.29Zm.87 1.161-.435 1.162-.508.653-.58.508-.726.363-.653.218v1.596l.072 1.597.218 1.597.363 1.597.653 1.96.871 1.814.58 1.016.872 1.234.653.798.653.726 1.234 1.234 1.016.798 1.162.799.87.508.436-.145 1.234-.799.87-.653.944-.799 1.452-1.451.798-1.016.726-1.016.653-1.089.581-1.161.58-1.38.581-1.886.363-1.96.073-.726.072-1.597v-1.596l-1.161-.436-.653-.508-.508-.58-.363-.726-.218-.654H17.613Zm-.072 21.557-1.379.29-1.234.436-1.088.58-1.597 1.016-.436.29v7.404l.509-.436.725-.58 1.089-.58 1.089-.291h1.814l1.016.29 3.121 1.234 1.307.435 1.234.218h2.104l1.452-.29 1.089-.363 1.161-.58 2.032-1.162 1.96-1.161 1.887-1.089 1.742-1.016 1.742-1.016 1.452-.871.362-.436.073-.145v-.798l-.29-.436-.363-.29-.58-.145-.872.218-3.774 1.451-2.613 1.016-.218.218-.29.653-.29.436-.653.435-.436.145-8.129.073V32.71h7.549l.653-.218.363-.436.072-.145v-.726l-.29-.435-.436-.29-.363-.073-4.137-.073-1.596-.29-1.452-.435-1.089-.436-1.451-.363-.508-.072H17.54Zm-10.379.508v11.613h3.484V29.226H7.161Z" fill="#D3965F" stroke="#D3965F" stroke-width=".5"/><path d="m20 15 3.5 3.5 5.5-7" stroke="#D3965F" stroke-width="2" stroke-linecap="round" stroke-linejoin="round"/></svg>